<?xml version="1.0" encoding="utf-8"?>
<!-- Generator: Adobe Illustrator 26.2.1, SVG Export Plug-In . SVG Version: 6.00 Build 0)  -->
<svg version="1.1" id="OBJECTS" xmlns="http://www.w3.org/2000/svg" xmlns:xlink="http://www.w3.org/1999/xlink" x="0px" y="0px"
	 viewBox="0 0 500 389" style="enable-background:new 0 0 500 389;" xml:space="preserve">
<style type="text/css">
	.st0{fill:#1C1F2A;}
	.st1{display:none;fill:#588531;}
	.st2{fill:#F2A7A0;}
	.st3{fill:#FDBAB2;}
	.st4{fill:#FDBAB2;stroke:#AA5861;stroke-miterlimit:10;}
	.st5{fill:#E65C49;}
	.st6{fill:#635BA9;}
	.st7{fill:#E1DBFF;}
	.st8{fill:#E38A8A;}
	.st9{fill:#4C2D29;}
	.st10{fill:#3B201F;}
	.st11{fill:#EF6A51;}
	.st12{fill:#FA9570;}
	.st13{fill:#FFFFFF;}
	.st14{fill:#1F1313;}
	.st15{fill:#061521;}
	.st16{fill:#C96974;}
	.st17{fill:#4D2238;}
	.st18{fill:#FFA03B;}
	.st19{fill:#FFC05C;}
	.st20{fill:#8E5448;}
	.st21{fill:#E88B2E;}
	.st22{fill:#8E5448;stroke:#5E2E2E;stroke-miterlimit:10;}
	.st23{fill:#854840;}
	.st24{fill:#854840;stroke:#5E2E2E;stroke-miterlimit:10;}
	.st25{fill:#FFE9D6;}
	.st26{fill:#51428F;}
	.st27{fill:#FEBB34;}
	.st28{fill:#75413C;}
	.st29{fill:#4B2B27;}
	.st30{fill:#5E2E2E;}
	.st31{fill:#361629;}
	.st32{fill:#633D35;}
	.st33{fill:#863A06;}
	.st34{fill:#F07FB3;}
	.st35{fill:#D44E79;}
	.st36{fill:#6B68B3;}
	.st37{fill:#585394;}
	.st38{fill:none;stroke:#585394;stroke-miterlimit:10;}
	.st39{fill:#AFA5E6;}
	.st40{fill:#A15815;}
</style>
<rect class="st0" width="500" height="391.7"/>
<g>
	<g>
		<g>
			<g>
				<ellipse class="st1" cx="408" cy="356.5" rx="54" ry="8"/>
				<g>
					<g>
						<path class="st2" d="M440.6,37.8c-3.2-5.4-6-11-8.2-16.9c-0.3-0.8-0.6-1.7-0.6-2.6c0.1-0.9,0.6-1.8,1.5-2
							c0.8-0.2,1.7,0.2,2.4,0.7c2.3,1.5,4.3,3.2,6.3,5.7c0.9-4.6,2.2-9,4.1-13.3c0.4-0.8,0.8-1.6,1.4-2.2s1.7-0.9,2.5-0.5
							c1.2,0.5,1.4,2.1,1.3,3.4c-0.1,3.1-0.5,6.3-1.1,9.9c2.3-3.3,5.1-6.2,8.3-8.6c0.8-0.6,1.9-0.8,2.8-0.5c1.9,0.8,1.6,3,1,4.7
							c-1,2.8-2.3,5.6-3.6,8.8c2.3-3,5.5-5.3,9.1-6.4c1.3-0.4,2.9-0.6,3.6,0.8c0.4,0.8,0.4,1.8,0,2.6c-1.8,3.7-4,7.1-6.3,10.9
							c1.3-0.5,2.3-1.6,3.4-2.5c1.3-1.2,2.7-2.4,4.6-2.4c0.9,0,1.8,0.3,2.3,1c1.2,1.5,0.3,3.4-0.7,4.9c-4.3,6.6-10,12.3-16.5,16.6
							C452.8,46.3,445,45,440.6,37.8z"/>
						<polygon class="st2" points="459,48 422.3,149.6 403.2,117.6 443.2,39.6 						"/>
					</g>
					<g>
						<g>
							<path class="st3" d="M340.5,153.4c2-4.3,3.2-6.6,1.6-10.1c-1.6-3.5-6.2-3.6-8-2.2c-2.3-2.8-4.8-5.8-8.3-6.8s-7.1,0.4-7.2,4.1
								c-4.5-0.6-6.4,3.8-5.4,6.2c-2.6,0.8-5.4,2.9-4.1,9c-2,1.9-1.9,5.6-0.2,7.9c4,5.3,10.9,9.8,17.5,9.2
								C332,165.7,337.4,160.2,340.5,153.4z"/>
							<path class="st4" d="M318.4,138.5c0,0,2.2,0.2,4.4,2.3c3.4,3.3,7.5,8.9,5.5,11.7c-3.3,4.7-13.5-6-13.5-6"/>
							<path class="st4" d="M333.9,141.7c0,0-9.8,10.3-6.4,13.5c3.5,3.1,9.8-3.2,9.8-3.2"/>
							<path class="st4" d="M314.7,144.5c0,0,2.2,0.2,4.4,2.3c3.4,3.3,7.5,8.9,5.5,11.7c-3.3,4.7-12.5-4.7-12.5-4.7"/>
							<path class="st4" d="M309.7,154.3c0,0,1.6-2.2,5.3-0.3c2.3,1.2,8.9,6.5,7,9.2c-2.5,3.4-9.7-1.8-9.7-1.8"/>
						</g>
						<path class="st3" d="M325.1,170.4l25.7,13.2c5.4,2.8,11.8,1.6,15.9-3l7-7.7l-7.8-30.5l-12,19.8l-17.5-4.4L325.1,170.4z"/>
					</g>
					<polygon class="st5" points="417.2,103.6 440.3,127.6 416.8,159.6 404.3,134.1 					"/>
					<polygon class="st5" points="369.6,135.6 351.7,157.3 375.4,176.2 380.7,153.1 377.5,136.8 					"/>
					<g>
						<g>
							<path class="st6" d="M464.9,260.5c-11.1,3-20.8-6.2-27-14.5c-4.5-6.1-8.7-16.6-8.7-16.6l29.8-11.1c3.1,3.8,5.3,7.5,6.8,11.1
								C472.7,246.2,464.9,260.5,464.9,260.5z"/>
							<path class="st7" d="M464.9,260.5c-11.1,3-20.8-6.2-27-14.5c6.6,5.6,17.4,12.6,26.2,11.5c0,0,8.1-7.6,1.6-28.1
								C472.7,246.2,464.9,260.5,464.9,260.5z"/>
						</g>
						<g>
							<g>
								<path class="st6" d="M362.2,291.4c-8.3-1.8-13,0.1-15.5,2.1c-1.9,1.5-2.5,3.1-2.5,3.1l35.8,22.3l1.2-3l2.9-7.2l0.5-4.5
									L362.2,291.4z"/>
								<path class="st7" d="M346.6,293.5c-1.9,1.5-2.5,3.1-2.5,3.1l35.8,22.3l1.2-3L346.6,293.5z"/>
							</g>
							<g>
								<g>
									<g>
										<polygon class="st3" points="407,232 402.8,245.3 397.4,262.1 383.4,305.7 361.7,292.1 370.7,248 373.2,235.8 
											376.2,220.9 377,216.9 387.8,222.3 										"/>
									</g>
								</g>
								<polygon class="st8" points="402.8,245.3 397.4,262.1 370.7,248 373.2,235.8 								"/>
							</g>
						</g>
						<g>
							<path class="st3" d="M478.7,238.9c-3.2,4.6-8.4,7.1-13.8,7.1c-2.5,0-5.1-0.6-7.5-1.8l-6.4-3.2l-15.6-7.8l24.8-29.7l5.6,4.7
								l10,8.4C482.4,222.2,483.7,231.9,478.7,238.9z"/>
							<polygon class="st8" points="465.7,208.3 451,241.1 435.4,233.3 460.1,203.6 							"/>
						</g>
						<g>
							<polygon class="st9" points="465.4,204.6 442.6,240.5 414.4,223.5 405.9,253.3 366.2,242.5 373.5,210.7 375.5,202.2 
								379.2,196 385.8,185 410.5,182.7 435,180.5 436.5,181.7 							"/>
							<polygon class="st10" points="436.5,181.7 373.5,210.7 375.5,202.2 379.2,196 410.5,182.7 435,180.5 							"/>
						</g>
					</g>
					<g>
						<path class="st11" d="M435.5,180.8l-60,21.2c-1.1-2.4-2-4.9-2.7-7.4c-0.7-2.5-1.3-5.1-1.8-7.7c-0.5-2.9-0.9-5.8-1.1-8.7
							c-0.3-3.4-0.4-6.9-0.4-10.2c0-2.3,0.1-4.5,0.2-6.7c0.1-3,0.4-5.9,0.6-8.5c1-10.4,2.7-17.6,2.7-17.6l39.6-2.4
							c0.8,5,2,9.7,3.4,14c0.6,2,1.4,4,2.1,5.8c0.8,2,1.6,3.9,2.5,5.8c1.2,2.6,2.5,5,3.8,7.2c1.5,2.6,3.1,5,4.5,7
							c1.8,2.6,3.4,4.6,4.6,6C434.7,180,435.5,180.8,435.5,180.8z"/>
						<g>
							<path class="st3" d="M406.6,134.5c0,0-2.5,3.7-5.8,7.2c-2.9,3.1-6.3,6-9.2,6.3c-2.4,0.2-5.1-1.8-7.5-4.3
								c-3.8-3.9-6.8-9.2-6.8-9.2H406.6L406.6,134.5z"/>
							<path class="st8" d="M406.6,134.5c0,0-2.5,3.7-5.8,7.2c-4.7,1.2-10.9,2.2-16.8,2c-3.8-3.9-6.8-9.2-6.8-9.2H406.6L406.6,134.5
								z"/>
						</g>
						<path class="st12" d="M433.4,178.5l-60.6,16.1c-0.7-2.5-1.3-5.1-1.8-7.7l57.8-14.4C430.6,175.1,432.2,177.1,433.4,178.5z"/>
						<path class="st12" d="M424.3,165.5l-54.4,12.7c-0.3-3.4-0.4-6.9-0.4-10.2l51-9.7C421.8,160.9,423,163.3,424.3,165.5z"/>
						<path class="st12" d="M418,152.6l-48.4,8.8c0.1-3,0.4-5.9,0.6-8.5l45.6-6.1C416.6,148.7,417.3,150.7,418,152.6z"/>
					</g>
					<g>
						<g>
							<path class="st3" d="M334.1,105.6c2-5.9,9.1-8.8,15.8-6.5c6.7,2.3,10.6,8.9,8.6,14.8c-2,5.9-9.1,8.8-15.8,6.5
								S332.1,111.5,334.1,105.6z"/>
							<path class="st8" d="M337.7,109.8c1.2-3.5,5.9-5,10.6-3.4c4.7,1.6,7.5,5.7,6.3,9.1c-1.2,3.5-5.9,5-10.6,3.4
								C339.3,117.4,336.5,113.3,337.7,109.8z"/>
						</g>
						<g>
							<path class="st3" d="M427.2,105.8c6.9-1.6,13.7,2,15.1,8c1.4,6.1-3,12.3-10,13.9c-6.9,1.6-13.7-2-15.1-8
								C415.8,113.7,420.3,107.5,427.2,105.8z"/>
							<path class="st8" d="M429.7,113c4.8-1.1,9.4,0.8,10.2,4.4c0.8,3.6-2.4,7.4-7.2,8.5c-4.8,1.1-9.4-0.8-10.2-4.4
								C421.6,118,424.8,114.2,429.7,113z"/>
						</g>
						<path class="st3" d="M348.5,105.7c1.6-22.5,23.2-49.3,50.4-46.7c22.6,2.2,33.1,29.9,31.5,52.4c-1.5,22.5-22.2,29.4-44.8,27.4
							C363.5,136.8,347,128.2,348.5,105.7z"/>
						<path class="st8" d="M348.7,99.6c3.4-7.5,8.2-14.3,14.2-20.4c3,2.3,7.3,1.3,10.8,0c3.5-1.4,7.2-3.2,10.9-2.4
							c3,0.7,5.5,3,8.6,3.1c3.7,0.2,6.9-2.7,10.5-2.8c2.5,0,4.8,1.3,7.2,2.2s5.3,1.2,8-0.3c3.8,9.1,7.6,18.3,11.4,27.4
							c-1.2-6-0.6-12.2-1-18.3c-0.3-6.1-1.7-12.5-5.8-17c-3.8-4.1-9.3-6-14.7-7.2c-12-2.8-25-2.8-36.3,2.2
							C361.3,71.1,352.2,81.9,348.7,99.6z"/>
						<g>
							<g>
								<g>
									<path class="st13" d="M356,107.6c-0.2-5.4,4.5-10,10.6-10.3c6.1-0.2,11.2,3.9,11.4,9.4c0.2,5.4-3.6,9.8-10.8,9.8
										C360.9,116.5,356.2,113,356,107.6z"/>
									<path class="st14" d="M378,107.7c-0.3-3.7-2.4-7.1-6.1-9c-4.2-2.2-9.5-1.3-12.8,2.1c-1.9,1.9-2.9,4.3-3.1,6.8
										c-0.2-2.7,0.5-5.5,2.4-7.8c3.3-4.2,9.4-5.4,14.1-2.7C376.4,99.4,378.4,103.6,378,107.7z"/>
								</g>
								<g>
									<circle class="st14" cx="370.5" cy="108.1" r="5.7"/>
									<circle class="st13" cx="367" cy="104.6" r="1.4"/>
								</g>
							</g>
							<g>
								<g>
									<path class="st13" d="M421,113.3c1.4-5.3-2.3-10.8-8.2-12.3c-5.9-1.5-11.8,1.5-13.1,6.8c-1.4,5.3,1.5,10.3,8.5,11.8
										C414.4,121.1,419.7,118.6,421,113.3z"/>
									<path class="st14" d="M399.5,108.9c1.1-3.5,3.8-6.5,7.8-7.5c4.6-1.2,9.5,0.7,12.1,4.8c1.4,2.3,1.9,4.9,1.6,7.3
										c0.8-2.6,0.6-5.5-0.7-8.1c-2.4-4.8-8.1-7.2-13.2-5.6C402.8,101.1,400,104.8,399.5,108.9z"/>
								</g>
								<g>
									<path class="st15" d="M409,110.1c0-1.5-1.2-2.7-2.7-2.7s-2.7,1.2-2.7,2.7"/>
									<circle class="st14" cx="406.3" cy="110" r="5.7"/>
									<circle class="st13" cx="402.9" cy="106.5" r="1.4"/>
								</g>
							</g>
							<path class="st16" d="M385.2,111.4c-0.3,1.6-0.2,3.2,0.1,4.8c-1-0.3-1.7-1.2-1.8-2.2C383.4,112.9,384,111.9,385.2,111.4z"/>
							<g>
								<path class="st17" d="M385.5,130c4.2,2.3,10,1.6,13.4-1.5c3.2-3,3.9-7.9,1.8-11.7c-0.4-0.2-0.7-0.3-1.1-0.4
									c-5.9,1.7-12.2,2.4-18.5,2c-0.3,0-0.6,0-1-0.1C379,122.7,381.2,127.7,385.5,130z"/>
								<path class="st13" d="M381,118.3c0.5,1.1,1.3,2,2.3,2.6c1.6,0.9,3.5,1,5.4,1c2.4,0,4.9-0.3,7.2-1.3c1.8-0.8,3.5-2.1,4.8-3.8
									c-0.2-0.4-0.2-0.3-0.5-0.7C394.1,118,387.5,118.7,381,118.3z"/>
							</g>
							<g>
								<path class="st18" d="M375,85.7c-1.2-2.4-4-3.8-6.6-3.8c-2.7,0-5.2,1.2-7.2,3.1c-2,1.8-3.3,4.2-4.1,6.8
									C361.4,86.6,369.1,84.5,375,85.7z"/>
								<path class="st18" d="M404.7,89c2.6-3,6.9-4.3,10.7-3.3c3.8,1,6.9,4.3,8.2,9.6C418.6,90.6,411.5,88.3,404.7,89z"/>
							</g>
						</g>
						<g>
							<path class="st18" d="M433.9,76.2c2.3,14.2,0.9,29.1-4,41c-0.2-14.4-3.8-28.7-10.9-41.9c-2.3,2.2-6.1,1.5-9.1,0.3
								c-3-1.2-6.2-2.7-9.3-1.7c-1.7,0.6-3.1,1.9-4.8,2.4c-4.2,1.2-8.1-2.8-12.4-3.5c-7-1.2-14,6.5-20.2,3.6
								c-8.5,8.9-13.8,20.8-14.9,33.1c-0.6-10.7,1.1-21.6,5.2-31.8c-1.5-0.3-2.6-1.3-3.4-2.6c-0.9-1.4-1.4-3.3-1.3-5
								c0.2-3.2,2-6.2,3.7-8.9c2.9-4.7,6.1-9.7,11.2-11.6c5.7-2.2,12.4,0,18.2-1.9c4.7-1.6,8.6-5.8,13.5-5.5c4.9,0.4,8.4,5.2,13.3,6
								c4,0.6,8.5-1.7,12,0.4c0.8,0.5,1.4,1.1,1.9,1.9c1.2,1.7,1.9,3.8,3,5.7c2,3.3,5.5,5.6,7.8,8.7C435.7,68,436.4,73.1,433.9,76.2
								z"/>
							<path class="st19" d="M422.6,50.5c-1.4-0.6-3.2-0.8-4.7-0.5c-3.3,0.5-6.5,2.3-9.8,2.1c-4.7-0.2-8.8-4.1-13.5-4
								c-4,0.2-7.3,3.2-11.1,4.4c-4.9,1.6-10.2,0-15.3,0.7c-5.9,0.8-11.2,4.7-14.3,9.8c-2.2,3.7-3.5,7.9-3.8,12.3
								c-0.9-1.5-1.4-3.3-1.3-5c0.2-3.2,2-6.1,3.7-8.9c2.9-4.7,6.1-9.7,11.2-11.6c5.7-2.2,12.4,0,18.2-1.9c4.7-1.6,8.6-5.8,13.5-5.5
								c4.9,0.4,8.4,5.2,13.3,6c4,0.6,8.5-1.7,12,0.4C421.5,49.1,422.1,49.7,422.6,50.5z"/>
						</g>
					</g>
				</g>
			</g>
			<g>
				<ellipse class="st1" cx="268.3" cy="391.7" rx="70.5" ry="8"/>
				<g>
					<g>
						<path class="st20" d="M170.7,259.3l16.2,23.5c4.8,6.6,13.4,9.3,21.1,6.6l20.8-7.4l-5.4-22.6l-21.5,7.4l-20.2-17.6L170.7,259.3
							z"/>
						<path class="st21" d="M229.8,255.4l-24.2,8.9l9.5,28.8l20.5-5.4C235.6,287.7,235.9,263.9,229.8,255.4z"/>
						<g>
							<path class="st20" d="M186.9,242.9c2.2-4.1,3.6-6.5,2.2-10c-1.4-3.6-6-3.9-7.9-2.6c-2.1-2.9-4.5-6-7.9-7.2
								c-3.4-1.2-7.2,0.1-7.4,3.7c-4.4-0.9-6.6,3.4-5.7,5.9c-2.6,0.6-5.5,2.6-4.5,8.8c-2.1,1.8-2.2,5.5-0.6,7.8
								c3.7,5.5,10.3,10.4,17,10.1C177.7,254.8,183.4,249.5,186.9,242.9z"/>
							<path class="st22" d="M165.6,226.9c0,0,2.2,0.3,4.2,2.5c3.2,3.5,7,9.3,4.9,12c-3.5,4.5-13.2-6.7-13.2-6.7"/>
							<path class="st22" d="M180.8,230.9c0,0-10.4,9.8-7.1,13.1s10-2.7,10-2.7"/>
							<path class="st22" d="M161.6,232.7c0,0,2.2,0.3,4.2,2.5c3.2,3.5,7,9.3,4.9,12c-3.5,4.5-12.2-5.3-12.2-5.3"/>
							<path class="st22" d="M156,242.2c0,0,1.7-2.2,5.3,0c2.2,1.3,8.5,7,6.5,9.5c-2.7,3.3-9.6-2.3-9.6-2.3"/>
						</g>
					</g>
					<g>
						<path class="st23" d="M286.4,142.6c20.8,26.5,20.4,58.5,8.8,93.4l-28-6.2c12.1-28.3,16.3-50.2,2.6-80.2L286.4,142.6z"/>
						<polygon class="st21" points="282.9,270 299.2,233.5 268.3,220.1 256.3,249.7 						"/>
						<g>
							<path class="st23" d="M265.1,150.5c-4.7,0.2-7.4,0.4-10-2.4c-2.6-2.8-0.9-7.1,1.1-8.2c-1.7-3.2-3.5-6.7-3.1-10.3
								c0.4-3.6,3.1-6.4,6.5-5.1c1.1-4.4,6-4.5,7.8-2.6c1.7-2.1,4.7-3.8,9.9-0.3c2.6-1.1,5.9,0.4,7.3,2.8c3.4,5.8,4.9,13.8,1.8,19.7
								C279.7,147.3,272.6,150.2,265.1,150.5z"/>
							<path class="st24" d="M259.8,124.4c0,0-0.7,2.1,0.5,4.9c1.8,4.4,5.3,10.3,8.7,9.6c5.6-1.2-0.4-14.8-0.4-14.8"/>
							<path class="st24" d="M256.9,139.9c0,0,13.3-5.2,14.9-0.7c1.6,4.4-6.7,7.9-6.7,7.9"/>
							<path class="st24" d="M266.7,123.3c0,0-0.7,2.1,0.5,4.9c1.8,4.4,5.4,10.3,8.7,9.6c5.6-1.2,0.4-13.3,0.4-13.3"/>
							<path class="st24" d="M277.7,122.3c0,0-2.7,0.6-2.3,4.8c0.2,2.6,2.6,10.7,5.8,10c4.1-1,2-9.7,2-9.7"/>
						</g>
					</g>
					<g>
						<g>
							<path class="st11" d="M352.7,342c5.9-6.2,10.8-7.2,14-7c2.4,0.2,3.8,1.1,3.8,1.1l-17.1,38.5l-2.7-1.8l-6.4-4.4l-2.9-3.5
								L352.7,342z"/>
							<path class="st25" d="M366.7,335c2.4,0.2,3.8,1.1,3.8,1.1l-17.1,38.5l-2.7-1.8L366.7,335z"/>
						</g>
						<g>
							<path class="st11" d="M208.6,371.9c-8.5,1.1-12.2,4.5-13.9,7.2c-1.3,2.1-1.3,3.8-1.3,3.8l41.2,8.9l0.1-3.2l0.3-7.7l-1.1-4.4
								L208.6,371.9z"/>
							<path class="st25" d="M194.7,379c-1.3,2.1-1.3,3.8-1.3,3.8l41.2,8.9l0.1-3.2L194.7,379z"/>
						</g>
						<g>
							<path class="st6" d="M353.1,340.9l-9.6,28l-78.1-41.1c-31.9,15-33.1,23-29.9,52.4l-28.4-8.4c-5.4-27.1-0.3-34.9,18.8-59.5
								c1-1.3,2-2.6,3.1-4l2.9-5l1.4-2.3l20.8,0.8l38,1.5l2.2,1.3L353.1,340.9z"/>
							<path class="st26" d="M294.4,304.6l-68.4,7.7c1-1.3,2-2.6,3.1-4l2.9-5l22.2-1.5l38,1.5L294.4,304.6z"/>
						</g>
					</g>
					<g>
						<path class="st27" d="M268.1,244.6c0,0,24,25.2,26,59.8l-65.2,3.6c0,0,8.9-23.7,0-52.7L268.1,244.6z"/>
						<path class="st28" d="M237,254.3c0,0,9.7,8.9,15.5,7.1c5.8-1.9,8.9-14.2,8.9-14.2L237,254.3z"/>
					</g>
					<g>
						<g>
							<path class="st20" d="M276.1,208.5c6.8-3,14.4-0.7,17,5.1c2.6,5.9-0.8,13.1-7.6,16.1c-6.8,3-14.4,0.7-17-5.1
								C265.9,218.7,269.3,211.5,276.1,208.5z"/>
							<path class="st28" d="M278.6,216c4.7-2.1,9.8-1.1,11.3,2.4c1.5,3.4-1,7.9-5.7,10.1c-4.7,2.1-9.8,1.1-11.3-2.4
								C271.3,222.6,273.9,218.1,278.6,216z"/>
						</g>
						<g>
							<path class="st20" d="M201,233.8c7.4-0.5,13.8,4.3,14.2,10.7c0.4,6.4-5.3,12-12.7,12.5c-7.4,0.5-13.8-4.3-14.2-10.7
								C187.9,239.8,193.6,234.3,201,233.8z"/>
							<path class="st28" d="M202.3,241.5c5.2-0.3,9.5,2.5,9.7,6.2s-3.8,7-8.9,7.4c-5.2,0.3-9.5-2.5-9.7-6.2
								S197.2,241.8,202.3,241.5z"/>
						</g>
						<g>
							<path class="st20" d="M278.9,211c-7.7-22-33.4-41.6-59.8-31.6c-21.9,8.3-28,37.7-20.3,59.6c7.7,22,30.9,20.7,52.6,15
								C273.6,248.2,286.6,233,278.9,211z"/>
							<path class="st28" d="M198.2,235.4c-1.2-12.9,1.1-26.1,7.1-38.2c9,0.7,18.2-1.5,25.8-6.3c-1.4-1.7-3.2-3.1-5.2-4.2
								c7.8-1.5,15.8-1.9,23.7-1.2c-0.2-1.2-0.8-2.3-1.5-2.6c8.3,1.8,16,6.1,21.9,12.1c-3.4-8.7-11.8-14.9-20.8-17.3
								c-9.1-2.4-18.7-1.3-27.7,1.3c-7,2-14,5.1-18.9,10.6c-4.3,4.8-6.6,11.2-7.5,17.6c-0.9,6.4-0.4,12.9,0.5,19.3"/>
						</g>
						<g>
							<g>
								<path class="st29" d="M241.4,192.8c0.2-2.7,2.2-5.1,4.7-6.2c2.5-1.1,5.4-1,7.9-0.1c2.5,0.9,4.7,2.5,6.5,4.6
									C254.4,188.1,246.5,189.3,241.4,192.8z"/>
								<path class="st29" d="M218.4,200.3c-3.2-2.4-7.7-2.7-11-0.8c-3.3,1.9-5.3,5.9-5,11.5C204.6,203.9,211.8,201.2,218.4,200.3z"
									/>
							</g>
							<g>
								<g>
									<g>
										<path class="st13" d="M268,206.3c-1.4-5.4-7.4-8.6-13.5-7s-9.9,7.2-8.5,12.6c1.4,5.4,6,8,13.5,5.4
											C265.6,215.2,269.4,211.8,268,206.3z"/>
										<path class="st14" d="M246.2,213c-0.8-3.7,0.3-7.8,3.3-10.7c3.6-3.4,9-4.1,13.3-1.7c2.4,1.4,4.2,3.4,5.1,5.8
											c-0.6-2.7-2.2-5.3-4.7-7c-4.5-3.2-10.9-2.5-14.7,1.5C245.4,204.3,244.7,209.1,246.2,213z"/>
									</g>
									<g>
										<circle class="st14" cx="255.2" cy="211.8" r="5.9"/>
										<circle class="st13" cx="257.7" cy="207.3" r="1.4"/>
									</g>
								</g>
								<g>
									<g>
										<path class="st13" d="M208,226.9c-2.5-5,0.1-11.4,5.7-14.1c5.6-2.8,12.2-1,14.7,4c2.5,5,1.2,9.1-6.6,12.1
											C215.6,231.2,210.4,231.9,208,226.9z"/>
										<path class="st14" d="M228.8,217.8c-1.8-3.3-5.3-5.7-9.5-5.9c-4.9-0.2-9.5,2.8-11.2,7.4c-1,2.6-0.9,5.3-0.1,7.7
											c-1.3-2.4-1.8-5.4-1-8.3c1.4-5.4,6.6-9,12.2-8.5C223.8,210.6,227.4,213.8,228.8,217.8z"/>
									</g>
									<g>
										<path class="st15" d="M217.9,222.8c-0.3-1.5,0.6-3,2.1-3.3s3,0.6,3.3,2.1"/>
										<circle class="st14" cx="220.6" cy="222.2" r="5.9"/>
										<circle class="st13" cx="223.4" cy="217.9" r="1.4"/>
									</g>
								</g>
							</g>
							<g>
								<path class="st30" d="M239,216.7c0.9,1.4,1.6,2.9,2,4.5c0.8-0.7,1.1-1.9,0.7-2.9C241.4,217.3,240.4,216.6,239,216.7z"/>
								<g>
									<path class="st31" d="M253.6,237.8c-3.5,4.4-9.9,6.6-15.5,5.1c-5.1-1.4-9.1-5.9-9.5-10.8c0-0.5,0-1,0-1.5
										c8.5-3.8,17-6.3,25.8-8.1c0.2,0,0.4-0.1,0.6-0.1C257.6,227.2,257.1,233.4,253.6,237.8z"/>
									<path class="st13" d="M254.4,222.5c0.3,3.4-3.3,5.5-8.1,7.1c-5.7,1.9-11.6,2.4-17.7,2.5c0-0.5,0-1,0-1.5
										C237.1,226.8,245.6,224.2,254.4,222.5z"/>
								</g>
							</g>
						</g>
						<g>
							<path class="st29" d="M262.9,188.2c-6.3-4.2-13.2-7.2-20.4-9.1c1.5,0.8,2.6,2.5,3.1,4.3c-8.6-0.8-17.4,0-25.8,2.1
								c1.5,1.6,3.3,3.3,5.1,5c-6.9,2.4-14.2,3.9-21.6,4.4c-8.3,12.9-6.1,32.1-3,47.4c-8.1-13.2-12.5-29.3-12.3-45.4
								c0-3,1-5.9,2.8-8.4c0.2-0.2,0.3-0.4,0.5-0.6c5.1-7.1,9.4-14.9,12.7-23.1l3.2,7.4c10.3-8.8,23.2-14.4,36.6-16
								c-1.3,2.9-2.7,5.9-4.3,9c9.7-3,20.2-3.5,30.2-1.4c-3.2,4-6.4,8-8.6,11.1c3.7,0.6,7.4,1.9,10.8,3.6c1.9,1,3.7,2.1,5.4,3.4
								c-2.2,1.6-4.5,3.1-6,4.1c4.1,9.1,7,18.7,8.7,28.5C275.2,205.2,269.5,196.3,262.9,188.2z"/>
							<path class="st32" d="M253.6,176.7c2.2-3.3,4.5-6.6,6.7-9.9c-10.1-1.2-20.6,0.2-30.2,4.2c1.5-2.4,3-4.9,4.6-7.3
								c-11.7,2.6-22.5,8.9-30.6,17.7c-0.4-2-0.8-4-1.1-6c-2.9,4.7-6.9,9.1-11.6,12.6c5.1-7.1,9.4-14.9,12.7-23.1l3.2,7.4
								c10.3-8.8,23.2-14.4,36.6-16c-1.3,2.9-2.7,5.8-4.3,9c9.7-3,20.2-3.5,30.2-1.4c-3.2,4-6.4,8-8.6,11.1
								c3.7,0.6,7.4,1.9,10.8,3.6C265.9,177,259.8,176.3,253.6,176.7z"/>
						</g>
					</g>
				</g>
			</g>
			<g>
				<g>
					<path class="st33" d="M154.3,98.8c1.8,5.5,8.5,8.4,14.9,9c6.4,0.6,12.8-0.4,19.2,0.1c6.4,0.6,13.2,3.3,15.2,8.7
						c-2.3-1.8-5.9-2.3-8.8-1.3c7.1,5.8,8.9,16.2,3.9,23.8c-0.7-5.5-6.7-9.2-12.7-10.7c-6-1.5-12.4-1.4-18.2-3.2
						c-9.7-2.9-17.1-10.9-18.4-20C150.9,103.2,152.6,101.2,154.3,98.8z"/>
					<path class="st33" d="M82.7,101.3c-4.9,3.5-11.3,4.1-17.4,4.4c-6.1,0.2-12.4,0.3-17.9,2.9c-5.5,2.6-9.8,8.8-8.1,14.7
						c0.3-2.3,2.5-4.2,4.9-4.3c-2.9,4.6-3.5,10.6-1.6,15.7c1.9,5.1,6.3,9.2,11.5,10.8c-2.3-5.3,0.5-11.8,4.9-15.6
						c4.4-3.9,10-5.9,15.2-8.7c5.2-2.7,10.3-6.6,11.5-12.3C84.3,106.3,82.9,103.9,82.7,101.3z"/>
					<g>
						<g>
							<path class="st3" d="M177.6,135.7c-0.6-5.5-0.4-11.1,0.5-16.5c0.2-1,0.5-2.2,1.5-2.5c1.3-0.4,2.3,1,2.9,2.2
								c1.3,3,2,6.2,2.1,9.4c3.6-3.5,8-6.2,12.7-8c1.3-0.5,3.1-0.8,3.9,0.4c0.7,1.1-0.1,2.5-0.9,3.6c-1.8,2.4-3.8,4.7-5.8,6.9
								c3.4-1.6,7.1-2.6,10.8-2.8c1.2-0.1,2.6,0.1,3.1,1.2c0.6,1.3-0.7,2.6-1.9,3.4c-2.6,1.8-5.4,3.3-8.4,4.6
								c1.6,0.8,3.4,0.6,5.1,0.3s3.6-0.6,5.2,0.1c1.6,0.7,2.8,2.7,1.8,4.2c-0.6,1-1.8,1.3-2.9,1.6c-2.9,0.7-5.9,1.4-8.8,2.2
								c1.5,0.9,3.4,0.6,5.1,0.7c1.7,0,3.8,0.8,4.1,2.5c0.2,1.2-0.7,2.3-1.7,2.9c-1,0.6-2.2,0.7-3.4,0.8c-3,0.3-15.9-0.4-15.9-0.4
								S178,139,177.6,135.7z"/>
							<polygon class="st3" points="170.8,170.7 187.6,151.3 178.8,135 162.3,150.9 							"/>
						</g>
						<g>
							<path class="st34" d="M122.4,134.6l10.5-11.4l3.3,1.6c6.4,3,16.9,13.5,16.9,13.5l6.9,7.2l12-8l14.5,23.1l-15.3,13.4
								c-7.4,6.5-17.6,7.1-25.7,1.4l-10.7-7.5L122.4,134.6z"/>
							<polygon class="st35" points="165.2,141.1 181.1,166.3 188.4,161.8 173.3,134.6 							"/>
						</g>
					</g>
					<g>
						<g>
							<path class="st3" d="M63.1,34.9c1.8-5.2,2.8-10.7,3.1-16.2c0.1-1,0-2.3-0.9-2.8c-1.1-0.7-2.5,0.4-3.3,1.5
								C60,20,58.6,23,57.9,26.1c-2.8-4.2-6.4-7.8-10.7-10.6c-1.2-0.8-2.9-1.4-3.9-0.4c-0.9,0.9-0.5,2.5,0.1,3.7
								c1.3,2.7,2.6,5.4,4.1,8c-2.9-2.4-6.3-4.1-9.9-5.1c-1.2-0.3-2.6-0.5-3.3,0.5c-0.8,1.1,0.1,2.7,1.1,3.8
								c2.2,2.3,4.6,4.4,7.2,6.3c-1.7,0.4-3.5-0.2-5.1-0.8c-1.6-0.6-3.3-1.3-5.1-1c-1.7,0.3-3.3,2.1-2.7,3.7
								c0.4,1.1,1.5,1.7,2.5,2.2c2.7,1.4,5.4,2.7,8.1,4c-1.6,0.6-3.4-0.1-5.1-0.5c-1.7-0.3-3.9,0-4.5,1.6c-0.4,1.1,0.1,2.4,1,3.2
								c0.9,0.8,2,1.2,3.2,1.6c2.8,0.9,15.6,3,15.6,3S62,38.1,63.1,34.9z"/>
							<polygon class="st3" points="62.2,70.6 49.9,48 62.1,34 74.7,53 							"/>
						</g>
						<polygon class="st34" points="111.6,125 70.5,40.3 49.5,61.6 90.2,145.6 						"/>
						<polygon class="st35" points="51.9,68.4 75.3,45.1 70.8,36.8 46.1,59.5 						"/>
					</g>
					<g>
						<g>
							<path class="st11" d="M48.5,177.7c-7.2-4.6-9.2-9.2-9.5-12.4c-0.3-2.4,0.4-4,0.4-4l41.1,9.5l-1.3,3l-3,7.1l-2.9,3.5
								L48.5,177.7z"/>
							<path class="st25" d="M39,165.2c-0.3-2.4,0.4-4,0.4-4l41.1,9.4l-1.3,3L39,165.2z"/>
						</g>
						<g>
							<path class="st3" d="M71.1,213.6c0,0-1.9,1.3-4.8,3c-1.1,0.6-2.3,1.3-3.7,2c-7,3.5-16.6,6.8-21.8,2.1
								c-12.3-11.3,7.8-42.9,7.8-42.9s5.4,0.8,13.8,2.8l6.9,24.5L71.1,213.6z"/>
							<path class="st8" d="M46.2,190.7c7,11.9,13.1,22.2,16.4,27.8c1.3-0.7,2.6-1.3,3.7-2l3.1-11.6l-4.6-23.6
								C56.7,185.3,53.5,186.6,46.2,190.7z"/>
						</g>
					</g>
					<g>
						<g>
							<path class="st11" d="M69.3,294.5c-0.3,8.5-3.3,12.6-5.9,14.5c-2,1.5-3.6,1.7-3.6,1.7l-12.7-40.2l3.2-0.4l7.7-1l4.5,0.7
								L69.3,294.5z"/>
							<path class="st25" d="M63.5,309.1c-2,1.5-3.6,1.7-3.6,1.7l-12.7-40.2l3.2-0.4L63.5,309.1z"/>
						</g>
						<g>
							<g>
								<polygon class="st3" points="122.1,223.3 119.7,226.5 110.3,239.2 110,239.5 69.4,294.1 57.5,269.6 78.8,232.2 79.8,230.5 
									85,221.4 89,214.4 90.9,210.9 110.9,218.8 								"/>
							</g>
							<polygon class="st8" points="119.7,226.5 110.3,239.2 78.8,232.2 79.8,230.5 85,221.4 							"/>
						</g>
					</g>
					<g>
						<path class="st34" d="M99.7,118.6l-19.8,48.9l59.6,18.6c0,0,3.9-26.5-0.7-52.8c-1.1-6.5-6.5-11.5-13.1-12.2L99.7,118.6z"/>
						<g>
							<path class="st3" d="M131.3,118c0,0-0.1,4.4-1.7,8.6c-1.6,4-4.5,7.7-10.2,7.1c-4.9-0.5-8.3-3.5-10.7-6.8
								c-3-4.2-4.2-8.7-4.2-8.7L131.3,118z"/>
							<path class="st8" d="M131.3,118c0,0-0.1,4.4-1.7,8.6c-8.7,2.2-16,1.5-20.9,0.4c-3-4.2-4.2-8.7-4.2-8.7L131.3,118z"/>
						</g>
						<g>
							<g>
								<path class="st36" d="M79.8,166.8l59.3,23.1l2.5-24.8c0,0-0.7-8.8-2.1-12.4l-39-8.9l-17.7,13.5L79.8,166.8z"/>
								<path class="st36" d="M91.1,164l-9.2,0.9l-27,18.3c0,0,2.9,22.3,18.4,31.8l14.4-5.2l-6.1,11.2c0,0,22.5,15.8,36.7,12.2
									l14-22c3.8-6,6.1-12.8,6.7-19.9l0.2-2.6L91.1,164z"/>
							</g>
							<g>
								<polygon class="st37" points="99.8,145.1 104.4,150.4 109.5,146.6 106.5,114.8 96.8,112 								"/>
								<circle class="st27" cx="104.4" cy="144.8" r="2"/>
							</g>
							<g>
								<path class="st37" d="M108,153l23.2,4.3l-3.2,14.8l-5.2,2.1c-4.1,1.7-8.8,0.8-12.1-2.1l-5.3-4.8L108,153z"/>
								<g>
									<path class="st38" d="M80.4,168.2c0,0,23.7,13.2,56.8,24"/>
									<path class="st38" d="M108.3,181.5c0,0-9,19.6-18,26.5"/>
									<path class="st38" d="M112.8,183.7c0,0-5.5,18.7-14.4,15.9"/>
									<path class="st38" d="M130.9,190.4c0,0-2.6,10.4,3.2,13.6"/>
									<path class="st38" d="M88.2,172c0,0-10.2,9.3-19.1,3.2"/>
								</g>
							</g>
							<g>
								<polygon class="st37" points="130.9,151.6 134.9,156.3 139.2,154.6 140.6,126.1 132.9,123.2 								"/>
								<circle class="st27" cx="135.8" cy="151.3" r="2"/>
							</g>
							<polygon class="st39" points="81.9,218 120.3,232 116.9,240.8 77.8,226.6 							"/>
							<polygon class="st39" points="76.1,215 55.8,181.6 47.3,186.8 66.9,218.9 							"/>
						</g>
					</g>
					<g>
						<g>
							
								<ellipse transform="matrix(0.921 -0.3895 0.3895 0.921 -23.0505 69.6617)" class="st3" cx="160.3" cy="91.7" rx="13.2" ry="11.6"/>
							<path class="st8" d="M158,88.5c4.7-2,9.6-0.8,11.1,2.7c1.5,3.4-1.1,7.8-5.8,9.8c-4.7,2-9.6,0.8-11.1-2.7
								C150.8,94.9,153.4,90.5,158,88.5z"/>
						</g>
						<g>
							<path class="st3" d="M67,103.8c0.3-6.4,6.4-11.3,13.7-11c7.3,0.3,13,5.7,12.7,12.1c-0.3,6.4-6.4,11.3-13.7,11
								C72.4,115.6,66.7,110.1,67,103.8z"/>
							<path class="st8" d="M70.1,106.9c0.2-3.7,4.4-6.6,9.5-6.4c5.1,0.2,9.1,3.4,8.9,7.2c-0.2,3.7-4.4,6.6-9.5,6.4
								C73.9,113.8,69.9,110.6,70.1,106.9z"/>
						</g>
						<path class="st3" d="M160.9,86c-3.2-22.9-18.5-50.4-51-45.3c-24.8,4-35.7,34.1-32.5,57c3.2,22.9,24.8,28.5,47.8,24.8
							C147.8,118.9,164.2,108.9,160.9,86z"/>
						<path class="st8" d="M77.2,95.1c0.5-9.5,2.9-18.9,7.2-27.7c10.1-0.8,19.8-4.7,27.5-11.1c-0.3,1-0.6,1.9-0.5,3
							c7,0,13.9-2.2,20.3-6.2c3.5,4,9,6,14.2,5.2c-0.5-1.2-1-2.5-1.4-4c5.9,4.8,10.4,11.3,12.9,18.4c-1.3-9-3.1-18.8-9.8-25
							c-4.9-4.5-11.8-6.2-18.4-7.3c-7.3-1.3-14.9-2-22.2-1c-7.4,1-14.7,3.7-20.3,8.6c-5.2,4.6-8.6,11-10.2,17.7s-1.5,13.8-0.3,20.6"
							/>
						<g>
							<path class="st16" d="M121,84.2c0.6,1.5,1,3.2,1,4.8c0.9-0.5,1.4-1.6,1.3-2.7C123.1,85.3,122.3,84.4,121,84.2z"/>
							<g>
								<path class="st17" d="M130.2,106.9c-4,3.5-10.6,4.2-15.2,1.6c-4.3-2.4-6.4-7.6-5.1-12.2c0.4-0.3,0.7-0.5,1.1-0.7
									c7,0.4,14.2-0.4,20.9-2.4c0.3-0.1,0.7-0.2,1-0.3C135.3,97.4,134.2,103.4,130.2,106.9z"/>
								<path class="st13" d="M131.9,93.2c-0.2,1.3-0.9,2.5-1.9,3.4c-1.6,1.4-3.6,2-5.7,2.4c-2.7,0.5-5.5,0.8-8.3,0.3
									c-2.2-0.4-4.5-1.3-6.3-2.9c0.2-0.4,0.2-0.4,0.4-0.9C117.4,96.1,124.9,95.3,131.9,93.2z"/>
							</g>
							<g>
								<path class="st33" d="M130,62.3c1-2.6,3.6-4.3,6.3-4.7c2.7-0.3,5.5,0.6,7.7,2.2c2.2,1.6,3.9,3.9,5,6.4
									C143.9,61.5,135.8,60.3,130,62.3z"/>
								<path class="st33" d="M100.9,69.8c-3-2.7-7.6-3.5-11.4-2c-3.8,1.5-6.5,5.3-7.1,10.8C86.9,73.2,93.9,69.9,100.9,69.8z"/>
							</g>
							<g>
								<g>
									<path class="st14" d="M108.7,88.3c-5.7-7.1-17.4-4.7-17,5.7c-0.8-1.9-1-4.1-0.4-6.2c1.4-4.8,6.5-7.4,11.2-6
										C105.7,82.8,107.9,85.3,108.7,88.3z"/>
									<path class="st14" d="M91.9,87.8c-1.9,0.3-4-0.5-5.2-2c0.4,2,2.3,3.5,4.3,3.5C91.4,88.7,91.7,88.1,91.9,87.8z"/>
									<path class="st14" d="M91.2,90.6c-1.7,0.6-3.6,0.3-5-0.8c0.9,1.8,3.1,2.8,5,2.3C91.3,91.4,91.5,90.8,91.2,90.6z"/>
								</g>
								<g>
									<path class="st14" d="M130,83.7c1.6-9,13-12.5,17.6-3.1c-0.2-2.1-1.1-4.1-2.7-5.6c-3.5-3.5-9.2-3.4-12.7,0.1
										C130,77.4,129.2,80.7,130,83.7z"/>
									<path class="st14" d="M144.4,75.2c1.8-0.6,3.3-2.3,3.6-4.2c0.6,1.9-0.4,4.2-2.1,5.2C145.3,75.8,144.8,75.4,144.4,75.2z"/>
									<path class="st14" d="M146.4,77.4c1.8-0.3,3.3-1.5,4-3.1c0.1,2-1.3,3.9-3.3,4.4C146.7,78.1,146.3,77.6,146.4,77.4z"/>
								</g>
							</g>
						</g>
						<g>
							<path class="st33" d="M139.9,47.9c0.2,3.3,2.7,6.5,4.1,9.2c-7.6-1.1-10.6-3.9-11.9-8.9c-2.9,4.3-11.9,7.6-16.9,6.9
								c2.2-2.3,5.9-7.1,6.5-9.6c-9.7,11-23.6,17-35.8,19.8c2.1-5.8,3.5-8.2,4.4-12.4c-9.6,8.4-13.8,35.1-11.1,51.9
								C66.2,80.5,69,58.9,79.5,44.9c11.9-15.9,33.9-22,54.2-10.7c16.1-5.7,28.1,13.9,29.9,34.2c0.6,7.1,0,14.4-2.1,20.6
								C159.1,74.7,150.5,55.1,139.9,47.9z"/>
							<path class="st40" d="M163.6,68.4c-1.8-6.7-4.1-13.2-8.2-18.8c-5.6-7.6-15.6-12.9-24.6-10.2c-10.2-5.4-23.2-6.8-35-3.3
								c-5.9,1.8-11.5,4.8-16.3,8.7c11.9-15.9,33.9-22,54.2-10.7C149.8,28.5,161.8,48,163.6,68.4z"/>
						</g>
					</g>
				</g>
				<ellipse class="st1" cx="83" cy="343.2" rx="54" ry="8"/>
			</g>
		</g>
	</g>
</g>
</svg>
