<?xml version="1.0" encoding="utf-8"?>
<!-- Generator: Adobe Illustrator 26.2.1, SVG Export Plug-In . SVG Version: 6.00 Build 0)  -->
<svg version="1.1" xmlns="http://www.w3.org/2000/svg" xmlns:xlink="http://www.w3.org/1999/xlink" x="0px" y="0px"
	 viewBox="0 0 600 600" style="enable-background:new 0 0 600 600;" xml:space="preserve">
<style type="text/css">
	.st0{fill:#1C1F2A;}
	.st1{fill:#5BBCBC;}
	.st2{fill:none;stroke:#5BBCBC;stroke-width:1.2776;stroke-miterlimit:10;}
	.st3{fill:#6AC2C2;}
	.st4{opacity:0.8;fill:#725E4A;}
	.st5{opacity:0.6;fill:#725E4A;}
	.st6{fill:#FFFFFF;}
	.st7{fill:#FFEEE4;}
	.st8{fill:url(#SVGID_1_);}
	.st9{opacity:0.6;}
	.st10{fill:#ECFFA5;}
	.st11{fill:url(#SVGID_00000052101081877447077660000017039099728145932976_);}
	.st12{fill:#BA8F24;}
	.st13{fill:#EBBF3C;}
	.st14{fill:url(#SVGID_00000043428080184102094530000010317892095941113511_);}
	.st15{opacity:0.2;}
	.st16{fill:#4C332B;}
	.st17{opacity:0.4;}
	.st18{fill:url(#SVGID_00000001623138309331112540000003506097260774525327_);}
	.st19{fill:url(#SVGID_00000040546622038520441560000008752966521461998009_);}
	.st20{fill:url(#SVGID_00000103959086262686563450000001939852639533645495_);}
	.st21{opacity:0.4;fill:#F2FFC4;}
	.st22{fill:url(#SVGID_00000000942604777541400000000001998463014146780348_);}
	.st23{fill:url(#SVGID_00000002386884114124836680000017915067568121669297_);}
	.st24{fill:url(#SVGID_00000170980932794125277310000006981031576118862214_);}
	.st25{fill:url(#SVGID_00000021798280864997626280000003100579051493567417_);}
	.st26{fill:url(#SVGID_00000081606812080778266550000013165581135170837889_);}
	.st27{fill:url(#SVGID_00000106826960315958990810000001429876451801940637_);}
	.st28{fill:#B7CE55;}
	.st29{opacity:0.7;}
	.st30{opacity:0.4;fill:#FFE7B3;}
	.st31{opacity:0.6;fill:url(#SVGID_00000098941093922977851670000012046077861530847405_);}
	.st32{fill:url(#SVGID_00000172422414614983766090000012533278050954691755_);}
	.st33{fill:#F9E9C5;}
	.st34{fill:url(#SVGID_00000146476552620174259640000014861886019385167746_);}
	.st35{fill:url(#SVGID_00000090263286476493335450000010432355468448036225_);}
	.st36{opacity:0.5;fill:url(#SVGID_00000146490508122650340810000000651705230025794727_);}
	.st37{fill:url(#SVGID_00000103228935498736333550000015926175980009693881_);}
	.st38{fill:#DBC6CE;}
	.st39{fill:#A38791;}
	.st40{fill:url(#SVGID_00000058573175886392375470000005970622563098446527_);}
	.st41{fill:#E2D3D9;}
	.st42{fill:#9B8587;}
	.st43{fill:#674F43;}
	.st44{fill:#FF6224;}
	.st45{fill:#27B2FF;}
	.st46{fill:#F2FFC4;}
	.st47{fill:#E5DCE0;}
	.st48{fill:#F25136;}
	.st49{fill:#BC3F35;}
	.st50{fill:#A5231C;}
	.st51{fill:#EFC462;}
	.st52{fill:#4F3D18;}
	.st53{fill:#82632E;}
	.st54{opacity:0.3;fill:#725E4A;}
	.st55{opacity:0.3;fill:#F2FFC4;}
	.st56{fill:#A06FAA;}
	.st57{fill:#725E4A;}
	.st58{fill:url(#SVGID_00000044140809796377151940000017103343692957543348_);}
	.st59{fill:#C6A5CE;}
	.st60{fill:#FFEC9C;}
	.st61{fill:#FFFAE3;}
	.st62{fill:#E56829;}
	.st63{fill:#684622;}
	.st64{fill:url(#SVGID_00000016786233127570594870000009242671832804339120_);}
	.st65{opacity:0.7;fill:#FFE28F;}
	.st66{fill:url(#SVGID_00000085956087801246645070000012868994837143196821_);}
	.st67{fill:url(#SVGID_00000075130178469994842510000011282989046197895301_);}
	.st68{opacity:0.7;fill:#A86916;}
	.st69{fill:#F2DFEC;}
	.st70{fill:#BCA6B6;}
	.st71{fill:#DFCDD9;}
	.st72{fill:#E0FCFB;}
	.st73{fill:#FFFAF8;}
	.st74{fill:#A597A2;}
	.st75{fill:#B47123;}
	.st76{opacity:0.7;fill:#E8B525;}
	.st77{fill:#FFE28F;}
	.st78{fill:#8C7064;}
	.st79{fill:#CDEA86;}
	.st80{fill:#99E1FF;}
	.st81{fill:#4B4C48;}
	.st82{fill:#F4E4EF;}
	.st83{fill:#515A6D;}
	.st84{fill:url(#SVGID_00000146477222103710832850000006089748828255109524_);}
	.st85{fill:url(#SVGID_00000066496161095260753860000014894209316499396225_);}
	.st86{opacity:0.5;fill:#F4E4EF;}
	.st87{fill:url(#SVGID_00000016037530522574288920000017875951955079952808_);}
	.st88{opacity:0.4;fill:#FFFFFF;}
</style>
<g id="layer3">
	<rect class="st0" width="600" height="600"/>
</g>
<g id="layer2">
	<path class="st1" d="M370.5,120.7l-1.2-3.5c-1.2-3.3-2.8-6.7-4.3-9.9c-3.3-7.1-6.8-14.4-6.8-22.4c0-11.5,9.2-17.9,15.5-17.9
		c7,0,12.4,8.3,12.4,15.4c0,8.3-6.3,16.9-10.8,23.2c-2.7,3.7-5,6.8-5,8.5c0,0.5,0,1.1,0.1,1.6c0,0.5,0.1,1,0.1,1.5V120.7z
		 M373.7,68.2c-5.8,0-14.2,5.9-14.2,16.6c0,7.8,3.4,15,6.6,21.9c1,2.1,2,4.3,3,6.6c0.4-2,2.4-4.8,5.1-8.6
		c4.5-6.2,10.6-14.6,10.6-22.4C384.8,75.7,380,68.2,373.7,68.2z"/>
	<path class="st1" d="M369.9,89.6c-3,0-5-1.5-5.3-3.9c-0.2-0.5-0.5-1-0.7-1.5c-0.6-1.2-1.2-2.3-1.2-3.6c0-3,3-7.1,8.7-7.1
		c4.5,0,6.1,4.2,6.1,7.9C377.5,85.3,375.1,89.6,369.9,89.6z M371.4,74.7c-5.3,0-7.4,3.8-7.4,5.8c0,1,0.5,2,1,3
		c0.3,0.5,0.5,1.1,0.8,1.7l0,0.2c0.3,2.7,3.2,2.9,4.1,2.9c4.4,0,6.3-3.5,6.3-7C376.2,80.2,376,74.7,371.4,74.7z"/>
</g>
<g id="layer">
	<polygon class="st1" points="84.1,302.7 83.1,296.8 87.8,298.1 85.2,302.9 90.7,303.2 89.6,306.6 85.3,304.3 85.7,309.1 
		80.9,308.4 83.9,304.2 79.1,304.2 79.4,299.8 	"/>
	<polygon class="st1" points="492.5,283.4 491.5,277.6 496.2,278.9 493.6,283.6 499,283.9 498,287.4 493.6,285.1 494,289.8 
		489.2,289.2 492.2,285 487.4,284.9 487.7,280.5 	"/>
	<polygon class="st1" points="371.1,138 365.2,130.5 372.8,128.6 372.8,137.4 380.8,133.5 382.1,139.3 374.1,139.4 378.4,145.8 
		371.1,148.7 372,140.4 365.2,144.1 362.1,137.7 	"/>
	<path class="st2" d="M264.1,129.8c0,1.4,1.1,2.6,2.6,2.6c1.4,0,2.6-1.1,2.6-2.6c0-1.4-1.1-2.6-2.6-2.6
		C265.3,127.2,264.1,128.3,264.1,129.8z"/>
	<path class="st2" d="M294,125.7c0,1.4,1.1,2.6,2.6,2.6c1.4,0,2.6-1.1,2.6-2.6c0-1.4-1.1-2.6-2.6-2.6
		C295.2,123.2,294,124.3,294,125.7z"/>
	<g>
		<path class="st2" d="M307,118.4l-12.8-1.6l-8.6-11.2l-21.7-2.2l-7.7,25.9l7.4-1c0.6-1.1,1.7-1.9,3.1-1.9c1,0,1.9,0.5,2.6,1.2
			l24-3.1c0.5-1.4,1.8-2.4,3.4-2.4c1.2,0,2.3,0.6,3,1.5l6.2-0.8L307,118.4z"/>
	</g>
	<g>
		<g>
			<polygon class="st3" points="193.8,197.5 191.9,196.3 188.4,201.5 190.2,202.8 			"/>
			<path class="st3" d="M198.4,189.1l-2-1c0,0-0.2,0.4-0.4,0.9c-0.2,0.5-0.6,1.2-1,1.9c-0.8,1.4-1.5,2.7-1.5,2.7l2,1.1
				c0,0,0.8-1.4,1.6-2.8c0.4-0.7,0.8-1.4,1-2C198.2,189.5,198.4,189.1,198.4,189.1z"/>
			<path class="st3" d="M202.1,180.2l-2.1-0.8c0,0-0.5,1.5-1.1,2.9c-0.2,0.7-0.6,1.5-0.8,2c-0.2,0.5-0.4,0.9-0.4,0.9l2.1,0.9
				c0,0,0.2-0.4,0.4-0.9c0.3-0.5,0.6-1.3,0.8-2C201.5,181.8,202.1,180.2,202.1,180.2z"/>
			<polygon class="st3" points="204.9,171.1 202.6,170.5 201,176.6 203.1,177.3 			"/>
			<path class="st3" d="M206.5,161.6l-2.3-0.3c0,0,0,0.4-0.1,1c-0.1,0.6-0.1,1.4-0.3,2.1c-0.3,1.5-0.6,3.1-0.6,3.1l2.2,0.4
				c0,0,0.3-1.6,0.6-3.2c0.2-0.8,0.2-1.6,0.3-2.2C206.4,162,206.5,161.6,206.5,161.6z"/>
			<path class="st3" d="M207.2,152.1l-2.3,0c0,0-0.1,1.6-0.1,3.1c0,0.8-0.1,1.6-0.1,2.2c-0.1,0.6-0.1,1-0.1,1l2.3,0.2
				c0,0,0-0.4,0.1-1c0-0.6,0.1-1.4,0.1-2.2C207.1,153.7,207.2,152.1,207.2,152.1z"/>
			<path class="st3" d="M206.8,142.5l-2.3,0.2c0,0,0.1,1.6,0.3,3.1c0,1.6,0.1,3.1,0.1,3.1l2.3,0c0,0,0-1.6-0.1-3.2
				C207,144.1,206.8,142.5,206.8,142.5z"/>
		</g>
		<g>
			<path class="st3" d="M205.4,133l-2.2,0.5c0,0,0.3,1.5,0.6,3.1c0.2,1.6,0.4,3.1,0.4,3.1l2.3-0.3c0,0-0.2-1.6-0.4-3.2
				C205.7,134.6,205.4,133,205.4,133z"/>
			<path class="st3" d="M203,123.8l-2.2,0.7c0,0,0.5,1.5,0.9,3c0.4,1.5,0.8,3,0.8,3l2.2-0.5c0,0-0.4-1.6-0.8-3.1
				C203.5,125.3,203,123.8,203,123.8z"/>
			<path class="st3" d="M199.5,114.8l-2.1,0.9c0,0,0.6,1.4,1.3,2.9c0.5,1.5,1.1,2.9,1.1,2.9l2.1-0.8c0,0-0.6-1.5-1.1-3
				C200.2,116.3,199.5,114.8,199.5,114.8z"/>
			<path class="st3" d="M195.1,106.3l-2,1.2c0,0,0.8,1.4,1.6,2.7c0.7,1.4,1.4,2.8,1.4,2.8l2-1c0,0-0.7-1.4-1.5-2.9
				C195.9,107.7,195.1,106.3,195.1,106.3z"/>
			<path class="st3" d="M189.8,98.4l-1.8,1.4c0,0,1,1.2,1.9,2.5c0.9,1.3,1.7,2.6,1.7,2.6l1.9-1.2c0,0-0.9-1.3-1.8-2.7
				C190.8,99.6,189.8,98.4,189.8,98.4z"/>
			<path class="st3" d="M183.6,91l-1.7,1.6c0,0,0.3,0.3,0.7,0.7c0.4,0.4,1,1,1.5,1.6c1,1.2,2,2.4,2,2.4l1.8-1.4c0,0-1-1.2-2.1-2.5
				c-0.5-0.6-1.1-1.2-1.5-1.6C183.9,91.3,183.6,91,183.6,91z"/>
			<path class="st3" d="M176.7,84.4l-1.5,1.7c0,0,0.3,0.3,0.8,0.6c0.2,0.2,0.5,0.4,0.8,0.6c0.3,0.3,0.6,0.5,0.8,0.8
				c1.1,1.1,2.3,2.2,2.3,2.2l1.6-1.6c0,0-1.2-1.1-2.3-2.2c-0.3-0.3-0.6-0.6-0.9-0.8c-0.3-0.2-0.6-0.5-0.8-0.7
				C177,84.7,176.7,84.4,176.7,84.4z"/>
		</g>
	</g>
	<g>
		<g>
			<path class="st3" d="M474.1,296.1l0.8,2.1c0,0,0.3-0.1,0.8-0.3c0.5-0.2,1.2-0.5,1.9-0.7c1.3-0.6,2.7-1.2,2.7-1.2l-1-2
				c0,0-1.2,0.6-2.5,1.1c-0.6,0.3-1.3,0.5-1.8,0.7C474.4,296,474.1,296.1,474.1,296.1z"/>
			<path class="st3" d="M466.1,298.4l0.5,2.2c0,0,1.4-0.3,2.8-0.7c1.4-0.4,2.8-0.8,2.8-0.8l-0.7-2.2c0,0-1.3,0.4-2.7,0.8
				C467.5,298.1,466.1,298.4,466.1,298.4z"/>
			<path class="st3" d="M457.9,300.2l0.4,2.2c0,0,1.4-0.3,2.8-0.6c1.4-0.3,2.8-0.6,2.8-0.6l-0.5-2.2c0,0-1.4,0.3-2.8,0.6
				C459.3,300,457.9,300.2,457.9,300.2z"/>
			<path class="st3" d="M449.6,301.7l0.3,2.2c0,0,1.4-0.2,2.8-0.5c1.4-0.2,2.8-0.5,2.8-0.5l-0.4-2.2c0,0-1.4,0.3-2.8,0.5
				C451,301.4,449.6,301.7,449.6,301.7z"/>
			<path class="st3" d="M441.3,302.8l0.3,2.3c0,0,1.4-0.2,2.8-0.4c1.4-0.2,2.8-0.4,2.8-0.4l-0.3-2.2c0,0-1.4,0.2-2.8,0.4
				C442.7,302.7,441.3,302.8,441.3,302.8z"/>
			<polygon class="st3" points="432.9,303.8 433.1,306.1 438.8,305.4 438.5,303.2 			"/>
			<polygon class="st3" points="424.5,304.7 424.7,306.9 430.4,306.4 430.1,304.1 			"/>
		</g>
		<g>
			<polygon class="st3" points="416.1,305.4 416.3,307.7 421.9,307.2 421.7,304.9 			"/>
			<polygon class="st3" points="407.7,306 407.8,308.3 413.5,307.9 413.3,305.6 			"/>
			<polygon class="st3" points="399.2,306.5 399.4,308.8 405,308.4 404.9,306.2 			"/>
			<polygon class="st3" points="390.8,307 390.9,309.2 396.6,308.9 396.5,306.7 			"/>
			<polygon class="st3" points="382.4,307.3 382.4,309.6 388.1,309.3 388,307.1 			"/>
			<path class="st3" d="M374,307.4l0,2.3c0,0,0.4,0,0.9,0c0.5,0,1.3,0,2,0c1.4,0,2.8-0.1,2.8-0.1l-0.1-2.3c0,0-1.4,0-2.8,0.1
				c-0.7,0-1.4,0-1.9,0C374.3,307.4,374,307.4,374,307.4z"/>
			<path class="st3" d="M365.6,307.1l-0.2,2.3c0,0,1.4,0.1,2.9,0.2c1.4,0.1,2.9,0.1,2.9,0.1l0.1-2.3c0,0-1.4-0.1-2.8-0.1
				C367,307.2,365.6,307.1,365.6,307.1z"/>
		</g>
		<g>
			<path class="st3" d="M357.3,306.2l-0.3,2.2c0,0,0.4,0.1,0.9,0.1c0.5,0.1,1.2,0.2,2,0.3c1.4,0.2,2.8,0.3,2.8,0.3l0.2-2.3
				c0,0-1.4-0.2-2.8-0.3c-0.7-0.1-1.4-0.2-1.9-0.2C357.6,306.2,357.3,306.2,357.3,306.2z"/>
			<path class="st3" d="M349.1,304.6l-0.5,2.2c0,0,1.4,0.3,2.8,0.6c1.4,0.3,2.8,0.5,2.8,0.5l0.4-2.2c0,0-1.4-0.3-2.8-0.5
				C350.4,304.9,349.1,304.6,349.1,304.6z"/>
			<path class="st3" d="M341.1,302.3l-0.8,2.1c0,0,0.3,0.1,0.9,0.3c0.5,0.2,1.2,0.4,1.9,0.6c0.7,0.2,1.4,0.4,1.9,0.6
				c0.5,0.1,0.9,0.2,0.9,0.2l0.6-2.2c0,0-0.3-0.1-0.8-0.2c-0.5-0.1-1.2-0.3-1.8-0.5c-0.7-0.2-1.3-0.4-1.8-0.6
				C341.4,302.4,341.1,302.3,341.1,302.3z"/>
			<path class="st3" d="M333.4,299l-1,2c0,0,0.3,0.2,0.8,0.4c0.5,0.2,1.1,0.6,1.8,0.8c0.7,0.3,1.3,0.6,1.8,0.8
				c0.5,0.2,0.8,0.3,0.8,0.3l0.8-2.1c0,0-0.3-0.1-0.8-0.3c-0.5-0.2-1.1-0.5-1.8-0.8c-0.6-0.3-1.3-0.6-1.7-0.8
				C333.7,299.2,333.4,299,333.4,299z"/>
			<path class="st3" d="M326.3,294.8l-1.3,1.9c0,0,0.3,0.2,0.7,0.5c0.4,0.3,1,0.7,1.7,1.1c0.6,0.4,1.2,0.8,1.7,1
				c0.5,0.3,0.8,0.4,0.8,0.4l1.1-2c0,0-0.3-0.2-0.8-0.4c-0.4-0.3-1-0.6-1.6-1c-0.6-0.4-1.2-0.7-1.6-1
				C326.6,295,326.3,294.8,326.3,294.8z"/>
			<path class="st3" d="M320,289.5l-1.6,1.6c0,0,0.3,0.3,0.7,0.6c0.4,0.4,0.9,0.9,1.5,1.4c0.5,0.5,1.1,0.9,1.5,1.3
				c0.4,0.4,0.7,0.6,0.7,0.6l1.4-1.8c0,0-0.3-0.2-0.7-0.5c-0.4-0.3-0.9-0.8-1.4-1.2c-0.5-0.4-1-1-1.4-1.3
				C320.2,289.7,320,289.5,320,289.5z"/>
			<path class="st3" d="M314.9,283.1l-1.9,1.2c0,0,0.2,0.3,0.5,0.8c0.3,0.5,0.7,1,1.2,1.6c0.4,0.6,0.9,1.1,1.2,1.6
				c0.3,0.4,0.6,0.7,0.6,0.7l1.7-1.5c0,0-0.2-0.3-0.5-0.7c-0.3-0.4-0.8-0.9-1.2-1.5c-0.4-0.6-0.8-1.1-1.1-1.5
				C315,283.4,314.9,283.1,314.9,283.1z"/>
		</g>
		<g>
			<path class="st3" d="M311.1,275.8l-2.1,0.8c0,0,0.1,0.3,0.3,0.8c0.2,0.5,0.5,1.2,0.8,1.8c0.3,0.7,0.6,1.3,0.9,1.8
				c0.3,0.5,0.4,0.8,0.4,0.8l2-1.1c0,0-0.2-0.3-0.4-0.8c-0.2-0.5-0.5-1.1-0.8-1.7c-0.3-0.6-0.5-1.3-0.8-1.7
				C311.2,276.1,311.1,275.8,311.1,275.8z"/>
			<path class="st3" d="M309,267.9l-2.2,0.4c0,0,0.1,0.4,0.2,0.9c0.1,0.5,0.2,1.3,0.4,2c0.3,1.4,0.8,2.8,0.8,2.8l2.2-0.7
				c0,0-0.4-1.3-0.7-2.7c-0.2-0.7-0.3-1.4-0.4-1.9C309.1,268.2,309,267.9,309,267.9z"/>
			<path class="st3" d="M308.6,259.7l-2.3-0.1c0,0,0,0.4,0,0.9c0,0.5,0,1.3,0,2c0,1.5,0.2,2.9,0.2,2.9l2.3-0.2c0,0-0.1-1.4-0.1-2.8
				c0-0.7,0-1.4,0-1.9C308.6,260,308.6,259.7,308.6,259.7z"/>
			<path class="st3" d="M309.5,251.5l-2.2-0.4c0,0-0.1,0.4-0.2,0.9c-0.1,0.5-0.2,1.2-0.3,2c-0.1,0.7-0.2,1.4-0.2,2
				c-0.1,0.5-0.1,0.9-0.1,0.9l2.3,0.2c0,0,0-0.3,0.1-0.9c0.1-0.5,0.1-1.2,0.2-1.9c0.1-0.7,0.2-1.4,0.3-1.9
				C309.5,251.8,309.5,251.5,309.5,251.5z"/>
			<path class="st3" d="M311.7,243.5l-2.2-0.7c0,0-0.1,0.3-0.3,0.9c-0.2,0.5-0.4,1.2-0.6,1.9c-0.4,1.4-0.7,2.8-0.7,2.8l2.2,0.5
				c0,0,0.3-1.4,0.7-2.7c0.2-0.7,0.4-1.3,0.6-1.8C311.6,243.8,311.7,243.5,311.7,243.5z"/>
			<path class="st3" d="M314.8,235.7l-2.1-0.9c0,0-0.6,1.3-1.2,2.6c-0.3,0.7-0.5,1.3-0.7,1.8c-0.2,0.5-0.3,0.8-0.3,0.8l2.1,0.8
				c0,0,0.1-0.3,0.3-0.8c0.2-0.5,0.4-1.1,0.7-1.8C314.2,237,314.8,235.7,314.8,235.7z"/>
			<path class="st3" d="M318.7,228l-2.2-0.7c0,0-0.6,1.2-1.3,2.4c-0.6,1.2-1.3,2.5-1.3,2.5l2,1c0,0,0.7-1.3,1.3-2.6
				C318,229.3,318.7,228,318.7,228z"/>
		</g>
		<g>
			<polygon class="st3" points="323,220.4 320.5,220.3 317.8,225 320.1,225.5 			"/>
			<path class="st3" d="M327.1,212.8l-2.6,0.4c0,0-0.6,1.2-1.3,2.4c-0.7,1.2-1.3,2.4-1.3,2.4l2.6-0.1c0,0,0.7-1.3,1.4-2.6
				C326.5,214.1,327.1,212.8,327.1,212.8z"/>
			<path class="st3" d="M329.5,204.6l-2.6,0.9c0,0,0,1.4-0.4,2.7c-0.4,1.3-0.9,2.6-0.9,2.6l2.6-0.6c0,0,0.5-1.3,0.9-2.7
				C329.5,206,329.5,204.6,329.5,204.6z"/>
			<path class="st3" d="M327.8,196.1l-2.4,1.4c0,0,0.1,0.3,0.3,0.8c0.1,0.5,0.4,1.1,0.6,1.8c0.4,1.3,0.5,2.7,0.5,2.7l2.6-1.1
				c0,0-0.2-1.4-0.6-2.8c-0.2-0.7-0.4-1.4-0.6-1.9C328,196.5,327.8,196.1,327.8,196.1z"/>
			<path class="st3" d="M323.3,188.8l-2.1,1.8c0,0,0.2,0.3,0.5,0.7c0.3,0.4,0.8,0.9,1.2,1.5c0.4,0.6,0.8,1.1,1,1.6
				c0.2,0.5,0.4,0.8,0.4,0.8l2.3-1.5c0,0-0.2-0.3-0.4-0.8c-0.3-0.5-0.7-1.1-1.1-1.7c-0.4-0.6-0.9-1.1-1.2-1.6
				C323.5,189.1,323.3,188.8,323.3,188.8z"/>
			<path class="st3" d="M316.4,183.6l-1.7,2.2c0,0,0.3,0.2,0.8,0.4c0.5,0.2,1,0.6,1.6,1c0.6,0.3,1.1,0.8,1.5,1.1
				c0.4,0.3,0.7,0.5,0.7,0.5l2-2c0,0-0.3-0.2-0.7-0.6c-0.4-0.4-1-0.8-1.6-1.2c-0.6-0.4-1.2-0.8-1.7-1.1
				C316.7,183.7,316.4,183.6,316.4,183.6z"/>
			<path class="st3" d="M308.2,180.9l-1.3,2.4c0,0,0.3,0,0.8,0.1c0.5,0,1.2,0.3,1.8,0.4c0.7,0.2,1.3,0.3,1.8,0.5
				c0.5,0.2,0.8,0.3,0.8,0.3l1.6-2.3c0,0-0.3-0.1-0.8-0.3c-0.5-0.2-1.2-0.4-1.9-0.6c-0.7-0.2-1.4-0.4-1.9-0.5
				C308.6,181,308.2,180.9,308.2,180.9z"/>
		</g>
		<g>
			<path class="st3" d="M299.6,180.6l-0.8,2.5c0,0,1.4-0.1,2.7-0.1c0.7-0.1,1.4,0,1.9,0c0.5,0,0.9,0,0.9,0l1.1-2.5
				c0,0-0.4,0-0.9-0.1c-0.5,0-1.3-0.1-2-0.1C301,180.5,299.6,180.6,299.6,180.6z"/>
			<path class="st3" d="M291.1,182.3l-0.2,2.5c0,0,0.3-0.1,0.8-0.3c0.5-0.2,1.2-0.3,1.8-0.5c0.7-0.2,1.3-0.3,1.8-0.4
				c0.5-0.1,0.8-0.1,0.8-0.1l0.6-2.5c0,0-0.4,0-0.9,0.1c-0.5,0.1-1.2,0.3-2,0.4c-0.7,0.2-1.4,0.3-1.9,0.5
				C291.4,182.2,291.1,182.3,291.1,182.3z"/>
			<path class="st3" d="M282.9,185.5l0.4,2.4c0,0,1.2-0.6,2.5-1.2c1.3-0.5,2.5-1,2.5-1l0-2.5c0,0-1.4,0.5-2.7,1.1
				C284.3,184.9,282.9,185.5,282.9,185.5z"/>
			<path class="st3" d="M275.3,189.7l0.9,2.1c0,0,0.3-0.2,0.7-0.4c0.4-0.3,1-0.6,1.6-0.9c1.2-0.7,2.4-1.3,2.4-1.3l-0.5-2.3
				c0,0-1.3,0.7-2.6,1.4c-0.6,0.4-1.3,0.7-1.8,1C275.6,189.5,275.3,189.7,275.3,189.7z"/>
			<path class="st3" d="M268,194.5l1.3,1.9c0,0,1.2-0.8,2.3-1.6c1.1-0.8,2.3-1.5,2.3-1.5l-1.1-2c0,0-1.2,0.8-2.5,1.6
				C269.2,193.7,268,194.5,268,194.5z"/>
			<polygon class="st3" points="261,199.3 262.3,201.1 267,197.9 265.7,196 			"/>
			<path class="st3" d="M254,203.9l1.2,1.9c0,0,0.3-0.2,0.8-0.5c0.4-0.3,1-0.7,1.6-1.1c1.2-0.8,2.4-1.6,2.4-1.6l-1.3-1.9
				c0,0-1.2,0.8-2.3,1.6c-0.6,0.4-1.2,0.8-1.6,1.1C254.3,203.8,254,203.9,254,203.9z"/>
		</g>
	</g>
	<g>
		<g>
			<polygon class="st3" points="355.5,141.4 355.8,143.6 362,142.6 361.7,140.3 			"/>
			<polygon class="st3" points="346.2,143.1 346.7,145.3 352.8,144.2 352.4,141.9 			"/>
			<polygon class="st3" points="337,145 337.5,147.2 343.7,145.9 343.2,143.7 			"/>
			<polygon class="st3" points="327.9,147.2 328.4,149.4 334.5,147.9 334,145.7 			"/>
			<path class="st3" d="M318.8,149.6l0.6,2.2c0,0,1.5-0.4,3-0.8c1.5-0.4,3-0.8,3-0.8l-0.6-2.2c0,0-1.5,0.4-3,0.8
				C320.3,149.2,318.8,149.6,318.8,149.6z"/>
			<path class="st3" d="M309.8,152.4l0.7,2.2c0,0,1.5-0.5,3-0.9c1.5-0.4,3-0.9,3-0.9l-0.6-2.2c0,0-1.5,0.4-3,0.9
				C311.3,151.9,309.8,152.4,309.8,152.4z"/>
			<path class="st3" d="M300.9,155.3l0.8,2.1c0,0,1.5-0.5,3-1c1.5-0.5,3-1,3-1l-0.7-2.2c0,0-1.5,0.5-3,1
				C302.4,154.8,300.9,155.3,300.9,155.3z"/>
		</g>
		<g>
			<polygon class="st3" points="292.1,158.6 292.9,160.7 298.7,158.5 298,156.4 			"/>
			<path class="st3" d="M283.4,162.2l0.9,2.1c0,0,0.4-0.2,0.9-0.4c0.5-0.2,1.3-0.5,2-0.8c1.5-0.6,2.9-1.2,2.9-1.2l-0.9-2.1
				c0,0-1.5,0.6-2.9,1.2c-0.7,0.3-1.5,0.6-2,0.8C283.7,162,283.4,162.2,283.4,162.2z"/>
			<path class="st3" d="M274.8,166.1l1,2c0,0,1.4-0.7,2.8-1.3c1.4-0.7,2.9-1.3,2.9-1.3l-0.9-2.1c0,0-1.5,0.6-2.9,1.3
				C276.2,165.4,274.8,166.1,274.8,166.1z"/>
			<path class="st3" d="M266.4,170.3l1.1,2c0,0,0.3-0.2,0.9-0.5c0.5-0.3,1.2-0.6,1.9-1c1.4-0.7,2.8-1.4,2.8-1.4l-1-2
				c0,0-1.4,0.7-2.8,1.4c-0.7,0.4-1.4,0.7-1.9,1C266.7,170.1,266.4,170.3,266.4,170.3z"/>
			<path class="st3" d="M258.1,174.8l1.1,2c0,0,1.4-0.8,2.7-1.6c0.7-0.4,1.4-0.8,1.9-1c0.5-0.3,0.9-0.5,0.9-0.5l-1.1-2
				c0,0-0.3,0.2-0.9,0.5c-0.5,0.3-1.2,0.6-1.9,1C259.5,174,258.1,174.8,258.1,174.8z"/>
			<path class="st3" d="M250.1,179.7l1.2,1.9c0,0,0.3-0.2,0.8-0.5c0.5-0.3,1.2-0.7,1.8-1.1c1.3-0.8,2.7-1.6,2.7-1.6l-1.2-2
				c0,0-1.4,0.8-2.7,1.6c-0.7,0.4-1.3,0.8-1.9,1.1C250.4,179.5,250.1,179.7,250.1,179.7z"/>
			<path class="st3" d="M242.2,184.9l1.3,1.9c0,0,1.3-0.9,2.6-1.8c1.3-0.9,2.6-1.7,2.6-1.7l-1.2-1.9c0,0-1.3,0.8-2.6,1.7
				C243.5,184,242.2,184.9,242.2,184.9z"/>
		</g>
		<g>
			<path class="st3" d="M234.6,190.4l1.4,1.8c0,0,1.2-1,2.5-1.9c1.3-0.9,2.5-1.8,2.5-1.8l-1.3-1.8c0,0-1.3,0.9-2.6,1.8
				C235.8,189.4,234.6,190.4,234.6,190.4z"/>
			<path class="st3" d="M227.2,196.2l1.4,1.8c0,0,0.3-0.2,0.8-0.6c0.5-0.4,1.1-0.9,1.7-1.3c1.2-1,2.5-1.9,2.5-1.9l-1.4-1.8
				c0,0-1.2,1-2.5,2c-0.6,0.5-1.2,1-1.7,1.4C227.5,196,227.2,196.2,227.2,196.2z"/>
			<path class="st3" d="M220,202.3l1.5,1.7c0,0,1.2-1,2.4-2.1c1.2-1,2.4-2,2.4-2l-1.5-1.7c0,0-1.2,1-2.4,2.1
				C221.2,201.3,220,202.3,220,202.3z"/>
			<path class="st3" d="M213.1,208.7l1.6,1.6c0,0,1.1-1.1,2.3-2.2c1.2-1.1,2.3-2.1,2.3-2.1l-1.5-1.7c0,0-1.2,1.1-2.3,2.1
				C214.3,207.6,213.1,208.7,213.1,208.7z"/>
			<path class="st3" d="M206.4,215.3l1.6,1.6c0,0,1.1-1.1,2.2-2.2c1.1-1.1,2.2-2.2,2.2-2.2l-1.6-1.6c0,0-1.1,1.1-2.2,2.2
				C207.5,214.2,206.4,215.3,206.4,215.3z"/>
			<path class="st3" d="M200,222.1l1.7,1.5c0,0,1.1-1.1,2.1-2.3c1.1-1.1,2.2-2.3,2.2-2.3l-1.6-1.6c0,0-1.1,1.1-2.2,2.3
				C201,221,200,222.1,200,222.1z"/>
			<path class="st3" d="M193.7,229.1l1.7,1.5l4.2-4.7l-1.7-1.5c0,0-1.1,1.2-2.1,2.4C194.7,228,193.7,229.1,193.7,229.1z"/>
		</g>
		<g>
			<polygon class="st3" points="187.6,236.3 189.3,237.7 193.4,232.9 191.7,231.5 			"/>
			<polygon class="st3" points="181.6,243.5 183.4,244.9 187.4,240.1 185.6,238.6 			"/>
			
				<rect x="175.4" y="247.9" transform="matrix(0.6303 -0.7764 0.7764 0.6303 -127.3276 230.7051)" class="st3" width="6.3" height="2.3"/>
			<polygon class="st3" points="169.8,258 171.5,259.5 175.5,254.6 173.8,253.2 			"/>
			<polygon class="st3" points="163.8,265.2 165.5,266.7 169.6,261.8 167.8,260.4 			"/>
			<path class="st3" d="M157.6,272.2l1.7,1.5c0,0,1.1-1.2,2.1-2.3c1-1.2,2.1-2.4,2.1-2.4l-1.7-1.5c0,0-1,1.2-2.1,2.4
				C158.7,271,157.6,272.2,157.6,272.2z"/>
			<path class="st3" d="M151.2,278.9l1.6,1.6c0,0,1.1-1.1,2.2-2.3c1.1-1.1,2.2-2.3,2.2-2.3l-1.7-1.6c0,0-1.1,1.1-2.2,2.3
				C152.3,277.8,151.2,278.9,151.2,278.9z"/>
		</g>
		<g>
			<path class="st3" d="M144.4,285.2l1.5,1.7c0,0,1.2-1,2.4-2.1c0.6-0.5,1.2-1.1,1.6-1.5c0.4-0.4,0.7-0.7,0.7-0.7L149,281
				c0,0-0.3,0.3-0.7,0.7c-0.4,0.4-1,0.9-1.6,1.4C145.6,284.2,144.4,285.2,144.4,285.2z"/>
			<path class="st3" d="M137.1,291l1.3,1.8c0,0,1.3-0.9,2.6-1.9c1.3-1,2.5-2,2.5-2l-1.4-1.8c0,0-1.2,1-2.4,1.9
				C138.4,290,137.1,291,137.1,291z"/>
			<path class="st3" d="M129.3,295.9l1.1,2c0,0,0.3-0.2,0.9-0.5c0.5-0.3,1.2-0.7,1.9-1.1c0.7-0.4,1.4-0.8,1.9-1.2
				c0.5-0.3,0.8-0.5,0.8-0.5l-1.3-1.9c0,0-0.3,0.2-0.8,0.5c-0.5,0.3-1.2,0.7-1.8,1.1c-0.7,0.4-1.3,0.8-1.8,1.1
				C129.6,295.7,129.3,295.9,129.3,295.9z"/>
			<path class="st3" d="M121,299.9l0.9,2.1c0,0,0.4-0.1,0.9-0.4c0.5-0.2,1.3-0.6,2-0.9c0.7-0.3,1.5-0.7,2-0.9
				c0.5-0.3,0.9-0.4,0.9-0.4l-1-2c0,0-0.3,0.2-0.9,0.4c-0.5,0.3-1.2,0.6-1.9,0.9c-0.7,0.3-1.4,0.6-1.9,0.9
				C121.4,299.7,121,299.9,121,299.9z"/>
			<path class="st3" d="M112.3,302.8l0.6,2.2c0,0,0.4-0.1,1-0.3c0.6-0.2,1.4-0.3,2.1-0.6c1.5-0.5,3-1,3-1l-0.8-2.1
				c0,0-1.5,0.5-2.9,1c-0.7,0.3-1.5,0.4-2,0.6C112.6,302.7,112.3,302.8,112.3,302.8z"/>
			<path class="st3" d="M103.2,304.6l0.3,2.2c0,0,0.4,0,1-0.1c0.6-0.1,1.4-0.2,2.2-0.4c0.8-0.1,1.6-0.3,2.2-0.4c0.6-0.1,1-0.2,1-0.2
				l-0.5-2.2c0,0-0.4,0.1-0.9,0.2c-0.6,0.1-1.3,0.3-2.1,0.4c-0.8,0.1-1.5,0.3-2.1,0.4C103.6,304.5,103.2,304.6,103.2,304.6z"/>
			<path class="st3" d="M94,305.3l0.1,2.3c0,0,0.4,0,1,0c0.6,0,1.4-0.1,2.2-0.1c0.8-0.1,1.6-0.1,2.2-0.1c0.6,0,1-0.1,1-0.1l-0.2-2.3
				c0,0-0.4,0.1-1,0.1c-0.6,0-1.4,0.1-2.1,0.1c-0.8,0-1.5,0.1-2.1,0.1C94.4,305.3,94,305.3,94,305.3z"/>
		</g>
	</g>
	<path class="st1" d="M160.3,152.2c-0.1-0.2-0.3-0.4-0.5-0.5l-0.6-0.2c-0.8-0.3-1.7-0.1-2.2,0.4l-7.3,7.6l-17.3-4.6l10.1-29.1
		c0.3-0.8-0.2-1.6-1.1-1.9l-1.8-0.7c-0.6-0.3-1.4-0.4-2.1-0.4c-1.5,0-2.9,0.6-3.7,1.5l-22.3,25.1l-18-4.7c-1.3-0.3-2.7-0.3-4,0
		l-4.2,1.1c-1.3,0.3-2.3,1.4-2.6,2.6c-0.3,1.3,0.1,2.6,1.1,3.5l2.4,2.2c1.1,1,2.4,1.6,3.8,1.9l19.4,3.7l3.8,33.2
		c0.2,2.1,2.1,3.6,4.3,3.6l1.9,0h0c0.9,0,1.8-0.6,2-1.5l9-31.4l17,3.2l5.7,10.1c0.3,0.6,1.1,1,1.9,1c0.1,0,0.1,0,0.2,0l0.6,0
		c0.3,0,0.5-0.1,0.6-0.3c0.1-0.1,0.2-0.3,0.2-0.5l-0.9-8.7c0,0,0.1,0,0.1,0c0.8,0,1.6-0.3,2.3-0.8c0.8-0.6,1.3-1.6,1.4-2.7l0-0.2
		c0.1-1.6-0.9-3-2.4-3.4l3.3-8.7C160.4,152.6,160.4,152.4,160.3,152.2z M134.3,124.7c0.7-0.8,1.9-1.3,3.2-1.3c0.6,0,1.3,0.1,1.8,0.3
		l1.8,0.7c0.6,0.2,0.8,0.7,0.7,1.1l-10.1,29.2l-19.5-5.1L134.3,124.7z M129.7,163.8l-8.9,31.2c-0.1,0.6-0.7,0.9-1.3,0.9v0.3l0-0.3
		l-1.9,0c-1.9,0-3.4-1.3-3.6-3l-3.8-33l15.8,3L129.7,163.8z M155.7,177.1l-0.6,0c0,0-0.1,0-0.1,0c-0.5,0-1-0.2-1.1-0.6l-5-8.9
		l5.9,0.6l0,0L155.7,177.1C155.7,177.1,155.7,177.1,155.7,177.1z M158.7,164.8l0,0.2c0,0.8-0.5,1.6-1.1,2.1c-0.6,0.4-1.3,0.6-2,0.6
		l0-0.1l-1.5-0.2l-63.8-12.1c-1.3-0.2-2.5-0.8-3.4-1.7l-2.4-2.2c-0.8-0.7-1.1-1.8-0.9-2.8c0.2-1,1-1.8,2.1-2.1l4.2-1.1
		c0.6-0.2,1.2-0.2,1.8-0.2c0.6,0,1.2,0.1,1.8,0.2l55.7,14.7l0,0l5.4,1.4l0.6,0.1l1.8,0.5C158,162.5,158.8,163.6,158.7,164.8z
		 M156.2,161.1l-1.6-0.3l-4-1.1l7-7.2c0.3-0.3,0.9-0.4,1.3-0.2l0.6,0.2L156.2,161.1z"/>
	<g>
		<polygon class="st4" points="417.3,438.7 483.3,383.2 312.6,354.7 247.1,383.2 179.8,404.1 310.5,437.3 334.1,454.6 342.3,466.9 
			408.2,447.3 		"/>
		<path class="st5" d="M259.4,378.2c0-12.6-44.8-31.2-99.6-31.2c-54.9,0-99.1,18.7-99.1,31.2C90.2,425.4,221.7,424.4,259.4,378.2z"
			/>
		<path class="st5" d="M258,381.5c0-5.4-19-13.5-42.4-13.5c-23.4,0-42.2,8.1-42.2,13.5C186,402,242,401.5,258,381.5z"/>
		<path class="st6" d="M184.5,404.4c0,0,92.3,11.5,120.5,27.9c28.2,16.4,64.6,22.7,64.6,22.7l40-11.8l49.1-50.9
			c0,0,23.6-11.8,29.1-12.7c5.5-0.9-117.3-24.6-117.3-24.6l-44.1-7.3l-85.9,37.9L184.5,404.4z"/>
		<g>
			<path class="st7" d="M367.1,378.7L311.7,436c26.9,13.7,57.9,19.1,57.9,19.1l40-11.8l49.1-50.9c0,0,0.6-0.3,1.5-0.7L442.4,378
				L367.1,378.7z"/>
		</g>
		<linearGradient id="SVGID_1_" gradientUnits="userSpaceOnUse" x1="202.0879" y1="400.8637" x2="470.4092" y2="400.8637">
			<stop  offset="0" style="stop-color:#CE5B38"/>
			<stop  offset="1" style="stop-color:#DB8346"/>
		</linearGradient>
		<path class="st8" d="M369.3,449.4c-6.5-1.3-37.4-7.8-61.5-21.9c-21-12.2-77.2-19.6-105.7-25.1l39.3-12.6l86.9-37.6l40.4,7.9
			l0.8,0.2c31.2,6,77.2,15.1,100.9,20.3c-5.8,2.7-11.4,5.5-14.1,6.8l-0.8,0.4l-48.8,50.6L369.3,449.4z"/>
		<g class="st9">
			<path class="st10" d="M286.5,417.1l11,3.1l11.6,4.7l9.3,3.9c0,0,10.6,6.2,11.4,6.4c0.8,0.1,16.4,4.1,16.4,4.1l-20.2-17.7
				l-8.6-2.2l-7.8-0.9l-5.6,0.1l-9.5-1.7l-5.7,0L286.5,417.1z"/>
			<path class="st10" d="M262.6,390.6l3.4,0.9l9.4-1.6l8.7-1.1c0,0,2-1.7,2.3-3.2c0.3-1.5,1.1-3.1,1.1-3.1L286,379l2.8-1.3l11.1,1.3
				c0,0,2.7-0.7,3.6-0.8c0.9-0.1,3.7-0.9,4.6-1.8c0.8-0.9,2.9-1.9,3.7-3.3c0.7-1.5,5.3,0.3,5.3,0.3l5.2-5.2l7.2-5.3l-7.6,1.6
				c-2-2.2-3.3-1.9-3.3-1.9l-5.7-1.7l-26.3,11.8l-0.9,3.4c-2.2,1.2-5.7,1-5.7,1l-19.6,8.1l-1.9,1.5l-3.5,1.7
				c-0.9,1.4,4.3,2.6,4.3,2.6L262.6,390.6z"/>
			<path class="st10" d="M325,381.1l-3.4,3.6l2,2.8l3.5-0.5l2,0.8l3,2.7l3-0.1l0.8,6.1l-3,1.4c2.3,1.1,3.2,1.9,3.6,1.2
				c0.4-0.7,1.5-2.7,1.5-2.7l0.4-3c2.2-0.1,2.2-0.1,2.2-0.1s-0.9-2.2,0,0c0.9,2.2,0.9,2.2,0.9,2.2l4.4,0.1c2.6-0.3,4.5-0.9,4.5-0.9
				l3.4,2.9l-3.3,1.7c-1.9-0.4-4.9,3.4-4.9,3.4l-2.9,2l-3.2,1.5c0,0-3.9-0.2-4.1-1.1c-0.2-0.9-1.8-1.1-2.7-1.8c-1-0.8-1.9-1.3-2-2
				c-0.1-0.7-2.5-3.8-2.5-3.8l-5.9-4.9l-6.5-1.3l-2.8,4.5l-1.2,5.5l0.4,4.7l-1.2,3c0,0,0.1,1.6,0.8,2.1c0.7,0.5,0.8,3,1.7,3.2
				c0.9,0.1,4.1,1.4,4.7,1.3c0.6-0.1,4.6-3.7,6-4.2c1.3-0.4,4.4-3,5-2.9c0.6,0.1,3.5,1.1,4.4,1c0.9-0.1,1.9,2.6,1.9,2.6l5.2,3.3
				c3.2,0.5,9.3-2.3,9.3-2.3l8.3-0.1l11.9,4.7l1,2.3l-1.7,9.1l9.2,15.1l25.3-8.7l6-4.4l11.1-11.9l32.1-32.4l9.8-5.1
				c0,0-35.3-3.6-35.3-4.6c0-0.9-19.9,0.2-19.9,0.2l-8,0.2l-14.2-2.7l-1-3.9l-9.6-1.9l-4.8,1.8c0,0-5,3.2-5.6,4.3
				c-0.6,1.1-2.6,2.2-1.7,3c0.9,0.8,3.1,1.2,4.1,0.8c3.3-1.4,9.1,1.5,9.1,1.5c1.6-0.3,0.8,2.3,0.8,2.3l-6-0.4l-4.1,1l-4.2-1.4
				l-8.7,0.9l-1.6-1.1l2.8-2.6c2.5-2.1,2.5-2.1,2.5-2.1l-3.4-0.3c-1.9,2.1-4,3.4-4,3.4c-1.3,0.2-4.4,0.5-4.4,0.5l-3.3,0.2
				c-1.9-0.3-3.9-1.1-3.9-1.1c-3.7,0.7-4.8,1.9-4.8,1.9c-2.5,0.2-4-0.3-4-0.3L325,381.1z"/>
			<polygon class="st10" points="382.9,365.6 387.1,370.8 394.6,372.9 404,372.7 409.2,369.9 			"/>
			<path class="st10" d="M298.7,412.6l5.9-3l3.3,0c1.1,1-0.9,2.8-1.7,2.9c-0.8,0.1-3,1-3,1L298.7,412.6z"/>
		</g>
		
			<linearGradient id="SVGID_00000095296476707507724490000008362434718461969305_" gradientUnits="userSpaceOnUse" x1="127.0126" y1="305.1663" x2="345.2656" y2="186.599">
			<stop  offset="0" style="stop-color:#60CED1"/>
			<stop  offset="1" style="stop-color:#6EDDE0"/>
		</linearGradient>
		<path style="fill:url(#SVGID_00000095296476707507724490000008362434718461969305_);" d="M319.7,232.1
			c-9.8-45.2-61.3-72.4-115-60.6c-53.8,11.7-89.5,57.9-79.7,103.1c9.8,45.2,61.3,72.4,115,60.6C293.8,323.5,329.5,277.4,319.7,232.1
			z"/>
		<path class="st12" d="M227.6,339c-27.5,5.3-52.3-16.7-60.5-49.5c-2-8-5.2-12.2-4.5-7.3c5.3,38.1,30.4,66.9,60.5,66.9
			c21.7,0,41.4-17.5,52.3-40.1C272.9,303.5,253.5,334,227.6,339z"/>
		<path class="st13" d="M227.6,342.5c-28,0-51.7-22.7-59.9-54.1c-2-7.7-5.8-5-5.1-0.3c5.3,36.5,30.4,64.1,60.5,64.1
			c21.7,0,38.3-16.1,49.3-37.8C260.7,330.5,246.3,342.5,227.6,342.5z"/>
		
			<linearGradient id="SVGID_00000048490148986655935490000013286666733131766715_" gradientUnits="userSpaceOnUse" x1="129.734" y1="303.6877" x2="343.9034" y2="187.3388">
			<stop  offset="0.371" style="stop-color:#278F91"/>
			<stop  offset="0.4839" style="stop-color:#2B9496"/>
			<stop  offset="1" style="stop-color:#6EDDE0"/>
		</linearGradient>
		<path style="fill:url(#SVGID_00000048490148986655935490000013286666733131766715_);" d="M317.9,232.5
			c-9.6-44.4-60.1-71-112.9-59.5c-52.8,11.5-87.8,56.8-78.2,101.2c9.6,44.4,60.1,71,112.9,59.5C292.4,322.2,327.5,276.9,317.9,232.5
			z"/>
		<g class="st15">
			<polygon class="st16" points="206.8,392.9 215.6,398.1 270.5,398.1 262.6,390.5 263,380.8 258.8,377 			"/>
		</g>
		<g class="st17">
			<path class="st16" d="M264.7,380.9c0.1-4.8-19.4-9.8-43.2-10.2c-23.8-0.4-43,6.5-43.1,11.3C191,400.4,249.2,401.8,264.7,380.9z"
				/>
		</g>
		
			<linearGradient id="SVGID_00000093886386246598714510000014423311929499441849_" gradientUnits="userSpaceOnUse" x1="164.6444" y1="381.1551" x2="250.5946" y2="381.1551">
			<stop  offset="0" style="stop-color:#CC9C23"/>
			<stop  offset="0.8118" style="stop-color:#EBBF3C"/>
		</linearGradient>
		<path style="fill:url(#SVGID_00000093886386246598714510000014423311929499441849_);" d="M265.3,380.3
			c-6.4-8.6-19.4-13.5-43.1-13.5c-23.7,0-35.1,6.2-42.9,13.5C192.1,400.8,249,400.3,265.3,380.3z"/>
		
			<linearGradient id="SVGID_00000062150491844179524670000004465187053518801087_" gradientUnits="userSpaceOnUse" x1="189.6564" y1="381.1551" x2="275.6066" y2="381.1551">
			<stop  offset="0" style="stop-color:#CC9C23"/>
			<stop  offset="0.8118" style="stop-color:#EBBF3C"/>
		</linearGradient>
		<path style="fill:url(#SVGID_00000062150491844179524670000004465187053518801087_);" d="M265.3,380.3
			c-6.4-8.6-19.4-13.5-43.1-13.5c-23.7,0-35.1,6.2-42.9,13.5C192.1,400.8,249,400.3,265.3,380.3z"/>
		
			<linearGradient id="SVGID_00000110444704816335932410000008874874184211796631_" gradientUnits="userSpaceOnUse" x1="144.4652" y1="379.5874" x2="222.3285" y2="379.5874">
			<stop  offset="0" style="stop-color:#CC9C23"/>
			<stop  offset="0.8118" style="stop-color:#EBBF3C"/>
		</linearGradient>
		<path style="fill:url(#SVGID_00000110444704816335932410000008874874184211796631_);" d="M262.2,378.9c-5.8-7.5-17.5-11.8-39-11.8
			c-21.5,0-31.8,5.4-38.8,11.8C195.9,396.7,247.4,396.3,262.2,378.9z"/>
		<path class="st21" d="M262.5,379.5c-2.2-4.5-15-10.2-31-10.2c-16,0-9.3,4.2-9.3,9.8c0,5.6-6.7,10.5,9.3,10.5
			C247.5,389.6,260.1,383.6,262.5,379.5z"/>
		
			<linearGradient id="SVGID_00000052085736033357910880000008027428719911132064_" gradientUnits="userSpaceOnUse" x1="118.9772" y1="302.1135" x2="294.3966" y2="206.8158" gradientTransform="matrix(0.9346 8.000000e-04 8.000000e-04 0.9382 26.9241 13.6801)">
			<stop  offset="0" style="stop-color:#278F91"/>
			<stop  offset="1" style="stop-color:#6EDDE0"/>
		</linearGradient>
		<path style="fill:url(#SVGID_00000052085736033357910880000008027428719911132064_);" d="M314.1,230.6
			c-9-41.6-56.2-66.7-105.6-55.9c-49.3,10.8-82,53.2-73,94.9c9,41.6,56.2,66.7,105.6,55.9C290.4,314.7,323.1,272.3,314.1,230.6z"/>
		<g>
			
				<linearGradient id="SVGID_00000058570560153716697450000001409658712225847209_" gradientUnits="userSpaceOnUse" x1="253.5645" y1="229.0059" x2="143.5134" y2="391.354">
				<stop  offset="0.371" style="stop-color:#278F91"/>
				<stop  offset="0.4839" style="stop-color:#2B9496"/>
				<stop  offset="1" style="stop-color:#6EDDE0"/>
			</linearGradient>
			<path style="fill:url(#SVGID_00000058570560153716697450000001409658712225847209_);" d="M311.5,250.6c-6-27.8-40-1.8-43.7-18.8
				c-1-4.6,4.2-7.3,2.1-13.4c-2.3-6.9,2.2-5.2,1.6-8.1c-2.1-9.7-6.8-14.3-5.6-22.3c-3.5-10.5-14.1-14.9-25.3-14.1
				c-13.7,0.9-17.1-1.3-33,3.7c-1.5,0.5-4-1.2-9.1,3.5c-6.1,5.7-6.9,10.8-7.1,17.4c-1.6,1.2,12.2,8.1,12.8,10.7
				c2.3,10.7,15,15.3,15,15.3c2.5,11.8,28.7,30.1,27.9,26.2c-1-4.6-3.8-3.9-4.7-8.4c13.6,2.5,10.8,3.3,10.8,3.3
				c2.1-0.5,21.1-2,23.4-2.5c2.4-0.5-4.2,6.7-6.7,10.2c-3.2,4.7-1.7,2.7,0.1,11c0.4,1.8-3.5,2.1-2.9,5c0.1,0.4,12.8,9.8,13.7,13.8
				c1.3,5.9-18.7,36.2-20.6,38.7C294.3,313.5,315.7,269.8,311.5,250.6z"/>
			
				<linearGradient id="SVGID_00000123436752366054232110000003873802491869983674_" gradientUnits="userSpaceOnUse" x1="196.9128" y1="190.6032" x2="86.8611" y2="352.9523">
				<stop  offset="0.371" style="stop-color:#278F91"/>
				<stop  offset="0.4839" style="stop-color:#2B9496"/>
				<stop  offset="1" style="stop-color:#6EDDE0"/>
			</linearGradient>
			<path style="fill:url(#SVGID_00000123436752366054232110000003873802491869983674_);" d="M141.7,261.1c0.4,2,12,32.5,4.3-3.7
				c-0.3-1.5,1.7-3.8,1.9-5.5C145.6,254.4,141.1,258.2,141.7,261.1z"/>
			
				<linearGradient id="SVGID_00000041976646750340240660000009218198639468585608_" gradientUnits="userSpaceOnUse" x1="179.3271" y1="178.6828" x2="69.276" y2="341.031">
				<stop  offset="0.371" style="stop-color:#278F91"/>
				<stop  offset="0.4839" style="stop-color:#2B9496"/>
				<stop  offset="1" style="stop-color:#6EDDE0"/>
			</linearGradient>
			<path style="fill:url(#SVGID_00000041976646750340240660000009218198639468585608_);" d="M150.7,206.7
				c-13.5,15-21.5,33.3-21.8,52.3c3.4-9.9,19.5-31,21.6-31.5c1.5-0.3,2.7,2.5,4.3,2.2c3.2-0.7,6.1-11.9,4.7-18.3
				c-0.3-1.3-0.6-2.5-0.9-3.8c-0.5-2.1-0.8-4.3-0.6-6.5C155.4,202.8,153,204.7,150.7,206.7z"/>
			
				<linearGradient id="SVGID_00000124131044121326501410000010743570510635708095_" gradientUnits="userSpaceOnUse" x1="211.2964" y1="200.3594" x2="101.2499" y2="362.7008">
				<stop  offset="0.371" style="stop-color:#278F91"/>
				<stop  offset="0.4839" style="stop-color:#2B9496"/>
				<stop  offset="1" style="stop-color:#6EDDE0"/>
			</linearGradient>
			<path style="fill:url(#SVGID_00000124131044121326501410000010743570510635708095_);" d="M155.4,302.1c-1.5-6.9-15-12-21.7-16.4
				c3.9,10,10.1,18.8,17.9,26.2c0.1,0,0.2-0.1,0.2-0.1C162,308.9,156.3,306.2,155.4,302.1z"/>
			
				<linearGradient id="SVGID_00000100345396004489667990000013780954909932026243_" gradientUnits="userSpaceOnUse" x1="250.1198" y1="226.6764" x2="140.0736" y2="389.0174">
				<stop  offset="0.371" style="stop-color:#278F91"/>
				<stop  offset="0.4839" style="stop-color:#2B9496"/>
				<stop  offset="1" style="stop-color:#6EDDE0"/>
			</linearGradient>
			<path style="fill:url(#SVGID_00000100345396004489667990000013780954909932026243_);" d="M199.3,323.8c-0.4-2-7.7-6.7-31.9-3.2
				c0,0-0.1,0-0.1,0c-0.9,0.2-1.7,0.9-1.8,1.7c8.8,5.4,20.1,8.6,30.8,10.9C201,330.1,200.7,330.8,199.3,323.8z"/>
		</g>
		<g>
			<path class="st28" d="M313.3,250c-6-27.8-40-1.8-43.7-18.8c-1-4.6,4.2-7.3,2.1-13.4c-2.3-6.9,2.2-5.2,1.6-8.1
				c-2.1-9.7-6.8-14.3-5.6-22.3c-3.5-10.5-14.1-14.9-25.3-14.1c-13.7,0.9-17.1-1.3-33,3.7c-1.5,0.5-4-1.2-9.1,3.5
				c-6.1,5.7-6.9,10.8-7.1,17.4c-1.6,1.2,12.2,8.1,12.8,10.7c2.3,10.7,15,15.3,15,15.3c2.5,11.8,27,29.1,26.1,25.1
				c-1-4.6-2-2.8-3-7.4c13.6,2.5,10.8,3.3,10.8,3.3c2.1-0.5,21.1-2,23.4-2.5c2.4-0.5-4.2,6.7-6.7,10.2c-3.2,4.7-1.7,2.7,0.1,11
				c0.4,1.8-3.5,2.1-2.9,5c0.1,0.4,12.8,9.8,13.7,13.8c1.3,5.9-18.7,36.2-20.6,38.7C296.1,312.9,317.5,269.2,313.3,250z"/>
			<path class="st28" d="M143.5,260.5c0.4,2,8.1,32.3,4.3-3.7c-0.2-1.6-0.4-3.1-0.2-4.8C145.3,254.4,142.9,257.6,143.5,260.5z"/>
			<path class="st28" d="M152.5,206.1c-13.5,15-23,32.6-23.3,51.5c3.4-9.9,21-30.3,23.1-30.8c1.5-0.3,2.7,2.5,4.3,2.2
				c3.2-0.7,6.1-11.9,4.7-18.3c-0.3-1.3-0.6-2.5-0.9-3.8c-0.5-2.1-0.8-4.3-0.6-6.5C157.2,202.2,154.8,204.1,152.5,206.1z"/>
			<path class="st28" d="M157.2,301.4c-1.5-6.9-16.2-11.3-22.9-15.7c3.9,10,11.4,18.1,19.2,25.5c0.1,0,0.2,0,0.2-0.1
				C163.8,308.3,158.1,305.6,157.2,301.4z"/>
			<path class="st28" d="M201,323.2c-0.4-2-7.7-6.7-31.9-3.2c0,0-0.1,0-0.1,0c-0.9,0.2-1.7,0.9-1.8,1.7c8.8,5.4,20.1,8.6,30.8,10.9
				C202.8,329.5,202.5,330.2,201,323.2z"/>
		</g>
		<g class="st29">
			<path class="st21" d="M162.7,250.1c8.7,40.2,54.4,64.4,102.2,54c15.5-3.4,29.2-10,40.5-18.7c9.5-15.9,13.3-34.1,9.3-52.2
				c-9.3-42.9-58.1-68.7-109.2-57.5c-6,1.3-11.8,3.1-17.3,5.3C167.8,199.1,157.2,224.8,162.7,250.1z"/>
		</g>
		<path class="st30" d="M140.4,267.8c-4.5-20.9,0.6-41.9,12.7-59.5c-1.3,0.6-2.6,1.2-3.9,2c-26.1,14.8-33.2,51.6-15.9,82.1
			c14.4,25.4,41.2,38.5,64.8,33.7C169.1,317.4,146.6,296.2,140.4,267.8z"/>
		<g class="st29">
			<path class="st21" d="M229.1,212.9c-4.2,18.9,17.3,36.9,42.2,40c7,0.9,13.5,0.5,19.2-0.9c6-3.7,10.3-8.6,12.1-14.6
				c4.3-14.4-8-32.6-32.1-41.9c-3.2-1.2-6.5-2.3-9.9-3.1C244.8,193.2,231.9,200.6,229.1,212.9z"/>
		</g>
		
			<linearGradient id="SVGID_00000124863972209483628870000003238475047367194807_" gradientUnits="userSpaceOnUse" x1="180.7297" y1="167.0588" x2="212.5145" y2="149.7915" gradientTransform="matrix(0.8954 -0.4453 0.3562 0.7163 -60.9955 245.9835)">
			<stop  offset="0.371" style="stop-color:#278F91"/>
			<stop  offset="0.4839" style="stop-color:#2B9496"/>
			<stop  offset="1" style="stop-color:#6EDDE0"/>
		</linearGradient>
		<path style="opacity:0.6;fill:url(#SVGID_00000124863972209483628870000003238475047367194807_);" d="M181.6,267.8
			c-3.6-7.3-11.7-10.6-18-7.4c-6.4,3.2-8.6,11.7-5,18.9c3.6,7.3,11.7,10.6,18,7.4C183,283.6,185.2,275.1,181.6,267.8z"/>
		
			<linearGradient id="SVGID_00000080196096526316608200000001697477977900738493_" gradientUnits="userSpaceOnUse" x1="162.533" y1="276.025" x2="182.3235" y2="276.025">
			<stop  offset="0" style="stop-color:#CC9C23"/>
			<stop  offset="0.8118" style="stop-color:#EBBF3C"/>
		</linearGradient>
		<path style="fill:url(#SVGID_00000080196096526316608200000001697477977900738493_);" d="M172.6,271.7c-2.7-5.4-8.7-7.9-13.5-5.5
			c-4.8,2.4-6.4,8.7-3.8,14.1c2.7,5.4,8.7,7.9,13.5,5.5C173.6,283.5,175.3,277.2,172.6,271.7z"/>
		<path class="st33" d="M170.8,272.3c-2.3-4.6-7.4-6.6-11.4-4.6c-4.1,2-5.5,7.4-3.3,11.9c2.3,4.6,7.4,6.6,11.4,4.6
			C171.6,282.2,173,276.8,170.8,272.3z"/>
		
			<linearGradient id="SVGID_00000128457969528216781750000010181232142886215866_" gradientUnits="userSpaceOnUse" x1="119.1252" y1="289.4462" x2="138.916" y2="289.4462" gradientTransform="matrix(0.8375 4.380000e-02 4.370000e-02 0.9038 47.4996 9.8875)">
			<stop  offset="0" style="stop-color:#CC9C23"/>
			<stop  offset="0.8118" style="stop-color:#EBBF3C"/>
		</linearGradient>
		<path style="fill:url(#SVGID_00000128457969528216781750000010181232142886215866_);" d="M168.2,273.3c-2.5-5-7.6-7.5-11.5-5.6
			c-3.9,1.9-5,7.6-2.5,12.6c2.5,5,7.7,7.5,11.5,5.6C169.5,283.9,170.7,278.3,168.2,273.3z"/>
		
			<linearGradient id="SVGID_00000058549901889648853170000013467955922983843253_" gradientUnits="userSpaceOnUse" x1="161.3977" y1="331.7753" x2="216.3636" y2="331.7753">
			<stop  offset="0" style="stop-color:#CC9C23"/>
			<stop  offset="0.8118" style="stop-color:#EBBF3C"/>
		</linearGradient>
		<path style="fill:url(#SVGID_00000058549901889648853170000013467955922983843253_);" d="M242.2,339.9c-4.5,1.7-9.4,2.6-14.6,2.6
			c-28,0-51.7-22.7-59.9-54.1c-2-7.7-5.8-5-5.1-0.3c4.9,33.6,26.6,59.7,53.6,63.6c0,0.1,0,0.2,0,0.4c0,1.8,1.4,3.3,3.3,4
			c-2.7,1.9-4.5,6.3-4.5,11.5c0,6.9,3.3,12.5,7.4,12.5c4.1,0,7.4-5.6,7.4-12.5c0-5.2-1.9-9.6-4.5-11.5c2-0.8,3.3-2.3,3.3-4
			c0-0.1,0-0.2,0-0.3C247.5,349.2,254.1,335.5,242.2,339.9z"/>
		<path class="st33" d="M228.1,365.6c-0.3-2.1-1.3-3.8-2.3-3.6c-1,0.1-1.7,2-1.4,4.1c0.3,2.1,1.3,3.8,2.3,3.6
			C227.7,369.6,228.3,367.7,228.1,365.6z"/>
		<g>
			
				<linearGradient id="SVGID_00000094610840866545854800000015371980439697630602_" gradientUnits="userSpaceOnUse" x1="164.5087" y1="332.0713" x2="237.8999" y2="332.0713">
				<stop  offset="0" style="stop-color:#CC9C23"/>
				<stop  offset="0.8118" style="stop-color:#EBBF3C"/>
			</linearGradient>
			<path style="opacity:0.5;fill:url(#SVGID_00000094610840866545854800000015371980439697630602_);" d="M223.5,355.8
				c-2.5-1,8.3-10.2,14.4-14.8c-5.5,2.3-53.2,8.2-70.8-54.5c-1.7-3.5-3.1-1.5-2.4,3.5c4.4,30.5,26,57.2,52.5,61c0,0.1,0,0.2,0,0.4
				c0,1.7,1.3,3.2,3.3,4c-2.6,1.9-4.5,6.3-4.5,11.4c0,6.9,3.3,12.4,7.3,12.4c0.1,0,0.1,0,0.2,0C221.4,375.1,218.8,366,223.5,355.8z"
				/>
		</g>
		<g>
			
				<linearGradient id="SVGID_00000053541109471721195910000005313290515029004416_" gradientUnits="userSpaceOnUse" x1="193.6615" y1="409.1629" x2="296.7572" y2="409.1629" gradientTransform="matrix(0.9015 0.4971 -0.4829 0.8757 179.4739 -158.1649)">
				<stop  offset="0" style="stop-color:#CC9C23"/>
				<stop  offset="0.8118" style="stop-color:#EBBF3C"/>
			</linearGradient>
			<path style="fill:url(#SVGID_00000053541109471721195910000005313290515029004416_);" d="M201.1,337.5c11,6.1,23.9,8.4,33,8.1
				c2.1-1.8,4.5-2.9,6.3-4.2c-5.5,2.3-55.6,7.8-73.2-54.8c-0.3-0.5-0.5-0.9-0.8-1.2C166.7,302.5,181.2,326.6,201.1,337.5z"/>
		</g>
		<path class="st13" d="M155.3,274.1c-0.7,1.6-0.7,3.9,0.8,6c1.8,2.6,3.4,3.1,5.4,3.3C157.6,279.6,156.8,277.2,155.3,274.1z"/>
		<path class="st38" d="M176.7,404.4c-0.8-0.4-3.2-1.9-4.1-2.3c-1.8-0.9-4.6,1.3-6.3,4.8c-1.6,3.5-1.5,7,0.3,7.9
			c0.8,0.4,3.2,1.9,4.1,2.4c1.8,0.9,4.6-1.3,6.3-4.8C178.7,408.8,178.5,405.3,176.7,404.4z"/>
		<g>
			<path class="st6" d="M176.5,405.5l-6.7-3c-0.9,0.6-1.8,1.5-2.6,2.7l7.2,2.3L176.5,405.5z"/>
		</g>
		<g>
			<path class="st39" d="M171,414.1l-5.8-3.1c0,0.3,0,0.7,0,1l5.4,2.9L171,414.1z"/>
			<path class="st39" d="M165.8,413.8c0.2,0.4,0.5,0.7,0.9,0.9c0.8,0.4,3.2,1.9,4.1,2.4c0.1,0,0.2,0,0.3,0.1l0.2-0.4L165.8,413.8z"
				/>
			<path class="st39" d="M171.8,410.9l-5.9-3.1c-0.1,0.3-0.2,0.5-0.3,0.8l5.7,3.1L171.8,410.9z"/>
			<path class="st39" d="M173.7,407.6l-5.9-3.1c-0.2,0.2-0.3,0.5-0.5,0.7l6,3.2L173.7,407.6z"/>
			<path class="st39" d="M176.2,404.9l-5.3-2.8c-0.3,0.1-0.6,0.3-0.9,0.5l5.9,3.1L176.2,404.9z"/>
		</g>
		<path class="st39" d="M177,412.3c1.6-3.5,1.5-7-0.3-7.9c-1.8-0.9-4.6,1.3-6.3,4.8c-1.6,3.5-1.5,7,0.3,7.9
			C172.6,418,175.4,415.8,177,412.3z"/>
		<g>
			<path class="st5" d="M264.3,463.1c-1.3-0.5-3.2-0.8-5.6-0.8c-11.4,0-45.8,11.2-45.9,11.1c0-6.8,14-13.1,27.5-19.5
				c12.3-5.9,17.2-8.8,17.2-13.7c0-8.6-15.8-5.8-26.3-6.4c2.6-1.8,4.4-3.5,5.2-4.9c-4.6-5.1-17.4-14.2-38.9-14.2
				c-21.5,0-33.8,9.1-38.9,14.2c4.2,6.2,17.4,14.2,38.9,14.2c13.9,0,23.9-3.5,30.7-7.6c3.7,1.9,27.4-3.8,27.4,4.7
				c0,3.8-5.4,7-16.1,12.1c-14.6,7-28.5,13.2-28.5,21.2c0,2.2,7.2,6.5,17.2,6.5c19.8,0,38.4-8.8,38.4-14.1
				C266.5,465,266.1,463.9,264.3,463.1z M228.1,478.2c-6.3,0-11-1.8-13.5-3.2c20.1-7.1,35.3-10.8,44-10.8c2.2,0,3.9,0.2,4.9,0.6
				c0.7,0.3,1.1,0.6,1.1,1.1C264.7,469.3,248.4,478.2,228.1,478.2z"/>
			<path class="st38" d="M237.5,413.2c-3.9-4-14.7-11-32.8-11c-18.1,0-28.5,7-32.8,11c0,4.1-0.4,7.8,0,15
				c3.5,4.7,14.7,10.7,32.8,10.7c18.1,0,30.3-7,32.8-10.7C237.5,424.2,237.5,415.9,237.5,413.2z"/>
			
				<radialGradient id="SVGID_00000087408495249226182320000010999513611343167365_" cx="171.088" cy="426.3567" r="53.7533" gradientUnits="userSpaceOnUse">
				<stop  offset="0" style="stop-color:#A0828D"/>
				<stop  offset="1" style="stop-color:#BCAAB0"/>
			</radialGradient>
			<path style="fill:url(#SVGID_00000087408495249226182320000010999513611343167365_);" d="M237.5,412.9
				c-3.9-3.8-14.5-10.6-32.4-10.6c-17.9,0-28.2,6.8-32.4,10.6c0,4-0.4,7.6,0,14.5c3.5,4.5,14.5,10.4,32.4,10.4
				c17.9,0,30-6.8,32.4-10.4C237.5,423.5,237.5,415.4,237.5,412.9z"/>
			<g>
				<path class="st38" d="M188.8,411.6v25.6c4.5,1.1,9.8,1.8,15.9,1.8c2.4,0,4.7-0.1,6.8-0.4v-27H188.8z"/>
				<path class="st38" d="M214.7,408.2v30c2.5-0.4,4.9-0.9,7-1.5v-28.5H214.7z"/>
			</g>
			<path class="st6" d="M237.5,413.2c-2.4,3.8-14.7,11-32.8,11c-18.1,0-29.2-6.2-32.8-11c4.3-4,14.7-11,32.8-11
				C222.8,402.2,233.6,409.2,237.5,413.2z"/>
			<path class="st41" d="M237.5,412.5c-2.4,3.5-14.7,10.3-32.8,10.3c-18.1,0-29.2-5.8-32.8-10.3c4.3-3.7,14.7-10.3,32.8-10.3
				C222.8,402.2,233.6,408.8,237.5,412.5z"/>
			<g>
				<path class="st6" d="M214.9,421.2c11.4-1.7,18.9-6.2,20.7-8.8c-3.6-3.4-13.5-9.5-30.2-9.5c-4.2,0-7.9,0.4-11.2,1
					c-1.3,1.4-2,2.9-2,4.4C192.3,414.1,201.5,419,214.9,421.2z"/>
			</g>
			<path class="st42" d="M225.9,413.2c-1.6,2.4-9.5,7.1-21.2,7.1c-11.7,0-18.9-4-21.2-7.1c2.8-2.6,9.5-7.1,21.2-7.1
				C216.4,406.1,223.4,410.6,225.9,413.2z"/>
			<path class="st43" d="M223.3,415.2c-1.4,1.6-8.7,5.3-19.1,5.3c-10.4,0-16.5-3.3-18.5-5.3c2.5-1.7,8.4-4.6,18.8-4.6
				C214.9,410.6,221.1,413.5,223.3,415.2z"/>
			<polygon class="st44" points="203.8,417.8 206.5,409 188.7,412 			"/>
			<polygon class="st45" points="206.2,409.1 203.6,417.8 221.3,414.8 			"/>
			<g class="st29">
				<path class="st46" d="M200,419.1l6.8-12.1c-3-0.5-3.9,0-5.9,0.2l-6.1,10.8C196,418.2,198.3,418.8,200,419.1z"/>
				<path class="st46" d="M223.4,413.2c-1.6-1.6-5.3-4.2-11-5.4c-1.1,2.9-3.4,8.8-4.4,11.5C216.5,418.6,222.2,415.1,223.4,413.2z"/>
			</g>
		</g>
		<polygon class="st47" points="378.4,436.9 372.3,431.1 394.4,430.2 409.6,443.2 369.6,455.1 		"/>
		<g>
			<polygon class="st6" points="372.3,431.1 378.4,436.9 378.2,437.3 394.4,430.2 			"/>
		</g>
		<path class="st33" d="M242,344.3c0-0.8-5.5,0.7-9.7,0.7s-7.6,0.7-7.6,1.5c0,0.8,3.4,1.5,7.6,1.5S242,345.1,242,344.3z"/>
		<polygon class="st4" points="419.6,453.5 448.1,427.2 453.6,426 460.2,429.9 460.2,434.7 431.4,462.1 414.8,469.3 412.9,467.8 		
			"/>
		<g>
			<polygon class="st48" points="425.2,451.6 455,424 460.8,422.8 467.8,426.9 467.8,432 437.6,460.7 420.1,468.2 418.2,466.7 			
				"/>
			<g>
				<polygon class="st49" points="436.8,461 437.6,460.7 467.8,432 467.8,426.9 467.7,426.9 436.5,456 				"/>
			</g>
			<g>
				<polygon class="st50" points="460.9,422.8 460.8,422.8 455,424 425.2,451.6 424.9,452.1 428.5,451.9 				"/>
			</g>
			<g>
				<polygon class="st51" points="425.2,451.6 418.2,466.7 420.1,468.2 437.6,460.7 437.4,455.4 429.9,450.6 425.2,451.6 				"/>
			</g>
			<g>
				<polygon class="st52" points="421,460.5 418.2,466.7 420.1,468.2 427.2,465.2 427.2,460.5 				"/>
				<g>
					<polygon class="st53" points="420.1,468.2 427.2,465.2 427.2,460.5 427.1,460.5 420.9,466.5 					"/>
				</g>
			</g>
			<polygon class="st52" points="425.2,461.2 426.1,465.6 427.3,465.1 427.3,460.5 			"/>
			<polygon class="st54" points="427.3,460.5 429.9,450.6 425.2,451.6 421,460.5 			"/>
		</g>
		<path class="st46" d="M262.4,379.7c0.4-0.3,0.1-1.2-0.6-2c-0.7-0.8-1.5-1.2-1.9-0.8c-0.3,0.3-0.1,1.2,0.6,2
			C261.2,379.7,262,380.1,262.4,379.7z"/>
		<polygon class="st55" points="432.6,369.3 458.4,390.5 484.2,380.2 		"/>
		<path class="st55" d="M311.7,435l31.5-32.7l-31.5-1.2l-76,7.8C235.7,408.9,278.4,413.7,311.7,435z"/>
		<path class="st5" d="M319.4,383.4c-1.8,0.2-3.5,0-5.3-0.4l-66.2-18.8c0,0-5.1-2.7-1.9-4.5c3.2-1.8,42.6-17.3,42.6-17.3l99.3,15.9
			L354.6,378c0,0,0,0,0,0c-2.3,1.2-4.8,2-7.3,2.3L319.4,383.4z"/>
		<g>
			<path class="st56" d="M320.9,322.4l-47.7,15c-4.3,1.2-7.6,4.2-7,7.5l1.5,10.7c0.1,1.3,1.1,2.4,2.7,3.1c0.1,0.1,0.3,0.1,0.4,0.2
				l0,0.1l78,18.6l3.1,0.3l38.3-50.3l1.6-1l0.2-1.8L320.9,322.4z"/>
			<g class="st9">
				<path class="st57" d="M348.1,351.4l-80.6-10.5c-1.4,1.4-1.5,2.3-1.2,4.1l1.5,10.7c0.1,1.3,1.1,2.4,2.7,3.1
					c0.1,0.1,0.3,0.1,0.4,0.2l0,0.1l78,18.6l3.1,0.3l0.7-0.9l-1.3-2.2L348.1,351.4z"/>
			</g>
		</g>
		
			<linearGradient id="SVGID_00000014622070107616807150000003846126520994193813_" gradientUnits="userSpaceOnUse" x1="396.7521" y1="323.1639" x2="306.7087" y2="339.5355">
			<stop  offset="5.376340e-03" style="stop-color:#C6A5CE"/>
			<stop  offset="1" style="stop-color:#D49AE2"/>
		</linearGradient>
		<path style="fill:url(#SVGID_00000014622070107616807150000003846126520994193813_);" d="M387.8,325.8l-40.9,19.6
			c-2.9,1.5-5.4,1.7-8.7,1.4l-64-6.4c-1.5-0.1-2-1.5-0.6-2l47.9-15.2L387.8,325.8z"/>
		<g>
			<path class="st59" d="M352,378.1c0,0,0.1,0,0.1,0l0,0C352.1,378.1,352,378.1,352,378.1z"/>
			<path class="st59" d="M391.6,354.4l0.1-2.9l-4.8-0.8l1-21.4l4.1-2.4l0.3-2.1c-12.6,6.6-40.9,20.1-42,20.7
				c-3,1.7-2.7,6.5-2.7,14.9c0,8.4,1.3,17.7,4.4,17.8c0,0,0,0,0.1,0c0,0,0.1,0,0.2,0L391.6,354.4z"/>
			<path class="st5" d="M350.5,371.4c0,0,1,5,4.7,3.5c3.7-1.5,36.4-21.7,36.4-21.7l0.1-1.7l-6.1-0.9L350.5,371.4z"/>
		</g>
		<g>
			<path class="st60" d="M349.3,359.9c0,7.5,0.7,13.8,3.5,13.8c2.3,0,27.3-14.9,36.5-20.5l1-25.7c-10.5,5.6-37.6,18.5-38.6,19
				C349,348.2,349.3,352.4,349.3,359.9z"/>
		</g>
		<polygon class="st21" points="267.7,373.7 288.6,364.4 295,366.6 272.8,376.4 		"/>
		<g class="st9">
			<path class="st5" d="M390.3,327.6c-10.5,5.6-37.6,18.5-38.6,19c-1.7,1-2.2,3.1-2.4,6.6l40.8-22L390.3,327.6z"/>
		</g>
		<path class="st54" d="M403.6,340.5c-8.4-7-13.6-4.7-13.6-4.7s-0.1,1.5-0.1,2.5c-7.2,5-12.3,8-18,12.4c0.1-0.1,0.3-0.2,0.4-0.2
			l-0.4,0.3l17.4-4l0.3-3.9C395.4,340.8,400.8,339.5,403.6,340.5z"/>
		<path class="st61" d="M390,335.3c0,0,5.2-2,13.6,5.1c-6.4-2.6-26.6,6.7-31.7,10.3c5.2-4.8,10.7-7.8,17.9-12.8
			C389.9,336.6,390,335.3,390,335.3z"/>
		<polygon class="st54" points="356.6,364.6 374.8,354.5 364.1,361.5 		"/>
		<path class="st54" d="M357.4,350.2c0,0,0.5,0.3,0.5,0.8c0,0.5,0.8,12.2,0.8,12.2s1.8-4.8,6.2-3.3l-0.7-11c0,0-0.5-0.7-1.1-0.9
			C362,348.3,357.4,350.2,357.4,350.2z"/>
		<path class="st62" d="M357.4,350.2c0,0,0.5,0.3,0.6,0.8c0,0.4,2.1,11.9,2.1,11.9s1.7-5.3,6.2-3.8l-1.9-10.4c0,0-0.5-0.7-1.2-0.9
			C362.1,348.2,357.4,350.2,357.4,350.2z"/>
		<polygon class="st6" points="394.4,430.2 409.8,441.9 420.8,431.6 409.6,443.2 		"/>
		<path class="st4" d="M521.9,374c-1.1-1.3-4.6-4.8-5.7-6.1c-3.7-4.3-9.2-6.8-15.5-7.4c-6.3-5.4-14.1-11.8-17.3-14.5
			c-0.4-0.7-0.8-1.3-1.3-1.9c-3-3.6-7.4-5.5-12.3-5.8c-3.5-3.4-6.5-6.3-7.9-7.6c-0.3-0.5-0.6-1-1-1.5c-2.8-3.3-7.2-4.7-11.9-4.3
			c-0.1-0.1-0.2-0.2-0.3-0.3c-0.1-0.1-0.1-0.2-0.2-0.3c-0.3-0.7-0.7-1.3-1.2-1.9c-3.5-4.1-10.6-4.1-15.9-0.1
			c-4.8,3.7-6.4,9.4-4.2,13.4c0.3,0.7,0.7,1.3,1.2,1.9c0.7,0.9,1.6,1.5,2.6,2c-0.9,3.9-0.2,7.9,2.3,10.8c0.2,0.2,0.4,0.4,0.6,0.6
			c0.2,0.3,0.3,0.7,0.5,1c0.5,1,3.3,4.8,6.8,9.3c-0.3,3.4,0.6,4.5,2.2,7.3c0.6,1.3,5.6,0.9,6.6,2c1.2,1.3,11.8,15.4,14.3,18.6
			c-1.4,2-3.7,0.9-4.2,3.7c-0.8,3.9,1.4,12.4,3.8,15c1.2,1.3,5.7,6.2,6.9,7.4c9.1,10,27.8,8.9,41.8-2.2
			C526.2,402.3,530.5,384.1,521.9,374z"/>
		<path class="st63" d="M446.7,327c4.3-4.9,4.5-11.7,0.5-15.1c-4-3.4-10.6-2.2-14.9,2.8c-4.3,4.9-4.5,11.7-0.5,15.1
			C435.7,333.2,442.4,331.9,446.7,327z"/>
		<path class="st55" d="M446.4,326.9c4.3-4.9,5.1-11.1,1.2-14.5c-4-3.4-10.6-2.2-14.9,2.8c-4.3,4.9-4.5,11.6-0.5,15
			C436.2,333.1,442.2,331.8,446.4,326.9z"/>
		
			<linearGradient id="SVGID_00000157269522886993880160000017697050892034935936_" gradientUnits="userSpaceOnUse" x1="336.6328" y1="362.9711" x2="413.9692" y2="362.9711" gradientTransform="matrix(0.5351 1.620000e-02 -1.580000e-02 0.5228 255.9855 134.8081)">
			<stop  offset="0" style="stop-color:#FFB82A"/>
			<stop  offset="1" style="stop-color:#FFD815"/>
		</linearGradient>
		<path style="fill:url(#SVGID_00000157269522886993880160000017697050892034935936_);" d="M468.6,327.3c-1.6-1.6-18.7-12.8-20.6-14
			c-4.1-2.6-9.3-2.6-13.9,2c-4.3,4.3-4.1,10.3-2.3,13c1.2,1.8,17.6,18.4,19.8,19.8c4.8,3,11.8,1.6,16.5-4.1
			C472.9,338.2,472.6,331.3,468.6,327.3z"/>
		<g>
			<path class="st65" d="M446.7,314.9l-4.9-3.3c-1.5,0.1-3,0.5-4.6,1.3l7.4,5L446.7,314.9z"/>
		</g>
		<path class="st63" d="M460.6,338.2c6.2-7.2,6.5-17,0.8-22c-5.8-5-15.4-3.2-21.6,4c-6.2,7.2-6.5,17-0.8,22
			C444.8,347.2,454.4,345.4,460.6,338.2z"/>
		<path class="st55" d="M461.1,338.9c6.2-7.2,6.5-17,0.8-22c-5.8-5-15.4-3.2-21.6,4c-6.2,7.2-6.7,16.5-1,21.5
			C445.1,347.5,455,346.1,461.1,338.9z"/>
		
			<linearGradient id="SVGID_00000175294399060602044720000009115309556352577156_" gradientUnits="userSpaceOnUse" x1="390.7995" y1="366.3549" x2="477.8548" y2="366.3549" gradientTransform="matrix(0.6888 2.090000e-02 -2.040000e-02 0.673 174.5463 87.3315)">
			<stop  offset="0" style="stop-color:#FFB82A"/>
			<stop  offset="1" style="stop-color:#FFD815"/>
		</linearGradient>
		<path style="fill:url(#SVGID_00000175294399060602044720000009115309556352577156_);" d="M491.6,338.4
			c-2.4-2.4-26.9-19.5-29.7-21.3c-6-3.8-14-2.9-20.7,3.8c-6.2,6.2-5.9,16.2-1,22.7c1.9,2.5,23.3,23.1,26.6,25.1
			c7,4.4,17.3,2.4,24.2-6C497.8,354.3,497.4,344.2,491.6,338.4z"/>
		<g>
			<path class="st65" d="M468.6,324.9l-17.1-9.8c-1.6,0.3-3.3,0.9-4.9,1.7l16.3,11.2L468.6,324.9z"/>
		</g>
		<path class="st63" d="M483.7,357.8c8.5-9.9,9-23.5,1.1-30.3c-8-6.8-21.3-4.4-29.9,5.6c-8.5,9.9-9,23.5-1.1,30.3
			C461.8,370.2,475.2,367.8,483.7,357.8z"/>
		<path class="st55" d="M484.5,358.9c8.5-9.9,9-23.5,1.1-30.3c-8-6.8-21.3-4.4-29.9,5.5c-8.5,9.9-9,23.1-1,29.9
			C462.4,369.9,475.9,368.8,484.5,358.9z"/>
		
			<linearGradient id="SVGID_00000018923472941515052690000018132351338156687541_" gradientUnits="userSpaceOnUse" x1="450.7793" y1="360.2171" x2="523.6479" y2="360.2171">
			<stop  offset="0" style="stop-color:#FFB82A"/>
			<stop  offset="1" style="stop-color:#FFD815"/>
		</linearGradient>
		<path style="fill:url(#SVGID_00000018923472941515052690000018132351338156687541_);" d="M517.1,348.1
			c-3.4-3.2-27.8-17.1-31.7-19.5c-8.4-5-19.3-3.5-28.3,6.2c-8.3,9-7.7,22.4-2.6,28c2.9,3.2,25.2,26.3,29.7,29
			c9.8,5.9,23.9,2.6,32.9-9.5C526.3,370.3,525.3,356,517.1,348.1z"/>
		<g>
			<path class="st68" d="M459.8,332.2c-0.9,0.8-1.8,1.7-2.7,2.6c-4.3,4.6-6.2,10.4-6.3,15.7l26.7,27.5l10.3-26L459.8,332.2z"/>
			<g>
				<path class="st68" d="M440.7,321.4c-2.6,2.8-3.9,6.4-4.1,10l12.7,11.7l0.4,2.2c1-3.9,3-7.8,6-11.3c0.8-1,1.8-1.9,2.7-2.7
					l-2.1,0.3L440.7,321.4z"/>
				<path class="st68" d="M438.5,321.4l-5.7-4.5c-1.2,1.7-1.8,3.5-2.1,5.2c0,0,0,0,0,0c0.3,0.4,2.1,2.5,5.1,5c0,0.6,0,3-0.1,3.4l0,0
					c0.6-3.3,2.1-6.6,4.5-9.5l-0.4-0.2L438.5,321.4z"/>
			</g>
		</g>
		<g>
			<path class="st65" d="M500.8,342.7l-26.7-16.9c-2.2,0.1-4.4,0.6-6.7,1.6l27.7,18.4L500.8,342.7z"/>
		</g>
		<path class="st69" d="M531.1,352.1c-1.4-1.2-6.8-5.8-8.2-7c-11-9.5-29.9-5.7-42.1,8.4c-12.2,14.2-13.2,33.3-2.1,42.9
			c1.4,1.2,6.8,5.8,8.2,7c11,9.5,29.9,5.7,42.1-8.4C541.2,380.8,542.1,361.6,531.1,352.1z"/>
		<path class="st70" d="M531,351.7c-1.4-1.2-5.8-4.4-7.2-5.5c-11.1-9.4-30.8-5.8-43,8.2c-12.2,14-13.2,32.9-2.1,42.3
			c1.4,1.2,6.8,5.7,8.2,6.9c11.1,9.4,30,5.7,42.2-8.3C541.4,381.3,542.1,361.1,531,351.7z"/>
		<g>
			<path class="st71" d="M529.4,354.3l-20.6-13.4c-7.8-0.2-17.1,3.3-23.3,8.9l23.9,19.8L529.4,354.3z"/>
		</g>
		<path class="st72" d="M529.2,394.9c12.3-14.2,13.2-33.5,2.2-43.1c-11.1-9.6-30-5.8-42.3,8.5c-12.3,14.2-13.2,33.5-2.1,43.1
			C498,412.9,516.9,409.1,529.2,394.9z"/>
		<path class="st71" d="M529.2,394.9c12.3-14.2,13.6-33.2,3-42.3c-10.6-9.1-29.1-5-41.4,9.2c-12.3,14.2-13.6,33.2-3,42.3
			C498.4,413.3,516.9,409.1,529.2,394.9z"/>
		<g>
			<path class="st73" d="M505.8,378.8c7.7,6.5,20.3,5.2,30.5-2.3c3-9.5,1.3-19.1-5.4-24.8c-7.4-6.3-18.8-5.9-28.7,0
				C497.7,361.9,498.7,372.8,505.8,378.8z"/>
		</g>
		<path class="st74" d="M527.4,361c-7.6-6.9-21.1-4.4-30.1,5.6c-9,10-10.2,23.6-2.6,30.5c7.6,6.9,21.1,4.4,30.1-5.6
			C533.9,381.5,535,367.8,527.4,361z"/>
		<path class="st63" d="M524.4,359.1c-7-4.8-20.5-1.6-28.4,8.6c-8,10.3-8.7,23.1-1.5,28.6c7.1,5.5,19.3,1.6,27.3-8.7
			C529.7,377.3,531.9,364.1,524.4,359.1z"/>
		<path class="st75" d="M524.7,375c-7,9.1-17.7,12.6-23.8,7.8c-3.6-2.8-4.8-7.7-3.9-13.1c-6.1,8.8-6.5,19.2-0.7,23.8
			c6.1,4.8,16.8,1.3,23.8-7.8c3-3.8,4.8-8,5.4-11.9C525.3,374.2,525,374.6,524.7,375z"/>
		<path class="st76" d="M514.2,380.2c-2.7-3.7-8.9-3.8-13.8-0.2c-4.9,3.6-6.7,9.5-4,13.2c2.7,3.7,8.9,3.8,13.8,0.2
			C515.2,389.8,516.9,383.9,514.2,380.2z"/>
		<path class="st76" d="M523.1,361.1c-2.1-0.6-3.9,5.1-6.4,13.6c-2.5,8.5-7.9,18.1-5.9,18.7c2,0.6,11.1-7.6,13.6-16.1
			C526.9,368.8,525.2,361.7,523.1,361.1z"/>
		<path class="st77" d="M472.7,324.5c-0.1-0.3-1.1-0.3-2.3,0c-1.2,0.3-2.1,0.8-2.1,1.1c0.1,0.3,1.1,0.3,2.3,0
			C471.9,325.4,472.8,324.9,472.7,324.5z"/>
		<path class="st77" d="M450.7,314.5c-0.1-0.2-0.7-0.2-1.5-0.1c-0.8,0.2-1.4,0.5-1.4,0.7c0,0.2,0.7,0.2,1.5,0.1
			C450.2,315,450.8,314.7,450.7,314.5z"/>
		<path class="st77" d="M441.3,310.6c0-0.2-0.7-0.3-1.5-0.2c-0.8,0.1-1.4,0.4-1.4,0.6c0,0.2,0.7,0.3,1.5,0.2
			C440.7,311,441.3,310.8,441.3,310.6z"/>
		<polygon class="st73" points="501.2,341.4 496,343.2 505.2,351.1 513.3,348 		"/>
		<path class="st5" d="M496,373.7c8-10.3,21.4-13.4,28.4-8.6c2.4,1.6,3.8,4.1,4.3,7c0.8-5.5-0.4-10.3-4.3-12.9
			c-7-4.8-20.5-1.6-28.4,8.6c-5,6.5-7.2,14-6.2,20.1C490.4,383.1,492.5,378.2,496,373.7z"/>
		<path class="st78" d="M236,422.9c0-2-1.2-3.6-2-3.6c-0.8,0-0.8,1.6-0.8,3.6c0,2,0,3.6,0.8,3.6C234.8,426.5,236,424.9,236,422.9z"
			/>
		<path class="st43" d="M229.1,479.4c-9.9,0-17.2-4.3-17.2-6.6c0-8,15.1-15.2,29.8-22.2c10.8-5.1,21.9-10.4,21.9-14.2
			c0-7.2-18.2-11.8-29.3-13l0.2-1.8c10.4,1.2,30.9,5.7,30.9,14.8c0,4.9-10.6,10-23,15.9c-13.5,6.4-28.7,13.7-28.7,20.5
			c0.1,0.1,0.2,0.3,0.4,0.5l-0.1-0.3c14.5-5.2,34.2-11.4,45.6-11.4c2.4,0,4.3,0.3,5.6,0.8c1.8,0.7,2.2,1.9,2.2,2.7
			C267.5,470.5,248.9,479.4,229.1,479.4z M215.7,474.4c2.4,1.4,7.1,3.3,13.5,3.3c20.4,0,36.6-9,36.6-12.5c0-0.4-0.4-0.8-1.1-1.1
			c-1.1-0.4-2.8-0.7-4.9-0.7C251,463.4,235.8,467.2,215.7,474.4z"/>
		<path class="st43" d="M234.9,422.9c0-2-0.4-3.6-0.9-3.6c-0.5,0-0.9,1.6-0.9,3.6c0,2,0.4,3.6,0.9,3.6
			C234.5,426.6,234.9,424.9,234.9,422.9z"/>
		<path class="st79" d="M348.4,330.7c0.3,2.3-8.7,5.1-20.1,6.4c-11.3,1.3-20.7,0.5-21-1.8c-0.3-2.3,8.7-5.1,20.1-6.4
			C338.7,327.6,348.1,328.4,348.4,330.7z"/>
		<path class="st80" d="M317,331.1l1.1,2.5l5.5,0.9l6.1-1.5l7.4-0.3l-2.7,2.7c0,0,8.2-1.1,10.3-2.8c2.2-1.7,1.1-2.2,1.1-2.2l-4,0.1
			l-2.7-1.4c0,0-3.3-0.1-3.6,0c-0.3,0.1-4.5,1.4-4.5,1.4l-0.1-1.1L317,331.1z"/>
		<path class="st80" d="M313.8,334l2.4,3c0,0-8.2,0.1-8-1.9c0.1-1.2,3-2.7,3-2.7l5.7-1.6C317.4,331.7,313.8,334,313.8,334z"/>
		<path class="st4" d="M379.2,389.3c-1.3-0.9-3-0.9-4.4-0.2l-21.5,11.1c-0.8,0.4-1.4,1.3-1.4,2.2c0,0.9,0.4,1.8,1.2,2.3l33.5,21.6
			c1.9,1.2,5.8,1.6,7.8,0.5l19.3-10.8c0.8-0.4,1.3-1.3,1.3-2.2c0-0.9-0.4-1.7-1.2-2.2L379.2,389.3z"/>
		<path class="st81" d="M382.5,388.8c-1.2-0.7-2.7-0.8-4-0.2l-21.5,9.8c-0.8,0.4-1,2.6-1.1,3.5c0,0.9,0.4,1.8,1.2,2.3l32.9,21.5
			c1.8,1.2,4.2,1.3,6.2,0.3l20.2-10.4c0.8-0.4,1.6-1.8,1.6-2.7c0-0.9,0.3-2.1-0.5-2.6L382.5,388.8z"/>
		<path class="st82" d="M382.9,386.9c-1.3-0.8-3-0.9-4.3-0.2l-21,10.9c-0.8,0.4-1.3,1.2-1.4,2.2c0,0.9,0.4,1.8,1.2,2.3l32.9,21.5
			c1.8,1.2,4.2,1.3,6.2,0.3l20.2-10.4c0.8-0.4,1.3-1.2,1.4-2.1c0-0.9-0.4-1.8-1.1-2.3L382.9,386.9z"/>
		<path class="st83" d="M389.3,418.8c0.8,0.5,1.9,0.6,2.8,0.1l17.4-9.3c0.3-0.2,0.6-0.5,0.6-0.9c0-0.4-0.2-0.7-0.5-1l-27.9-18.9
			c-0.6-0.4-1.5-0.5-2.2-0.1l-19.1,9.6c-0.3,0.1-0.5,0.4-0.5,0.8c0,0.3,0.1,0.6,0.4,0.8L389.3,418.8z"/>
		<g>
			<polygon class="st55" points="382.6,390.4 377.6,410.3 384.6,414.9 389.6,395.2 			"/>
			<path class="st55" d="M390.7,395.9l-5,19.7l3.4,2.2c0.1,0.1,0.3,0.1,0.4,0.2l4.9-19.5L390.7,395.9z"/>
		</g>
		<path class="st4" d="M407.2,416.1c0-1-1.4-1.9-3.2-1.9c-1.8,0-3.2,0.8-3.2,1.9c0,1,1.4,1.9,3.2,1.9
			C405.8,418,407.2,417.2,407.2,416.1z"/>
		<path class="st83" d="M371.8,391.3c-0.1,0-0.2-0.1-0.3-0.1c-0.1,0-0.2,0-0.3,0.1l-3.8,2c-0.1,0.1-0.1,0.2,0,0.3l0.1,0.1
			c0.1,0.1,0.2,0.1,0.3,0.1c0.1,0,0.2,0,0.3-0.1l3.8-2c0.1-0.1,0.1-0.2,0-0.2L371.8,391.3z"/>
		<path class="st82" d="M406.7,416.1c0-0.9-1.2-1.6-2.6-1.6c-1.5,0-2.6,0.7-2.6,1.6c0,0.9,1.2,1.5,2.6,1.5
			C405.5,417.7,406.7,417,406.7,416.1z"/>
		<polygon class="st5" points="233.2,425.3 229.8,433.8 232.5,432.7 234.6,426.1 		"/>
	</g>
	<path class="st4" d="M341.4,438.3l-5.3-5.3c-1.1-1.1-2.7-1.7-4.3-1.5l-57.8,6.6c-1.2,0.1-2.3,0.8-2.9,1.7c-0.4,0.6-0.6,1.2-0.6,1.9
		L258,444l0.3,2.4l13-1l0.3,0.8c0.5,1.4,2,2.3,3.5,2l49.8-8.1c0.6-0.1,1.3,0.2,1.6,0.7l0.5,0.8c0.4,0.6,0.2,1.4-0.5,1.8l-46.4,31.3
		c-2,1.3-2.6,3.8-1.5,5.9l0.4,0.7l-13.1,12.8l1.3,1.4l15.3-8.3c0.8,0.8,1.9,1.4,3.1,1.6c1.8,0.3,3.6-0.2,4.9-1.3l50.8-43.3
		c0.9-0.8,1.4-1.8,1.5-3C342.7,440.3,342.3,439.2,341.4,438.3z"/>
	<polygon class="st4" points="341.7,434.9 345,438.7 356.9,434.2 357.7,427.9 352.4,428.8 	"/>
	
		<linearGradient id="SVGID_00000081618446186446818020000012811003237877617800_" gradientUnits="userSpaceOnUse" x1="334.6895" y1="456.4922" x2="214.2803" y2="465.1156">
		<stop  offset="0" style="stop-color:#7FA6C9"/>
		<stop  offset="0.9892" style="stop-color:#4E9381"/>
	</linearGradient>
	<path style="fill:url(#SVGID_00000081618446186446818020000012811003237877617800_);" d="M280.6,439.4c-0.4-1.2-0.2-2.4,0.5-3.4
		c0.7-1,1.7-1.7,2.9-1.8l57.8-7c1.6-0.2,3.2,0.4,4.3,1.6l5.3,5.7c0.8,0.9,1.3,2.1,1.2,3.3c-0.1,1.2-0.6,2.4-1.5,3.2l-50.8,45.9
		c-1.3,1.2-3.1,1.7-4.9,1.4c-1.8-0.3-3.3-1.5-4.1-3.1l-2.8-5.7c-1.1-2.2-0.4-4.8,1.5-6.2l46.4-33.2c0.6-0.4,0.8-1.3,0.5-1.9
		l-0.5-0.9c-0.3-0.6-0.9-0.9-1.6-0.8l-49.8,8.6c-1.5,0.3-3.1-0.6-3.5-2.1L280.6,439.4z"/>
	<polygon class="st38" points="289.1,480 275.9,493.6 277.2,495.1 292.8,486.2 	"/>
	
		<radialGradient id="SVGID_00000106825932499664674660000003609652476201999018_" cx="275.0874" cy="440.3081" r="5.2871" gradientUnits="userSpaceOnUse">
		<stop  offset="0" style="stop-color:#A0828D"/>
		<stop  offset="1" style="stop-color:#BCAAB0"/>
	</radialGradient>
	<polygon style="fill:url(#SVGID_00000106825932499664674660000003609652476201999018_);" points="282.1,441.7 268.4,442.9 
		268.1,440.3 281.2,437.8 	"/>
	<polygon class="st83" points="348.9,429.3 352.2,433.1 364,428.7 364.8,422.3 359.6,423.2 	"/>
	<g>
		<path class="st5" d="M291.1,475.6l50-35.6l-6.4-7.5l-49.9,12.4c0.2,0,0.3,0,0.5,0l49.8-8.6c0.6-0.1,1.3,0.2,1.6,0.8l0.5,0.9
			c0.4,0.7,0.2,1.5-0.5,1.9l-46.4,33.2c-2,1.4-2.6,4.1-1.5,6.2l2.8,5.7c0.8,1.6,2.3,2.7,4.1,3.1c0.1,0,0.2,0,0.3,0l-3.4-5.6
			L291.1,475.6z"/>
	</g>
	<path class="st83" d="M347.1,434.5c0,1.7-2,3.1-4.5,3.1c-2.5,0-4.5-1.4-4.5-3.1c0-1.7,2-3.1,4.5-3.1
		C345.1,431.4,347.1,432.8,347.1,434.5z"/>
	<polygon class="st86" points="353.7,431.6 362.2,428.4 362.8,423.8 361.4,424.1 352.3,429.9 	"/>
	<path class="st1" d="M456.5,203.3l-2.1-5.9l-27.8-6.1l-0.3,1.2l27.1,6l1.9,5.5l-30.3-5.1l-2.4-7.9l-45.5,41.2l-0.4,0.3l2.1,4.3
		l1.1-0.6l-1.7-3.4l43.6-39.6l2.1,6.8l29.7,5l-9.5,6l-16-1.5l-1.7-5.6l-1.2,0.4l1.5,5.1l-10.9-1l-48.8,40.8l2,7.1l1.2-0.4l-1.8-6.3
		l47.7-39.9l25.4,3l-79.9,50.6l3.9,10.8l89.2-9.8l39-84.5L456.5,203.3z M454.2,262.9l-87.2,9.6l-3.7-8.7l84.9-53.7l9.4-5.8l-0.3,0
		L491,183L454.2,262.9z"/>
	
		<linearGradient id="SVGID_00000003794582359584865380000001662202807950190213_" gradientUnits="userSpaceOnUse" x1="346.4705" y1="434.479" x2="352.3094" y2="434.479">
		<stop  offset="0" style="stop-color:#7FA6C9"/>
		<stop  offset="0.9892" style="stop-color:#4E9381"/>
	</linearGradient>
	<path style="fill:url(#SVGID_00000003794582359584865380000001662202807950190213_);" d="M345.6,434.5c0,1.1-1.3,2-2.9,2
		s-2.9-0.9-2.9-2c0-1.1,1.3-2,2.9-2S345.6,433.4,345.6,434.5z"/>
	<g>
		<path class="st1" d="M343.3,157.4c-5.1-2.7-11.4-0.8-14.1,4.3c-2.7,5.1-0.8,11.4,4.3,14.1c5.1,2.7,11.4,0.8,14.1-4.3
			C350.3,166.4,348.3,160.1,343.3,157.4z M333.9,174.9c-4.6-2.4-6.4-8.2-3.9-12.8c2.4-4.6,8.2-6.4,12.8-3.9
			c4.6,2.4,6.4,8.2,3.9,12.8C344.3,175.6,338.5,177.4,333.9,174.9z"/>
		<path class="st1" d="M364.2,196c0.2-1-0.1-2-0.7-2.9l-9.6-12.8c-0.4-0.5-1-0.9-1.6-0.9c-0.5-0.1-1.1,0.1-1.5,0.4l-3.1-4.3
			c0.8-0.8,1.5-1.7,2-2.8c3.3-6.2,0.9-14-5.3-17.3c-6.3-3.3-14-0.9-17.3,5.3c-3.3,6.2-0.9,14,5.3,17.3c4,2.1,8.6,1.9,12.3-0.2
			l-0.1,0.1l2.5,5c-0.5,0.6-0.6,1.6-0.1,2.3l8.9,12.7c0.4,0.6,0.9,1,1.5,1.4c1.5,0.8,3.2,0.7,4.6-0.2l0.6-0.4
			C363.5,197.9,364.1,197,364.2,196z M332.8,177.1c-5.8-3.1-8-10.3-4.9-16.1c3.1-5.8,10.3-8,16.1-4.9c5.8,3.1,8,10.3,4.9,16.1
			C345.8,178,338.6,180.2,332.8,177.1z M347.2,176.2l2.9,4.1l-2.3,1.9l-2.1-4.2L347.2,176.2z M362.1,197.7l-0.6,0.4
			c-1.1,0.7-2.5,0.8-3.7,0.2c-0.5-0.3-0.9-0.6-1.2-1.1l-8.9-12.7c-0.3-0.4-0.2-1,0.2-1.3l2.2-1.8l1-0.8c0.3-0.3,0.7-0.4,1.1-0.3
			c0.2,0,0.4,0.1,0.5,0.2c0.2,0.1,0.4,0.2,0.5,0.4l9.6,12.8c0.5,0.6,0.7,1.4,0.5,2.2C363.2,196.6,362.8,197.3,362.1,197.7z"/>
	</g>
	<path class="st1" d="M115.2,271.4l2,7.5l-6,2.1l4.2,13.4l-3,0.8L108,282l-3.5,1.2l-8-1.3l2.7-7.5L115.2,271.4z M113,294l1.4-0.4
		l-3.8-12.1l-1.6,0.5L113,294z M97.7,281.3l6.6,1l11.9-4.1l-1.6-5.8l-14.7,2.8L97.7,281.3z"/>
	<polygon class="st88" points="346.8,438.9 297.4,477 298.3,483.6 347.3,440.8 	"/>
	<polygon class="st88" points="333.5,432.3 288.2,442.5 285.3,436.5 334.2,429.8 	"/>
</g>
</svg>
