<?xml version="1.0" encoding="utf-8"?>
<!-- Generator: Adobe Illustrator 26.2.1, SVG Export Plug-In . SVG Version: 6.00 Build 0)  -->
<svg version="1.1" xmlns="http://www.w3.org/2000/svg" xmlns:xlink="http://www.w3.org/1999/xlink" x="0px" y="0px"
	 viewBox="0 0 500 500" style="enable-background:new 0 0 500 500;" xml:space="preserve">
<style type="text/css">
	.st0{display:none;}
	.st1{display:inline;fill:#45BEB5;}
	.st2{fill:#FFFFFF;}
	.st3{fill:#3689BB;}
	.st4{fill:#E4EBED;}
	.st5{fill:#26769E;}
	.st6{fill:#54AAD6;}
	.st7{fill:#D1DDE0;}
	.st8{fill:#641F22;}
	.st9{fill:#485685;}
	.st10{fill:#FDDC57;}
	.st11{fill:#453248;}
	.st12{fill:#FFFFFD;}
	.st13{fill:#FABB8F;}
	.st14{fill:#FBA278;}
	.st15{fill:#C4462F;}
	.st16{fill:#6F6389;}
	.st17{fill:#504768;}
	.st18{fill:#D2CFE2;}
	.st19{fill:#A69FBF;}
	.st20{fill:none;stroke:#FBA278;stroke-width:10;stroke-miterlimit:10;}
	.st21{fill:#FF950B;}
	.st22{fill:#FFAF50;}
	.st23{fill:#E84564;}
	.st24{fill:#FF7697;}
</style>
<g id="BACKGROUND" class="st0">
	<rect id="XMLID_1_" class="st1" width="500" height="500"/>
</g>
<g id="OBJECTS">
	<g id="XMLID_818_">
		<g id="XMLID_765_">
			<path id="XMLID_995_" class="st2" d="M243.1,382.3c-1.7,4.8-2.2,10-0.6,14.8c1.6,4.8,5.5,8.9,10.5,9.9c4.9,1,10.6-1.7,12.2-6.4
				c-0.2,2.8,2.2,4.5,5,4.8c2.8,0.3,5.7-1.8,6.2-4.5c2.1,9,10.8,15.3,19.6,18.1s19,0.5,25.9-5.7c7.7-7,10.6-17.8,12.7-28
				c3.1,3.6,8.5,5,12.8,2.9c4.3-2.1,6.8-7.3,5.8-12c4.6-2.7,7.3-10,6.5-15.3c-0.8-5.3-4-10-7.8-13.8c-11.3-11.1-28.1-15.1-43.9-13.7
				c-15.7,1.4-30.7,7.7-44.7,15"/>
		</g>
		<g id="XMLID_750_">
			<path id="XMLID_993_" class="st2" d="M159.6,298.4c-7.4-3.6-15.8-5.5-23.9-4.3c-8.2,1.1-16,5.4-20.7,12.2
				c-4.7,6.8-5.8,16.1-2.2,23.5c-3.1-1.3-6.9,0.5-9.6,2.5c-2.7,2-4.1,5.5-3.7,8.8c-0.9-7.9-10.5-15.6-18.2-17.3
				c-7.8-1.6-16.1,1.3-21.9,6.8c-5.8,5.4-9.2,13.1-10.3,21c-1.3,8.5,0,17.6,4.9,24.6c4.9,7,13.9,11.4,22.3,9.5
				c-3.5,5.4-6.1,13.5-2.9,19.1c3.2,5.6,9.6,9.2,16,8.9c6.4-0.3,12.6-4.3,15.3-10.2c3.7,6.8,10.6,10.8,18.3,12.1
				c7.7,1.3,15.9-1,21.6-6.2c7.9,18.8,30.7,29.6,50.5,24.8s34.7-25.1,33.3-45.4"/>
		</g>
		<g id="XMLID_180_">
			<g id="XMLID_541_">
				<path id="XMLID_992_" class="st3" d="M149.2,350.7c-6.9-9-7.4-17-5.2-21.9c6.4-14.2,52.3-10.6,137.6,11
					c20.2,5.5,40.4,7.9,60.6,13.4l-129.7,49.1L149.2,350.7z"/>
			</g>
			<g id="XMLID_540_">
				<path id="XMLID_990_" class="st2" d="M155.7,323.8c0,0-8.9,14,4.9,25.5c13.7,11.5,51.1,41,51.1,41L328.3,349
					c0,0-4.9-7.9-0.3-14.4L155.7,323.8z"/>
			</g>
			<g id="XMLID_539_">
				<path id="XMLID_988_" class="st4" d="M328,334.6l-172.3-10.8c0,0-2.4,3.9-2.8,9.2l57.5,48.9L326,340.4
					C326.1,338.5,326.6,336.5,328,334.6z"/>
			</g>
			<g id="XMLID_538_">
				<polygon id="XMLID_986_" class="st5" points="342.2,353.1 342.3,355.8 211.8,406.1 211.9,402.2 				"/>
			</g>
			<g id="XMLID_537_">
				<polygon id="XMLID_985_" class="st6" points="211.8,406.1 212.5,402.2 151.1,349.5 151.2,354.5 				"/>
			</g>
			<g id="XMLID_534_">
				<polygon id="XMLID_984_" class="st3" points="150.5,316.8 281,307.1 341.8,329.6 211.8,369.5 				"/>
			</g>
			<g id="XMLID_533_">
				<polygon id="XMLID_982_" class="st5" points="341.8,329.6 341.8,332.3 211.4,376.6 211.3,369.5 				"/>
			</g>
			<g id="XMLID_493_">
				<polygon id="XMLID_979_" class="st6" points="211.4,376.6 211.8,369.5 150.5,316.8 150.6,321.8 				"/>
			</g>
			<g id="XMLID_212_">
				<path id="XMLID_978_" class="st6" d="M151.1,349.5c-6-5.7-6.6-13.1-6.3-18.6c0.3-5.4,6.1-8.8,11.6-3.8l1.3-4.1l-7.2-6.2
					c0,0-8.1,0-10.2,12.4c-2.2,12.4,5.1,20.1,11,25.3S151.1,349.5,151.1,349.5z"/>
			</g>
		</g>
		<g id="XMLID_178_">
			<g id="XMLID_172_">
				<path id="XMLID_977_" class="st3" d="M155.5,306.3c-6.7-9.1-7.1-17.2-4.8-22c6.7-14.1,52.5-9.6,137.4,13.6
					c20.1,5.9,40.1,15,60.2,20.8l-130.5,40.3L155.5,306.3z"/>
			</g>
			<g id="XMLID_177_">
				<path id="XMLID_975_" class="st2" d="M162.4,279.6c0,0-9.1,13.8,4.4,25.6c13.5,11.7,50.3,41.9,50.3,41.9l117.3-32.7
					c0,0-4.8-8,0-14.4L162.4,279.6z"/>
			</g>
			<g id="XMLID_536_">
				<path id="XMLID_973_" class="st4" d="M334.4,300l-172-20.4c0,0-2.5,3.8-2.9,9.2l56.5,50l116.3-33
					C332.4,303.8,333,301.8,334.4,300z"/>
			</g>
			<g id="XMLID_120_">
				<polygon id="XMLID_972_" class="st5" points="348.3,318.8 348.3,321.4 217,362.9 217.2,359.1 				"/>
			</g>
			<g id="XMLID_118_">
				<polygon id="XMLID_966_" class="st6" points="217,362.9 217.7,359.1 157.4,305.2 157.4,310.2 				"/>
			</g>
			<g id="XMLID_65_">
				<polygon id="XMLID_965_" class="st3" points="157.4,272.5 288.1,265.2 348.3,295.3 217.7,326.4 				"/>
			</g>
			<g id="XMLID_80_">
				<polygon id="XMLID_964_" class="st5" points="348.3,295.3 348.3,297.9 217.2,333.5 217.2,326.4 				"/>
			</g>
			<g id="XMLID_84_">
				<polygon id="XMLID_962_" class="st6" points="217.2,333.5 217.7,326.4 157.4,272.5 157.4,277.5 				"/>
			</g>
			<g id="XMLID_117_">
				<path id="XMLID_956_" class="st6" d="M157.4,305.2c-5.9-5.9-6.3-13.3-5.9-18.7c0.4-5.4,6.2-8.7,11.7-3.6l1.4-4.1l-7.1-6.4
					c0,0-8.1-0.1-10.5,12.2c-2.4,12.3,4.8,20.2,10.5,25.5C163.1,315.5,157.4,305.2,157.4,305.2z"/>
			</g>
		</g>
		<g id="XMLID_610_">
			<g id="XMLID_61_">
				<g id="XMLID_83_">
					<g id="XMLID_89_">
						<polygon id="XMLID_909_" class="st4" points="406.5,177 403.6,183.2 398.7,178.4 408.9,221.8 411.4,227 412.3,220.6 						"/>
					</g>
					<g id="XMLID_79_">
						<polygon id="XMLID_908_" class="st7" points="408.9,221.8 411.4,227 403.6,183.2 398.7,178.4 						"/>
					</g>
					<g id="XMLID_76_">
						<polygon id="XMLID_907_" class="st2" points="411.4,227 406.5,177 422,174.2 						"/>
					</g>
					<g id="XMLID_66_">
						<polygon id="XMLID_906_" class="st2" points="411.4,227 398.7,178.4 384.2,181.3 						"/>
					</g>
				</g>
			</g>
			<g id="XMLID_542_">
				<g id="XMLID_543_">
					<g id="XMLID_548_">
						<polygon id="XMLID_905_" class="st4" points="102.6,138.7 106.7,137.9 106.2,142.1 124,121 125.6,117.9 122.1,119.8 						"/>
					</g>
					<g id="XMLID_547_">
						<polygon id="XMLID_904_" class="st7" points="124,121 125.6,117.9 106.7,137.9 106.2,142.1 						"/>
					</g>
					<g id="XMLID_545_">
						<polygon id="XMLID_903_" class="st2" points="125.6,117.9 102.6,138.7 95.5,132 						"/>
					</g>
					<g id="XMLID_544_">
						<polygon id="XMLID_902_" class="st2" points="125.6,117.9 106.2,142.1 112.9,148.2 						"/>
					</g>
				</g>
			</g>
			<g id="XMLID_557_">
				<g id="XMLID_698_">
					<g id="XMLID_748_">
						<path id="XMLID_901_" class="st2" d="M83.8,211.7c-0.4,0-0.8-0.3-0.9-0.7c-0.1-0.5-0.3-0.9-0.4-1.4c-0.1-0.5,0.2-1,0.7-1.2
							c0.5-0.1,1,0.2,1.2,0.7c0.1,0.4,0.2,0.9,0.4,1.3c0.1,0.5-0.1,1-0.6,1.2C84,211.7,83.9,211.7,83.8,211.7z"/>
					</g>
				</g>
				<g id="XMLID_697_">
					<g id="XMLID_730_">
						<path id="XMLID_1402_" class="st2" d="M82.8,207.7c-0.4,0-0.8-0.3-0.9-0.7c-0.2-0.9-0.4-1.8-0.5-2.7c-0.1-0.5,0.2-1,0.8-1.1
							c0.5-0.1,1,0.2,1.1,0.8c0.2,0.9,0.3,1.8,0.5,2.6c0.1,0.5-0.2,1-0.7,1.1C82.9,207.6,82.9,207.7,82.8,207.7z M81.8,202.3
							c-0.5,0-0.9-0.3-0.9-0.8c-0.1-0.9-0.2-1.8-0.3-2.7c-0.1-0.5,0.3-1,0.8-1c0.5-0.1,1,0.3,1,0.8c0.1,0.9,0.2,1.8,0.3,2.7
							c0.1,0.5-0.3,1-0.8,1.1C81.9,202.3,81.9,202.3,81.8,202.3z M81.3,196.9c-0.5,0-0.9-0.4-0.9-0.9c-0.1-0.9-0.1-1.8-0.1-2.8
							c0-0.5,0.4-0.9,0.9-1c0.5,0,0.9,0.4,1,0.9c0,0.9,0.1,1.8,0.1,2.7C82.3,196.4,81.9,196.8,81.3,196.9
							C81.3,196.9,81.3,196.9,81.3,196.9z M81.2,191.4C81.2,191.4,81.2,191.4,81.2,191.4c-0.5,0-1-0.4-0.9-1c0-0.9,0.1-1.8,0.1-2.8
							c0-0.5,0.5-0.9,1-0.9c0.5,0,0.9,0.5,0.9,1c-0.1,0.9-0.1,1.8-0.1,2.7C82.1,191,81.7,191.4,81.2,191.4z M81.5,186
							C81.5,186,81.5,186,81.5,186c-0.6-0.1-1-0.5-0.9-1c0.1-0.9,0.2-1.8,0.3-2.7c0.1-0.5,0.5-0.9,1.1-0.8c0.5,0.1,0.9,0.5,0.8,1.1
							c-0.1,0.9-0.2,1.8-0.3,2.7C82.4,185.6,82,186,81.5,186z M82.3,180.5c-0.1,0-0.1,0-0.2,0c-0.5-0.1-0.9-0.6-0.8-1.1
							c0.2-0.9,0.3-1.8,0.5-2.7c0.1-0.5,0.6-0.8,1.1-0.7c0.5,0.1,0.8,0.6,0.7,1.1c-0.2,0.9-0.4,1.8-0.5,2.6
							C83.1,180.2,82.7,180.5,82.3,180.5z M83.4,175.2c-0.1,0-0.2,0-0.2,0c-0.5-0.1-0.8-0.6-0.7-1.1c0.2-0.9,0.5-1.8,0.7-2.7
							c0.1-0.5,0.7-0.8,1.2-0.6c0.5,0.1,0.8,0.7,0.6,1.2c-0.3,0.9-0.5,1.7-0.7,2.6C84.2,174.9,83.8,175.2,83.4,175.2z M84.9,170
							c-0.1,0-0.2,0-0.3,0c-0.5-0.2-0.8-0.7-0.6-1.2c0.3-0.9,0.6-1.7,0.9-2.6c0.2-0.5,0.7-0.7,1.2-0.5c0.5,0.2,0.7,0.7,0.5,1.2
							c-0.3,0.8-0.6,1.7-0.9,2.5C85.7,169.7,85.3,170,84.9,170z M86.9,164.9c-0.1,0-0.2,0-0.4-0.1c-0.5-0.2-0.7-0.8-0.5-1.2
							c0.4-0.8,0.7-1.7,1.1-2.5c0.2-0.5,0.8-0.7,1.3-0.4c0.5,0.2,0.7,0.8,0.4,1.3c-0.4,0.8-0.7,1.6-1.1,2.5
							C87.6,164.7,87.2,164.9,86.9,164.9z M89.2,159.9c-0.1,0-0.3,0-0.4-0.1c-0.5-0.2-0.6-0.8-0.4-1.3c0.4-0.8,0.9-1.6,1.3-2.4
							c0.3-0.5,0.8-0.6,1.3-0.3c0.5,0.3,0.6,0.8,0.3,1.3c-0.4,0.8-0.9,1.6-1.3,2.4C89.9,159.8,89.5,159.9,89.2,159.9z M91.9,155.2
							c-0.2,0-0.3,0-0.5-0.1c-0.4-0.3-0.6-0.9-0.3-1.3c0.5-0.8,1-1.6,1.5-2.3c0.3-0.4,0.9-0.5,1.3-0.2c0.4,0.3,0.5,0.9,0.2,1.3
							c-0.5,0.7-1,1.5-1.5,2.2C92.5,155.1,92.2,155.2,91.9,155.2z"/>
					</g>
				</g>
				<g id="XMLID_695_">
					<g id="XMLID_728_">
						<path id="XMLID_900_" class="st2" d="M95,150.7c-0.2,0-0.4-0.1-0.6-0.2c-0.4-0.3-0.5-0.9-0.2-1.3c0.3-0.4,0.6-0.8,0.9-1.1
							c0.3-0.4,0.9-0.5,1.3-0.2c0.4,0.3,0.5,0.9,0.2,1.3c-0.3,0.4-0.6,0.7-0.8,1.1C95.6,150.6,95.3,150.7,95,150.7z"/>
					</g>
				</g>
			</g>
			<g id="XMLID_596_">
				<g id="XMLID_611_">
					<path id="XMLID_1372_" class="st2" d="M400.7,166.1c-0.4,0-0.8-0.3-0.9-0.8l-0.1-0.3c-0.1-0.5,0.2-1,0.8-1.1
						c0.5-0.1,1,0.2,1.1,0.8l0.1,0.3c0.1,0.5-0.2,1-0.8,1.1C400.8,166.1,400.7,166.1,400.7,166.1z M400,163c-0.4,0-0.8-0.3-0.9-0.7
						c-0.2-0.9-0.4-1.8-0.7-2.7c-0.1-0.5,0.2-1,0.7-1.2c0.5-0.1,1,0.2,1.2,0.7c0.3,0.9,0.5,1.8,0.7,2.8c0.1,0.5-0.2,1-0.7,1.1
						C400.2,163,400.1,163,400,163z M398.5,157.6c-0.4,0-0.8-0.3-0.9-0.6c-0.3-0.9-0.6-1.8-0.9-2.6c-0.2-0.5,0.1-1,0.6-1.2
						c0.5-0.2,1,0.1,1.2,0.6c0.3,0.9,0.7,1.8,0.9,2.7c0.2,0.5-0.1,1-0.6,1.2C398.7,157.6,398.6,157.6,398.5,157.6z M396.5,152.3
						c-0.4,0-0.7-0.2-0.9-0.6c-0.4-0.9-0.7-1.7-1.1-2.5c-0.2-0.5,0-1,0.5-1.3c0.5-0.2,1,0,1.3,0.5c0.4,0.9,0.8,1.7,1.2,2.6
						c0.2,0.5,0,1-0.5,1.2C396.8,152.3,396.6,152.3,396.5,152.3z M394.1,147.2c-0.3,0-0.7-0.2-0.8-0.5c-0.4-0.8-0.9-1.6-1.3-2.4
						c-0.3-0.5-0.1-1,0.3-1.3c0.4-0.3,1-0.1,1.3,0.3c0.5,0.8,0.9,1.7,1.4,2.5c0.2,0.5,0.1,1-0.4,1.3
						C394.4,147.2,394.3,147.2,394.1,147.2z M391.3,142.3c-0.3,0-0.6-0.2-0.8-0.4c-0.5-0.8-1-1.6-1.5-2.3c-0.3-0.4-0.2-1,0.2-1.3
						c0.4-0.3,1-0.2,1.3,0.2c0.5,0.8,1.1,1.6,1.6,2.4c0.3,0.4,0.1,1-0.3,1.3C391.7,142.3,391.5,142.3,391.3,142.3z M388.1,137.7
						c-0.3,0-0.6-0.1-0.8-0.4c-0.6-0.7-1.1-1.5-1.7-2.2c-0.3-0.4-0.3-1,0.1-1.3c0.4-0.3,1-0.3,1.3,0.1c0.6,0.7,1.2,1.5,1.8,2.3
						c0.3,0.4,0.2,1-0.2,1.3C388.5,137.6,388.3,137.7,388.1,137.7z M384.6,133.3c-0.3,0-0.5-0.1-0.7-0.3c-0.6-0.7-1.2-1.4-1.9-2.1
						c-0.4-0.4-0.3-1,0-1.3c0.4-0.4,1-0.3,1.3,0c0.7,0.7,1.3,1.4,1.9,2.1c0.3,0.4,0.3,1-0.1,1.3C385,133.2,384.8,133.3,384.6,133.3z
						 M380.7,129.2c-0.2,0-0.5-0.1-0.7-0.3c-0.7-0.6-1.3-1.3-2-1.9c-0.4-0.3-0.4-0.9-0.1-1.3c0.3-0.4,0.9-0.4,1.3-0.1
						c0.7,0.6,1.4,1.3,2.1,2c0.4,0.4,0.4,1,0,1.3C381.2,129.1,380.9,129.2,380.7,129.2z M376.5,125.4c-0.2,0-0.4-0.1-0.6-0.2
						c-0.7-0.6-1.4-1.2-2.2-1.7c-0.4-0.3-0.5-0.9-0.2-1.3c0.3-0.4,0.9-0.5,1.3-0.2c0.8,0.6,1.5,1.2,2.2,1.8c0.4,0.3,0.5,0.9,0.1,1.3
						C377,125.3,376.8,125.4,376.5,125.4z M372,122c-0.2,0-0.4-0.1-0.5-0.2c-0.8-0.5-1.5-1-2.3-1.5c-0.4-0.3-0.6-0.9-0.3-1.3
						c0.3-0.4,0.9-0.6,1.3-0.3c0.8,0.5,1.6,1,2.4,1.6c0.4,0.3,0.5,0.9,0.2,1.3C372.6,121.9,372.3,122,372,122z M367.2,119
						c-0.2,0-0.3,0-0.5-0.1c-0.8-0.4-1.5-0.9-2.3-1.3l-0.1-0.1c-0.5-0.2-0.6-0.8-0.4-1.3c0.2-0.5,0.8-0.6,1.3-0.4l0.1,0.1
						c0.8,0.4,1.6,0.9,2.4,1.3c0.5,0.3,0.6,0.8,0.3,1.3C367.9,118.8,367.6,119,367.2,119z M362.2,116.4c-0.1,0-0.3,0-0.4-0.1
						c-0.8-0.4-1.7-0.8-2.5-1.1c-0.5-0.2-0.7-0.7-0.5-1.2c0.2-0.5,0.7-0.7,1.2-0.5c0.9,0.4,1.8,0.7,2.6,1.2c0.5,0.2,0.7,0.8,0.5,1.2
						C362.9,116.2,362.6,116.4,362.2,116.4z M304.7,116c-0.4,0-0.7-0.2-0.9-0.6c-0.2-0.5,0-1,0.5-1.2c0.9-0.4,1.7-0.8,2.6-1.1
						c0.5-0.2,1,0,1.2,0.5c0.2,0.5,0,1-0.5,1.2c-0.9,0.3-1.7,0.7-2.6,1.1C305,116,304.9,116,304.7,116z M357,114.2
						c-0.1,0-0.2,0-0.3-0.1c-0.9-0.3-1.7-0.6-2.6-0.9c-0.5-0.2-0.8-0.7-0.6-1.2c0.2-0.5,0.7-0.8,1.2-0.6c0.9,0.3,1.8,0.6,2.7,0.9
						c0.5,0.2,0.7,0.7,0.6,1.2C357.8,114,357.4,114.2,357,114.2z M310,113.9c-0.4,0-0.8-0.2-0.9-0.6c-0.2-0.5,0.1-1,0.6-1.2
						c0.9-0.3,1.8-0.6,2.7-0.9c0.5-0.2,1,0.1,1.2,0.6c0.2,0.5-0.1,1-0.6,1.2c-0.9,0.3-1.8,0.6-2.6,0.9
						C310.2,113.9,310.1,113.9,310,113.9z M351.6,112.5c-0.1,0-0.2,0-0.2,0c-0.9-0.2-1.8-0.5-2.7-0.7c-0.5-0.1-0.8-0.6-0.7-1.1
						c0.1-0.5,0.6-0.8,1.1-0.7c0.9,0.2,1.9,0.4,2.8,0.7c0.5,0.1,0.8,0.7,0.7,1.2C352.4,112.2,352.1,112.5,351.6,112.5z M315.4,112.3
						c-0.4,0-0.8-0.3-0.9-0.7c-0.1-0.5,0.2-1,0.7-1.1c0.9-0.2,1.9-0.5,2.8-0.7c0.5-0.1,1,0.2,1.1,0.7c0.1,0.5-0.2,1-0.7,1.1
						c-0.9,0.2-1.8,0.4-2.7,0.6C315.5,112.3,315.4,112.3,315.4,112.3z M346.1,111.2c-0.1,0-0.1,0-0.2,0c-0.9-0.2-1.8-0.3-2.7-0.5
						c-0.5-0.1-0.9-0.6-0.8-1.1c0.1-0.5,0.5-0.9,1.1-0.8c0.9,0.1,1.9,0.3,2.8,0.5c0.5,0.1,0.8,0.6,0.8,1.1
						C347,110.9,346.6,111.2,346.1,111.2z M320.9,111.1c-0.4,0-0.8-0.3-0.9-0.8c-0.1-0.5,0.3-1,0.8-1.1c0.9-0.2,1.9-0.3,2.8-0.4
						c0.5-0.1,1,0.3,1.1,0.8c0.1,0.5-0.3,1-0.8,1.1c-0.9,0.1-1.8,0.3-2.7,0.4C321,111.1,320.9,111.1,320.9,111.1z M340.6,110.4
						c0,0-0.1,0-0.1,0c-0.9-0.1-1.8-0.2-2.8-0.2c-0.5,0-0.9-0.5-0.9-1c0-0.5,0.5-0.9,1-0.9c1,0.1,1.9,0.1,2.8,0.2
						c0.5,0.1,0.9,0.5,0.8,1C341.4,110.1,341,110.4,340.6,110.4z M326.5,110.3c-0.5,0-0.9-0.4-0.9-0.9c0-0.5,0.3-1,0.8-1
						c0.9-0.1,1.9-0.2,2.9-0.2c0.5,0,1,0.4,1,0.9c0,0.5-0.4,1-0.9,1C328.4,110.2,327.5,110.2,326.5,110.3
						C326.5,110.3,326.5,110.3,326.5,110.3z M334.9,110C334.9,110,334.9,110,334.9,110c-1,0-1.9,0-2.8,0c0,0,0,0,0,0
						c-0.5,0-0.9-0.4-0.9-0.9c0-0.5,0.4-0.9,0.9-1c1,0,1.9,0,2.9,0c0.5,0,0.9,0.4,0.9,1C335.9,109.6,335.4,110,334.9,110z"/>
				</g>
			</g>
		</g>
		<g id="XMLID_598_">
			<g id="XMLID_606_">
				<g id="XMLID_621_">
					<g id="XMLID_630_">
						<path id="XMLID_1366_" class="st2" d="M350.7,277.4c-2.9,0-5.2-6.5-5.2-14.7c0-8.3,2.3-14.7,5.2-14.7c2.9,0,5.2,6.5,5.2,14.7
							C355.8,270.9,353.5,277.4,350.7,277.4z M350.7,248.6c-2.1,0-4.5,5.6-4.5,14c0,8.4,2.3,14,4.5,14c2.1,0,4.4-5.6,4.4-14
							C355.1,254.3,352.8,248.6,350.7,248.6z"/>
					</g>
				</g>
				<g id="XMLID_620_">
					<g id="XMLID_626_">
						<path id="XMLID_1361_" class="st2" d="M341.2,272.2c-1.2,0-2.1-0.3-2.6-1c-1.7-2.4,2.3-8,9-12.8c6.7-4.8,13.3-6.7,15-4.4
							c1.7,2.4-2.3,8-9,12.8C348.9,270.3,344.2,272.2,341.2,272.2z M360.1,253.8c-2.6,0-7,1.7-12,5.3c-6.8,4.9-10.1,10-8.8,11.8
							c1.2,1.7,7.2,0.3,14-4.5l0,0c6.8-4.9,10.1-10,8.8-11.8C361.7,254,361,253.8,360.1,253.8z"/>
					</g>
				</g>
				<g id="XMLID_619_">
					<g id="XMLID_622_">
						<path id="XMLID_1356_" class="st2" d="M360.1,272.2c-2.9,0-7.6-2-12.4-5.4l0,0c-6.7-4.8-10.7-10.4-9-12.8
							c1.7-2.4,8.3-0.4,15,4.4c6.7,4.8,10.7,10.4,9,12.8C362.1,271.9,361.3,272.2,360.1,272.2z M341.2,253.8c-1,0-1.7,0.2-2,0.7
							c-1.2,1.7,2,6.9,8.8,11.8l0,0c6.8,4.9,12.7,6.3,14,4.5c1.2-1.7-2-6.9-8.8-11.8C348.3,255.5,343.8,253.8,341.2,253.8z"/>
					</g>
				</g>
				<g id="XMLID_608_">
					<g id="XMLID_604_">
						<circle id="XMLID_899_" class="st8" cx="350.7" cy="262.7" r="2.2"/>
					</g>
				</g>
			</g>
			<g id="XMLID_651_">
				<g id="XMLID_668_">
					<g id="XMLID_669_">
						<path id="XMLID_1347_" class="st2" d="M137.9,156.2c1.3-2.6,8.1-1.7,15.5,2c7.4,3.7,12.1,8.6,10.8,11.2
							c-1.3,2.6-8.1,1.7-15.5-2C141.4,163.7,136.6,158.8,137.9,156.2z M163.6,169.1c1-1.9-3-6.5-10.5-10.3
							c-7.5-3.8-13.6-4.2-14.5-2.3c-1,1.9,3,6.5,10.5,10.3C156.6,170.6,162.7,171,163.6,169.1z"/>
					</g>
				</g>
				<g id="XMLID_662_">
					<g id="XMLID_663_">
						<path id="XMLID_1342_" class="st2" d="M146.8,150.1c0.5-1.1,1.2-1.7,2-1.8c2.9-0.4,6.1,5.6,7.4,13.7c1.3,8.2,0,14.9-2.8,15.3
							c-2.9,0.4-6.1-5.6-7.4-13.7C145.1,157.8,145.4,152.7,146.8,150.1z M154.8,175.2c1.1-2.3,1.6-7.1,0.7-13.1
							c-1.3-8.3-4.4-13.5-6.6-13.2c-2.1,0.3-3.5,6.3-2.2,14.5l0,0c1.3,8.3,4.4,13.5,6.6,13.2C153.8,176.6,154.4,176.1,154.8,175.2z"
							/>
					</g>
				</g>
				<g id="XMLID_656_">
					<g id="XMLID_657_">
						<path id="XMLID_1337_" class="st2" d="M138.3,166.9c1.3-2.6,5.2-5.9,10.4-8.7l0,0c7.3-3.8,14.1-4.9,15.4-2.3
							c1.3,2.6-3.3,7.6-10.6,11.4c-7.3,3.8-14.1,4.9-15.4,2.3C137.7,168.9,137.8,168,138.3,166.9z M163.2,158.4
							c0.4-0.9,0.5-1.6,0.3-2.1c-1-1.9-7.1-1.3-14.5,2.6l0,0c-7.4,3.9-11.3,8.6-10.3,10.5c1,1.9,7.1,1.3,14.5-2.6
							C158.6,163.9,162.1,160.7,163.2,158.4z"/>
					</g>
				</g>
				<g id="XMLID_653_">
					<g id="XMLID_654_">
						<path id="XMLID_898_" class="st8" d="M152.1,160.8c1.1,0.5,1.5,1.9,1,3s-1.9,1.5-3,1c-1.1-0.5-1.5-1.9-1-3
							C149.7,160.7,151,160.3,152.1,160.8z"/>
					</g>
				</g>
			</g>
			<g id="XMLID_599_">
				<g id="XMLID_645_">
					<g id="XMLID_647_">
						<path id="XMLID_1328_" class="st2" d="M323.3,256.9c-1.6-0.9-0.8-5,1.7-9.5c2.5-4.5,5.7-7.3,7.2-6.4c1.6,0.9,0.8,5-1.7,9.5
							C328.1,255,324.9,257.8,323.3,256.9z M332,241.4c-1.2-0.6-4.1,1.7-6.6,6.2c-2.5,4.5-3,8.3-1.8,8.9c1.2,0.6,4.1-1.7,6.6-6.2
							C332.7,245.8,333.2,242.1,332,241.4z"/>
					</g>
				</g>
				<g id="XMLID_639_">
					<g id="XMLID_641_">
						<path id="XMLID_1323_" class="st2" d="M319.8,251.3c-0.6-0.4-1-0.8-1.1-1.3c-0.2-1.8,3.6-3.6,8.7-4.2c5.1-0.6,9.2,0.4,9.4,2.2
							c0.2,1.8-3.6,3.6-8.7,4.2C324.5,252.6,321.4,252.2,319.8,251.3z M335.5,247c-1.4-0.8-4.3-1.2-8.1-0.8
							c-5.2,0.6-8.5,2.4-8.3,3.7c0.1,1.3,3.8,2.3,8.9,1.8l0,0c5.2-0.6,8.5-2.4,8.3-3.7C336.3,247.7,336,247.3,335.5,247z"/>
					</g>
				</g>
				<g id="XMLID_603_">
					<g id="XMLID_635_">
						<path id="XMLID_1318_" class="st2" d="M330,257c-1.6-0.9-3.5-3.4-5.1-6.6l0,0c-2.2-4.6-2.6-8.8-1-9.6c1.6-0.8,4.6,2.3,6.8,6.9
							c2.2,4.6,2.6,8.8,1,9.6C331.2,257.4,330.6,257.4,330,257z M325.4,241.4c-0.5-0.3-1-0.4-1.3-0.2c-1.2,0.6-1,4.3,1.2,9l0,0
							c2.2,4.7,5,7.2,6.2,6.7c1.2-0.6,1-4.3-1.2-9C328.7,244.4,326.8,242.1,325.4,241.4z"/>
					</g>
				</g>
				<g id="XMLID_600_">
					<g id="XMLID_601_">
						<path id="XMLID_897_" class="st8" d="M326.6,248.3c0.4-0.7,1.2-0.9,1.9-0.5c0.7,0.4,0.9,1.2,0.5,1.9c-0.4,0.7-1.2,0.9-1.9,0.5
							C326.5,249.8,326.2,249,326.6,248.3z"/>
					</g>
				</g>
			</g>
			<g id="XMLID_674_">
				<g id="XMLID_689_">
					<g id="XMLID_690_">
						<path id="XMLID_1309_" class="st2" d="M61.8,229.1c-1.6-0.9-0.8-5,1.7-9.5c2.5-4.5,5.7-7.3,7.2-6.4c1.6,0.9,0.8,5-1.7,9.5
							C66.6,227.1,63.4,230,61.8,229.1z M70.5,213.6c-1.2-0.6-4.1,1.7-6.6,6.2c-2.5,4.5-3,8.3-1.8,8.9c1.2,0.6,4.1-1.7,6.6-6.2
							C71.2,218,71.6,214.2,70.5,213.6z"/>
					</g>
				</g>
				<g id="XMLID_685_">
					<g id="XMLID_686_">
						<path id="XMLID_1304_" class="st2" d="M58.3,223.5c-0.6-0.4-1-0.8-1.1-1.3c-0.2-1.8,3.6-3.6,8.7-4.2c5.1-0.6,9.2,0.4,9.4,2.2
							c0.2,1.8-3.6,3.6-8.7,4.2C63,224.7,59.9,224.3,58.3,223.5z M74,219.2c-1.4-0.8-4.3-1.2-8.1-0.8c-5.2,0.6-8.5,2.4-8.3,3.7
							c0.1,1.3,3.8,2.3,8.9,1.8l0,0c5.2-0.6,8.5-2.4,8.3-3.7C74.8,219.8,74.5,219.5,74,219.2z"/>
					</g>
				</g>
				<g id="XMLID_679_">
					<g id="XMLID_681_">
						<path id="XMLID_1299_" class="st2" d="M68.5,229.1c-1.6-0.9-3.5-3.4-5.1-6.6l0,0c-2.2-4.6-2.6-8.8-1-9.6
							c1.6-0.8,4.6,2.3,6.8,6.9c2.2,4.6,2.6,8.8,1,9.6C69.7,229.6,69.1,229.5,68.5,229.1z M63.9,213.5c-0.5-0.3-1-0.4-1.3-0.2
							c-1.2,0.6-1,4.3,1.2,9l0,0c2.2,4.7,5,7.2,6.2,6.7c1.2-0.6,1-4.3-1.2-9C67.1,216.6,65.2,214.3,63.9,213.5z"/>
					</g>
				</g>
				<g id="XMLID_676_">
					<g id="XMLID_677_">
						<path id="XMLID_896_" class="st8" d="M65.1,220.5c0.4-0.7,1.2-0.9,1.9-0.5c0.7,0.4,0.9,1.2,0.5,1.9c-0.4,0.7-1.2,0.9-1.9,0.5
							C64.9,222,64.7,221.1,65.1,220.5z"/>
					</g>
				</g>
			</g>
		</g>
		<g id="XMLID_767_">
			<path id="XMLID_895_" class="st2" d="M376.7,260.2c-3.6-2-4.9-7.3-2.7-10.8c2.3-3.5,7.7-4.4,11-1.9c0.3-7.6,4.2-15.6,11.4-18
				c7.2-2.4,16.4,2,17.9,9.5c0.3-2,2.8-5.6,4.8-5.7c2-0.1,4,1.3,4.6,3.2c1.5-5.9,9-10.6,15.1-10.8c6.1-0.1,11.9,3.2,15.7,7.9
				c3.8,4.7,5.8,10.7,6.6,16.8c0.8,5.5,0.1,12.3-4.7,15.1c3.5,2.1,5.6,5.6,5.9,9.7c0.3,4.1-2.2,8.4-6.1,9.5c-3.9,1.1-8.7-1.7-9-5.8
				c0.4,3.2-3.7,6.2-6.9,5.8c-3.2-0.4-5.8-3.1-7-6.1c-1.2-3-1.2-6.3-1.2-9.6c-3.5,4.8-10.6,6.8-16.2,5.1c-5.6-1.8-9.8-7.3-9.9-13.2
				c-1.5,6-8.9,10.5-15.1,10.5C384.8,271.4,378.3,266.2,376.7,260.2z"/>
		</g>
		<g id="XMLID_775_">
			<path id="XMLID_894_" class="st2" d="M157.8,100.5c5.1,7.8,15.4,11.7,24.4,9.4c9-2.4,16.5-10.9,17.1-20.1c1.1,3.7,5.2,6.2,9,5.6
				c3.8-0.6,6.8-4.9,6.7-8.7c2.5,3.4,6.9,5.3,11.1,4.8c4.2-0.5,8.9-2,10.2-6.1c2.1-6.8-1.2-14.9-7.4-18.3s-15-2.7-19.8,2.6
				c0.4-2.1-0.9-4.4-2.8-5.3c-2-0.9-4.8-0.8-6.1,0.9c-0.7-3.5-3.6-6.5-7.1-7.3c-3.5-0.8-8,0-10.2,2.9c-0.5-8.6-6.9-16.3-15-19.1
				c-8.1-2.9-17.4-1.3-24.7,3.3c-4.1,2.6-7.8,6.2-9.6,10.7c-1.9,4.5-2.8,11,0.1,14.9c-2.1-1.3-5-1-6.8,0.6c-1.8,1.6-1.9,5.4-0.8,7.6
				c-4.6-1.3-10,0.6-12.7,4.6c-2.7,3.9-2.6,9.6,0.2,13.5c2.9,3.8,8.3,5.6,12.8,4.1c1,7,7.8,12.8,14.9,12.8
				C148.4,113.9,156.8,107.5,157.8,100.5z"/>
		</g>
		<g id="XMLID_790_">
			<path id="XMLID_893_" class="st2" d="M112.8,178.3c0,3.8-3.1,6.9-6.9,6.9s-6.9-3.1-6.9-6.9c0-3.8,3.1-6.9,6.9-6.9
				S112.8,174.4,112.8,178.3z"/>
		</g>
		<g id="XMLID_809_">
			<circle id="XMLID_892_" class="st2" cx="313.6" cy="135.6" r="6.9"/>
		</g>
		<g id="XMLID_807_">
			<circle id="XMLID_891_" class="st2" cx="60.6" cy="301.9" r="6.9"/>
		</g>
		<g id="XMLID_812_">
			<circle id="XMLID_890_" class="st2" cx="422" cy="147.2" r="6.9"/>
		</g>
		<g id="XMLID_816_">
			<circle id="XMLID_889_" class="st2" cx="374" cy="356.1" r="6.9"/>
		</g>
		<g id="XMLID_803_">
			<circle id="XMLID_888_" class="st2" cx="164.5" cy="133" r="6.9"/>
		</g>
		<g id="XMLID_796_">
			<path id="XMLID_884_" class="st2" d="M64.9,181.9c-2.9,0-5.2-2.3-5.2-5.2c0-2.9,2.3-5.2,5.2-5.2c2.9,0,5.2,2.3,5.2,5.2
				C70.1,179.6,67.8,181.9,64.9,181.9z M64.9,173.4c-1.8,0-3.3,1.5-3.3,3.3c0,1.8,1.5,3.3,3.3,3.3c1.8,0,3.3-1.5,3.3-3.3
				C68.2,174.8,66.7,173.4,64.9,173.4z"/>
		</g>
		<g id="XMLID_817_">
			<path id="XMLID_881_" class="st2" d="M395.1,366.5c-2.9,0-5.2-2.3-5.2-5.2c0-2.9,2.3-5.2,5.2-5.2c2.9,0,5.2,2.3,5.2,5.2
				C400.3,364.1,397.9,366.5,395.1,366.5z M395.1,357.9c-1.8,0-3.3,1.5-3.3,3.3s1.5,3.3,3.3,3.3s3.3-1.5,3.3-3.3
				S396.9,357.9,395.1,357.9z"/>
		</g>
		<g id="XMLID_811_">
			<path id="XMLID_878_" class="st2" d="M333.5,130.6c-2.9,0-5.2-2.3-5.2-5.2c0-2.9,2.3-5.2,5.2-5.2c2.9,0,5.2,2.3,5.2,5.2
				C338.7,128.2,336.4,130.6,333.5,130.6z M333.5,122c-1.8,0-3.3,1.5-3.3,3.3c0,1.8,1.5,3.3,3.3,3.3c1.8,0,3.3-1.5,3.3-3.3
				C336.8,123.5,335.4,122,333.5,122z"/>
		</g>
		<g id="XMLID_805_">
			<path id="XMLID_875_" class="st2" d="M162,195.8c-2.9,0-5.2-2.3-5.2-5.2c0-2.9,2.3-5.2,5.2-5.2c2.9,0,5.2,2.3,5.2,5.2
				C167.2,193.5,164.9,195.8,162,195.8z M162,187.3c-1.8,0-3.3,1.5-3.3,3.3c0,1.8,1.5,3.3,3.3,3.3c1.8,0,3.3-1.5,3.3-3.3
				C165.3,188.8,163.9,187.3,162,187.3z"/>
		</g>
		<g id="XMLID_801_">
			<path id="XMLID_872_" class="st2" d="M164.5,261.9c-2.9,0-5.2-2.3-5.2-5.2c0-2.9,2.3-5.2,5.2-5.2c2.9,0,5.2,2.3,5.2,5.2
				C169.7,259.5,167.4,261.9,164.5,261.9z M164.5,253.3c-1.8,0-3.3,1.5-3.3,3.3c0,1.8,1.5,3.3,3.3,3.3c1.8,0,3.3-1.5,3.3-3.3
				C167.8,254.8,166.3,253.3,164.5,253.3z"/>
		</g>
		<g id="XMLID_814_">
			<path id="XMLID_865_" class="st2" d="M369.7,229.9c-2.9,0-5.2-2.3-5.2-5.2c0-2.9,2.3-5.2,5.2-5.2c2.9,0,5.2,2.3,5.2,5.2
				C374.9,227.5,372.6,229.9,369.7,229.9z M369.7,221.3c-1.8,0-3.3,1.5-3.3,3.3c0,1.8,1.5,3.3,3.3,3.3c1.8,0,3.3-1.5,3.3-3.3
				C373,222.8,371.5,221.3,369.7,221.3z"/>
		</g>
		<g id="XMLID_799_">
			<path id="XMLID_857_" class="st2" d="M101.8,164.8c-2,0-3.6-1.6-3.6-3.6c0-2,1.6-3.6,3.6-3.6c2,0,3.6,1.6,3.6,3.6
				C105.4,163.1,103.8,164.8,101.8,164.8z M101.8,159.5c-0.9,0-1.7,0.8-1.7,1.7c0,0.9,0.8,1.7,1.7,1.7s1.7-0.8,1.7-1.7
				C103.5,160.2,102.8,159.5,101.8,159.5z"/>
		</g>
		<g id="XMLID_813_">
			<path id="XMLID_841_" class="st2" d="M375.4,155.8c-2,0-3.6-1.6-3.6-3.6c0-2,1.6-3.6,3.6-3.6c2,0,3.6,1.6,3.6,3.6
				C379,154.2,377.4,155.8,375.4,155.8z M375.4,150.5c-0.9,0-1.7,0.8-1.7,1.7c0,0.9,0.8,1.7,1.7,1.7c0.9,0,1.7-0.8,1.7-1.7
				C377.1,151.3,376.3,150.5,375.4,150.5z"/>
		</g>
		<g id="XMLID_810_">
			<path id="XMLID_838_" class="st2" d="M290.6,98.8c-2,0-3.6-1.6-3.6-3.6c0-2,1.6-3.6,3.6-3.6c2,0,3.6,1.6,3.6,3.6
				C294.2,97.2,292.6,98.8,290.6,98.8z M290.6,93.6c-0.9,0-1.7,0.8-1.7,1.7c0,0.9,0.8,1.7,1.7,1.7c0.9,0,1.7-0.8,1.7-1.7
				C292.3,94.3,291.6,93.6,290.6,93.6z"/>
		</g>
		<g id="XMLID_804_">
			<path id="XMLID_826_" class="st2" d="M142.8,275.1c-2,0-3.6-1.6-3.6-3.6c0-2,1.6-3.6,3.6-3.6c2,0,3.6,1.6,3.6,3.6
				C146.4,273.5,144.8,275.1,142.8,275.1z M142.8,269.8c-0.9,0-1.7,0.8-1.7,1.7c0,0.9,0.8,1.7,1.7,1.7c0.9,0,1.7-0.8,1.7-1.7
				C144.5,270.6,143.8,269.8,142.8,269.8z"/>
		</g>
		<g id="XMLID_800_">
			<path id="XMLID_822_" class="st2" d="M60.6,253.9c-1.4,0-2.6-1.2-2.6-2.6c0-1.4,1.2-2.6,2.6-2.6c1.4,0,2.6,1.2,2.6,2.6
				C63.2,252.7,62,253.9,60.6,253.9z M60.6,250.6c-0.4,0-0.7,0.3-0.7,0.7c0,0.4,0.3,0.7,0.7,0.7c0.4,0,0.7-0.3,0.7-0.7
				C61.3,250.9,61,250.6,60.6,250.6z"/>
		</g>
		<g id="XMLID_815_">
			<path id="XMLID_819_" class="st2" d="M358,298.4c-1.4,0-2.6-1.2-2.6-2.6c0-1.4,1.2-2.6,2.6-2.6c1.4,0,2.6,1.2,2.6,2.6
				C360.5,297.2,359.4,298.4,358,298.4z M358,295.1c-0.4,0-0.7,0.3-0.7,0.7c0,0.4,0.3,0.7,0.7,0.7c0.4,0,0.7-0.3,0.7-0.7
				C358.6,295.4,358.3,295.1,358,295.1z"/>
		</g>
		<g id="XMLID_793_">
			<path id="XMLID_887_" class="st2" d="M453.6,388.8c-0.1-3.3-0.4-7.1-3.4-9c-2.9-1.8-6.9-0.8-9.2,1.7c-0.4-7.2-4.9-14.1-11.4-17.2
				c-6.5-3.1-14.7-2.3-20.5,1.9c-5.8,4.3-9.7,13.8-8.7,20.9c-1-2.3-4.1-3.5-6.3-2.3c-2.2,1.2-3.1,4.4-1.7,6.5
				c-2.4-2.1-6.3-1.4-8.4,1c-2.1,2.3-2.5,5.8-1.9,8.9c1.3,6.1,4.3,13.3,12.1,11.4c4.9-1.2,8.5-5.5,10.7-10
				c0.1,7.8,6.8,15.5,14.6,15.4c7.8-0.2,14.7-7.5,14.5-15.3c0.2,2,2.1,3.1,4.1,3.3c2,0.2,4-1,5.1-2.7c1-1.7,1.2-3.9,0.6-5.8
				c1,0.8,1.8,1.8,2.9,2.2c1.2,0.4,2.5,0.5,3.6-0.1c3.3-1.8,3.5-6.3,3.4-9.6C453.6,389.7,453.6,389.2,453.6,388.8z"/>
		</g>
	</g>
	<g id="XMLID_60_">
		<path id="XMLID_56_" class="st8" d="M293.3,270.1c6.9-45.4-21.8-56.2-16.4-84.3c2-10.6,7.1-20.5,8.4-31.2c2.2-18.6-8.9-38-26-45.6
			c-16.7-7.5-37.9-8.7-54.4-0.1c-16,8.3-23,25.8-22,43.2c1.3,21.9,14.5,40.6,22.1,60.6c7.5,19.8,7.6,43.1-2.7,61.6"/>
		<g id="XMLID_203_">
			<g id="XMLID_232_">
				<path id="XMLID_234_" class="st9" d="M258.8,298.5c2.5-1,11.4-4.7,20.2-9.3c13.7-7.2,20.1-12.8,21.5-18.8
					c0.8-3.4-0.1-6.7-2.4-9.3c-4.4-4.9-11.2-3.4-14.5-2.6l-0.4,0.1c-5,1.1-9.4,2.9-13.7,4.7c-2.2,0.9-4.3,1.8-6.4,2.5
					c-7.8,2.8-17.1,5.6-26.7,5.9l0.4,13.6c11.5-0.3,22.1-3.5,30.9-6.7c2.5-0.9,4.8-1.8,7.1-2.8c0.4-0.2,0.8-0.3,1.2-0.5
					c-5.7,3.2-13.3,6.9-22.1,10.4L258.8,298.5z"/>
			</g>
			<g id="XMLID_219_">
				<g id="XMLID_229_">
					<path id="XMLID_230_" class="st10" d="M238.9,311.7c-7.9-3.5,8.6-31.4,11.9-31c3.2,0.5,12.8-0.1,12.1,1.4
						c-1.1,2.3-3.8,10,1.6,14c0.2,0.2,0.4,0.7-0.9,1c-5.4,1.1-10.2,4.3-13.7,8.6C246.9,309.4,242.6,313.3,238.9,311.7z"/>
				</g>
				<g id="XMLID_222_">
					<g id="XMLID_223_">
						<path id="XMLID_227_" class="st11" d="M253,283c-0.8,0.7-1.4,1.6-2,2.5c-4.8,7.2-6.4,8.6-8.9,16.9c-0.4,1.3-0.7,2.7-0.6,4
							c0.1,1.4,0.7,2.7,1.9,3.5c0.3,0.2,0.6,0.3,1,0.4c-1.9,1.4-3.8,2.1-5.4,1.4c-7.9-3.5,8.6-31.4,11.9-31c0.8,0.1,3.2-0.6,5,0.3
							C255.2,281.1,253.5,282.6,253,283z"/>
					</g>
				</g>
			</g>
			<g id="XMLID_217_">
				<path id="XMLID_218_" class="st11" d="M250.4,300.6c-0.4-0.5-0.8-1-0.7-1.6c0.1-0.4,0.4-0.7,0.8-0.8c0.4-0.1,0.8,0,1.1,0.1
					c1.2,0.4,2.1,1.4,2.5,2.6c0.4,1,0.4,5.5-1.5,4.7C251.2,305,251.2,301.7,250.4,300.6z"/>
			</g>
			<g id="XMLID_215_">
				<path id="XMLID_216_" class="st11" d="M253.6,298.7c-0.4-0.5-0.8-1-0.7-1.6c0.1-0.4,0.4-0.7,0.8-0.8c0.4-0.1,0.8,0,1.1,0.1
					c1.2,0.4,2.1,1.4,2.5,2.6c0.4,1,0.4,5.5-1.5,4.7C254.4,303.1,254.5,299.9,253.6,298.7z"/>
			</g>
			<g id="XMLID_213_">
				<path id="XMLID_214_" class="st11" d="M256.1,296c-0.5-0.3-1.1-0.7-1.2-1.3c0-0.4,0.2-0.8,0.5-1c0.3-0.2,0.7-0.3,1.1-0.3
					c1.2,0,2.4,0.6,3.2,1.6c0.7,0.8,2.2,5.1,0.1,4.9C258.2,299.9,257.3,296.8,256.1,296z"/>
			</g>
		</g>
		<g id="XMLID_55_">
			<g id="XMLID_131_">
				<path id="XMLID_159_" class="st9" d="M226.3,302l2.3-13.4c-9.3-1.6-17.5-3.6-23.8-5.5c0.4,0.1,0.8,0.1,1.2,0.2
					c2.4,0.4,4.9,0.9,7.5,1.2c9.3,1.2,20.3,2.1,31.6,0l-2.5-13.4c-9.5,1.8-19.2,0.9-27.4-0.1c-2.2-0.3-4.5-0.7-6.8-1.1
					c-4.6-0.8-9.3-1.7-14.4-1.7l-0.4,0c-3.4,0-10.4-0.1-13.6,5.6c-1.7,3-1.9,6.4-0.4,9.6c2.6,5.6,10.1,9.7,25,13.9
					C214.1,299.8,223.6,301.5,226.3,302z"/>
			</g>
			<g id="XMLID_111_">
				<g id="XMLID_119_">
					<path id="XMLID_124_" class="st10" d="M248.5,310.6c7-5.1-15.1-28.9-18.1-27.8c-3.1,1.1-12.6,2.6-11.5,3.9c1.6,2,5.8,9,1.3,14
						c-0.2,0.2-0.2,0.8,1.1,0.8c5.5-0.1,10.9,2,15.2,5.5C240.2,310.1,245.2,313,248.5,310.6z"/>
				</g>
				<g id="XMLID_112_">
					<g id="XMLID_114_">
						<path id="XMLID_116_" class="st11" d="M228.7,285.6c1,0.5,1.7,1.2,2.5,2c6.2,6.1,8.1,7,12.3,14.6c0.7,1.2,1.3,2.4,1.5,3.8
							c0.2,1.4-0.1,2.8-1.1,3.8c-0.3,0.2-0.6,0.4-0.9,0.6c2.2,1,4.2,1.3,5.6,0.3c7-5.1-15.1-28.9-18.1-27.8
							c-0.7,0.3-3.3,0.1-4.9,1.3C226.2,284.1,228.1,285.3,228.7,285.6z"/>
					</g>
				</g>
			</g>
			<g id="XMLID_109_">
				<path id="XMLID_110_" class="st11" d="M235,302.2c0.3-0.5,0.6-1.1,0.3-1.7c-0.2-0.3-0.5-0.5-0.9-0.6c-0.4,0-0.8,0.1-1.1,0.3
					c-1.1,0.6-1.8,1.8-1.9,3c-0.1,1,0.7,5.5,2.4,4.3C235.1,306.7,234.4,303.5,235,302.2z"/>
			</g>
			<g id="XMLID_107_">
				<path id="XMLID_108_" class="st11" d="M231.4,301.1c0.3-0.5,0.6-1.1,0.3-1.7c-0.2-0.3-0.5-0.5-0.9-0.6c-0.4,0-0.8,0.1-1.1,0.3
					c-1.1,0.6-1.8,1.8-1.9,3c-0.1,1,0.7,5.5,2.4,4.3C231.5,305.6,230.8,302.4,231.4,301.1z"/>
			</g>
			<g id="XMLID_101_">
				<path id="XMLID_102_" class="st11" d="M228.5,299c0.4-0.4,0.9-0.9,0.9-1.5c0-0.4-0.3-0.7-0.7-0.8c-0.4-0.1-0.8-0.1-1.1,0
					c-1.2,0.2-2.3,1.1-2.8,2.3c-0.5,0.9-1,5.4,1,4.8C227.1,303.2,227.5,300,228.5,299z"/>
			</g>
		</g>
		<g id="XMLID_173_">
			<path id="XMLID_210_" class="st12" d="M215,270.8c1.6-14.3-1.7-52.8-0.1-67.1c6.3-6,15.8-9.4,24.5-9.1
				c8.7,0.3,17.2,4.2,23.1,10.7c-0.5,15.9-2.5,53.3-2.9,69.2C255.6,280.7,215.3,275.3,215,270.8z"/>
		</g>
		<g id="XMLID_72_">
			<g id="XMLID_171_">
				<path id="XMLID_192_" class="st13" d="M245.2,200.2c-0.1-2.2-8.9-3.6-8.9-3.6s-8.7,2.2-8.6,4.4c0.1,2.2,4.1,3.8,8.9,3.6
					C241.4,204.4,245.3,202.4,245.2,200.2z"/>
			</g>
			<g id="XMLID_169_">
				<path id="XMLID_191_" class="st13" d="M236.2,202.9C236.2,202.9,236.2,202.9,236.2,202.9c-2.5,0.1-4.6-1.7-4.7-4.1l-1.2-18.5
					c2.3,0,4.6-0.1,6.9-0.1c3.9,0,2.6,6.5,2.8,9.3l0.5,8.8C240.6,200.7,238.7,202.8,236.2,202.9z"/>
			</g>
			<g id="XMLID_168_">
				<path id="XMLID_190_" class="st13" d="M208.8,151.8c-0.8-2.2-3.5-3.4-5.7-2.8c-2.2,0.6-3.9,2.9-3.9,5.2c0,2.3,1.5,4.5,3.7,5.5
					c2.1,0.9,4.7,0.7,6.6-0.6"/>
			</g>
			<g id="XMLID_166_">
				<path id="XMLID_189_" class="st14" d="M275.7,158.6c-0.8,9-4.1,18.2-11,24.1c-7.3,6.4-17.6,8.3-27.2,7.8
					c-8.1-0.4-16.6-2.5-22.4-8.3c-9.2-9.1-8.8-23.8-7.7-36.7c0.6-7.2-1.8-15.1,5.7-20.7c6.1-4.5,12.2-9,19.7-10.2
					c7.4-1.2,15.2-1.1,22.3,1.4C273.5,122.6,277.2,140.9,275.7,158.6z"/>
				<path id="XMLID_59_" class="st8" d="M211.9,141.1c-3.1,7.7-4.4,16.2-3.7,24.4c-2.8-7.5-3.9-15.6-3.2-23.5"/>
			</g>
			<g id="XMLID_165_">
				<path id="XMLID_188_" class="st13" d="M266,172.4c2.5-4,4.1-8.5,5.1-13.1c0.9-4.6,1.2-9.3,0.6-14c-0.1-1-2.8-12.8-3.4-12.3
					c-12.7,11.2-23.6,9.2-36,12c-5.8,1.3-12.2,2.7-15.5,7.6c-6.5,9.7,1.2,24.4,10.1,29.7c8.7,5.2,20.5,5.3,29.2,0
					C260.2,179.9,263.5,176.4,266,172.4z"/>
			</g>
			<g id="XMLID_163_">
				<g id="XMLID_164_">
					<path id="XMLID_187_" class="st11" d="M267.8,157.5c-0.6,0-1.2,0.2-1.7,0.5c-1.9,1.2-2.7,4.1-0.6,5.9c0.2,0.2,0.5,0.4,0.8,0.5
						C271.2,166.2,272.2,157.6,267.8,157.5z"/>
				</g>
			</g>
			<g id="XMLID_161_">
				<g id="XMLID_162_">
					<path id="XMLID_186_" class="st11" d="M230.4,156.1c-0.6,0-1.2,0.2-1.7,0.5c-1.9,1.2-2.7,4.1-0.6,5.9c0.2,0.2,0.5,0.4,0.8,0.5
						C233.8,164.8,234.8,156.2,230.4,156.1z"/>
				</g>
			</g>
			<g id="XMLID_106_">
				<path id="XMLID_185_" class="st13" d="M236.9,172.4c2-1.5,4.5-2,7-2.5c3.7-0.7,8.1-1.3,10.7,1.4c2.5,2.6,1.8,7.1-0.7,9.7
					c-2.5,2.6-6.2,3.6-9.8,3.9c-2.1,0.2-4.3,0.2-6.2-0.7C233.3,182.1,232.9,175.3,236.9,172.4z"/>
			</g>
			<g id="XMLID_105_">
				<path id="XMLID_82_" class="st11" d="M247.3,169.2c0.9-0.1,1.7-0.6,2.1-1.3c0.7-1.1,0.5-2.7-0.5-3.6c-0.8-0.7-1.9-0.9-2.9-0.5
					l-0.2-6.9c0-0.3-0.2-0.5-0.5-0.5c-0.2,0-0.5,0.2-0.5,0.5l0.2,7.7c0,0.2,0.1,0.4,0.3,0.4c0.2,0.1,0.4,0.1,0.5-0.1
					c0.7-0.5,1.8-0.5,2.4,0.1c0.7,0.6,0.8,1.6,0.3,2.4c-0.5,0.7-1.5,1.1-2.3,0.7c-0.2-0.1-0.5,0-0.6,0.3c-0.1,0.2,0,0.5,0.3,0.6
					C246.3,169.2,246.8,169.2,247.3,169.2z"/>
			</g>
			<g id="XMLID_73_">
				<path id="XMLID_77_" class="st11" d="M244.4,182.4c1.7-0.2,3.1-1.7,3.1-3.4c0-0.3-0.2-0.5-0.5-0.5c-0.3,0-0.5,0.2-0.5,0.5
					c0.1,1.1-1,2.3-2.3,2.4c-1.2,0.1-2.5-0.7-3.1-1.9c-0.5-1-0.6-2.2-0.3-3.4c4.2,1.7,7.6,1.4,10.3-0.8c0.2-0.2,0.2-0.5,0.1-0.7
					c-0.2-0.2-0.5-0.2-0.7-0.1c-2.6,2.1-5.7,2.2-9.8,0.4c-0.1-0.1-0.3-0.1-0.4,0c-0.1,0.1-0.2,0.2-0.3,0.3c-0.5,1.6-0.5,3.3,0.2,4.6
					C241.1,181.6,242.8,182.6,244.4,182.4C244.4,182.4,244.4,182.4,244.4,182.4z"/>
			</g>
		</g>
		<g id="XMLID_78_">
			<path id="XMLID_167_" class="st8" d="M274.1,141.5c2,0.4,3.8,1.7,5.1,3.3c0.3,0.5,0.6,1,0.7,1.6c0,0.6-0.2,1.2-0.8,1.4
				c-0.7,0.3-1.4-0.2-2.1-0.6c-1.5-0.9-3.3-1.4-5-1.4c-1.7,0-5.2,0.2-4.1-2.4C268.9,141.3,272.2,141.1,274.1,141.5z"/>
		</g>
		<g id="XMLID_81_">
			<path id="XMLID_121_" class="st8" d="M231.5,139.9c-2.1-0.2-4.2,0.3-5.9,1.5c-0.5,0.3-0.9,0.7-1.2,1.3c-0.2,0.5-0.2,1.2,0.3,1.6
				c0.6,0.5,1.4,0.3,2.1,0.1c1.7-0.4,3.5-0.3,5.2,0.3c1.6,0.6,4.8,1.9,4.6-1C236.5,141.4,233.4,140.1,231.5,139.9z"/>
		</g>
		<g id="XMLID_158_">
			<path id="XMLID_299_" class="st15" d="M288.1,153.4c-0.4-0.5-1.1-0.6-1.6-0.2l-0.1,0.1c-1.8,1.4-3.2,2.4-4.4,4c0,0,0-0.1,0-0.1
				c-1-5-4.6-8.5-9.7-9.5c-5-1.1-10.6,0.7-14,4.6c-1.4,1.5-2.4,3.3-3,5.3c-2-1.4-4.4-2.2-6.8-2.3c-2.4-0.1-4.8,0.6-6.9,1.8
				c0-0.4-0.1-0.8-0.2-1.1c-1-5-4.6-8.5-9.7-9.5c-5.1-1.1-10.6,0.7-14,4.6c-1.5,1.7-2.6,3.8-3.2,6l-8-3.8c-1.2-0.6-2.5-1.2-3.9-1.5
				c-1.7-0.3-3.4-0.1-4.6,0.7c-0.5,0.3-0.7,1.1-0.4,1.6c0.3,0.5,1.1,0.7,1.6,0.4c1-0.6,2.3-0.5,3-0.4c1.1,0.2,2.3,0.8,3.4,1.3
				l8.6,4.1c-0.2,2.1,0,4.2,0.8,6.2c1.4,3.8,4.3,6.5,8.1,7.7c1,0.3,2,0.5,3.1,0.6c3.2,0.2,6.4-0.6,9.1-2.5c3.8-2.6,6.2-6.9,6.6-11.4
				c1.9-1.5,4.4-2.3,6.8-2.2c2.3,0.1,4.6,1,6.3,2.4c-0.3,2.3-0.1,4.6,0.7,6.7c1.4,3.8,4.3,6.5,8.1,7.7c1,0.3,2,0.5,3.1,0.6
				c3.2,0.2,6.4-0.6,9.1-2.5c3.8-2.6,6.2-6.8,6.6-11.2c0.1-0.1,0.2-0.2,0.3-0.4c1.4-2.7,2.8-3.8,5.3-5.7l0.1-0.1
				C288.4,154.7,288.5,153.9,288.1,153.4z M233.5,169.2c-3,2.1-6.8,2.7-10.2,1.6c-3.1-1-5.5-3.2-6.6-6.3c-1.5-4-0.5-8.8,2.4-12.1
				c2.6-2.8,6.5-4.3,10.3-4.1c0.5,0,1,0.1,1.6,0.2c4.2,0.9,7.1,3.7,7.9,7.7C239.9,161.2,237.7,166.3,233.5,169.2z M274.2,170.5
				c-3,2.1-6.8,2.7-10.2,1.6c-3.1-1-5.5-3.2-6.6-6.3c-1.5-4-0.5-8.8,2.4-12.1c2.6-2.8,6.5-4.3,10.3-4.1c0.5,0,1,0.1,1.6,0.2
				c4.2,0.9,7.1,3.7,7.9,7.7C280.6,162.5,278.4,167.7,274.2,170.5z"/>
		</g>
		<g id="XMLID_517_">
			<polygon id="XMLID_513_" class="st16" points="274,287.4 290.5,215.3 233,212 234,283.1 			"/>
			<polygon id="XMLID_514_" class="st17" points="290.5,215.3 286.6,214 235.7,211.4 233,212 			"/>
			<g id="XMLID_515_">
				<path id="XMLID_516_" class="st18" d="M245.6,210.7c0,0,6-1.3,7.9-2.5l0.5-0.5c0.1-0.2,0-0.4-0.4-0.6c-2.5-1.2-3.8-6,7.1-5.6
					c11.6-0.2,10.1,4.8,7.5,5.9c-2.6,1.1,8,3.8,8,3.8l0.5,7l-32-1.7L245.6,210.7z"/>
				<path id="XMLID_528_" class="st19" d="M245.3,211.9c0,0,6-1.3,7.9-2.5l0.5-0.5c0.1-0.2,0-0.4-0.4-0.6c-2.5-1.2-3.8-6,7.1-5.6
					c11.6-0.2,10.1,4.8,7.5,5.9c-2.6,1.1,8,3.8,8,3.8l0.7,5.8l-32.3-0.6L245.3,211.9z"/>
			</g>
		</g>
		<path id="XMLID_530_" class="st14" d="M289.2,249.8c3.9-2.6,4.9-7.9,2.3-11.7c-0.2-0.3-0.4-0.5-0.6-0.8c-0.1-0.2-0.2-0.4-0.3-0.6
			c-1.7-2.3-4.2-3.9-6.9-4.5c-0.7-0.2-1.5-0.3-2.2-0.1c-0.7,0.1-1.4,0.6-1.8,1.2c-0.5,1-0.5,1.8,0,2.5c-3.8,2.6-4.8,7.8-2.2,11.7
			C280,251.4,285.3,252.4,289.2,249.8z"/>
		<g id="XMLID_63_">
			<g id="XMLID_492_">
				<g id="XMLID_531_">
					<g id="XMLID_562_">
						<path id="XMLID_569_" class="st20" d="M204.4,236.1c-2.1,6-13.2,18.2-17.4,18.7c-6.8,0.7-6.3-21.6-7.3-28.9"/>
						<path id="XMLID_561_" class="st12" d="M214.9,203.9l8.9,16.1c-3.9,5.8-16,21.8-16.3,22.8c0,0-7.1-3-11-6.1L214.9,203.9z"/>
						<path id="XMLID_564_" class="st14" d="M175,222.7c-3.4,2.6-4,7.4-1.4,10.8c2.6,3.4,7.4,4,10.8,1.4c3.4-2.6,4-7.4,1.4-10.8
							C183.2,220.8,178.4,220.1,175,222.7z"/>
						<path id="XMLID_563_" class="st14" d="M188,224c0.6,0.3,1,0.9,1.2,1.5c0.2,0.6,0.1,1.3,0,2c-0.4,2.5-1.7,4.9-3.7,6.5
							c-0.2,0.2-0.5,0.4-0.7,0.4C183.3,234.3,183,221.8,188,224z"/>
					</g>
				</g>
			</g>
			<g id="XMLID_69_">
				<path id="XMLID_184_" class="st11" d="M172.7,204.9c0.7-0.8,1.6-1.5,2.6-1.9c1.1-0.4,2.1-0.5,3.4-0.2l12.9,34l-1.2,9.9l-7-7.1
					L172.7,204.9z"/>
				<polygon id="XMLID_183_" class="st13" points="191.6,236.9 190.7,244.4 189.5,244 188.7,245.1 183.4,239.7 187.2,239.9 
					189,237.8 190.8,238 				"/>
				<path id="XMLID_71_" class="st13" d="M175.4,203"/>
			</g>
			<path id="XMLID_64_" class="st14" d="M181.7,226c1,0.8,1.9,1.8,2.2,3c0.3,1.2-0.3,2.7-1.4,3.2c-1.1,0.5-2.3,0.1-3.3-0.4
				c-1.6-0.7-6-2.7-4.8-5C175.7,223.8,179.6,224.4,181.7,226z"/>
		</g>
		<path id="XMLID_58_" class="st8" d="M211.6,118.2c23.7-18.4,58.7-12.1,76.2,11.7c3.3,4.5,5.5,10,5.5,15.6
			c-6.6-7.5-17.5-8.2-26.8-8.3c-11.7-0.1-23.4,0-35,1.1c-8,0.8-14.8,3.6-22.3,6.3c-1.4,0.5-3.1,1-4.5,0.4c-2.3-1-1.1-4-1.2-5.8
			C203.3,130.9,204.8,123.5,211.6,118.2z"/>
	</g>
	<g id="XMLID_2_">
		<g id="XMLID_1056_">
			<polygon id="XMLID_1062_" class="st2" points="37.6,98.1 42.3,92.4 64.4,93.6 69,72.6 77.7,70 74.8,100.4 61.9,109.5 			"/>
			<g id="XMLID_1053_">
				<path id="XMLID_1049_" class="st5" d="M101.2,97.2L91.2,122c0,0,2.4,0.7,2.5,1.7c0.1,1,0.7,2.1-3.9,5.4
					c-4.6,3.3-5.5,2.3-6.4,1.9s-0.7-2.9-0.7-2.9L56,129.3L58,128l25.9-1.3c0,0-0.6,3.8,1.1,3.4c1.7-0.4,4.1-2,4.1-2s3.8-2.8,3.1-3.6
					c-0.8-0.7-2.8-1.3-2.8-1.3L99.1,99L101.2,97.2z"/>
				<polygon id="XMLID_1048_" class="st3" points="60.7,97 82.7,128 56,129.3 34,98.3 				"/>
				<polygon id="XMLID_1051_" class="st3" points="79.2,66.2 101.2,97.2 91.2,122 69.2,91 				"/>
				<path id="XMLID_1055_" class="st5" d="M61.5,99.9l22,31c0,0,6.9,0.3,10.2-7.3l-22-31C71.7,92.7,69.7,98.6,61.5,99.9z"/>
				<path id="XMLID_997_" class="st6" d="M79.2,66.2L69.2,91c0,0,2.4,0.7,2.5,1.7c0.1,1,0.7,2.1-3.9,5.4c-4.6,3.3-5.5,2.3-6.4,1.9
					c-0.9-0.5-0.7-2.9-0.7-2.9L34,98.3l1.9-1.4l25.9-1.3c0,0-0.6,3.8,1.1,3.4c1.7-0.4,4.1-2,4.1-2s3.8-2.8,3.1-3.6
					c-0.8-0.7-2.8-1.3-2.8-1.3l9.8-24.2L79.2,66.2z"/>
			</g>
		</g>
		<g id="XMLID_1069_">
			<polygon id="XMLID_1132_" class="st2" points="371.8,438.7 370.5,431.5 350.6,421.7 356.8,401.1 350.5,394.6 338.2,422.6 
				345,436.8 			"/>
			<g id="XMLID_1079_">
				<path id="XMLID_1131_" class="st5" d="M316.6,406.9l-3.3,26.6c0,0-2.4-0.6-3,0.2c-0.6,0.8-1.7,1.5,0.7,6.6
					c2.4,5.1,3.7,4.7,4.7,4.7c1,0,2.1-2.2,2.1-2.2l22.7,14.2l-1-2.2l-22-13.8c0,0-1.4,3.6-2.6,2.4c-1.3-1.1-2.6-3.8-2.6-3.8
					s-2-4.3-0.9-4.6c1-0.2,3,0.2,3,0.2l3.2-25.9L316.6,406.9z"/>
				<polygon id="XMLID_1089_" class="st3" points="352.1,426.5 317.8,442.8 340.5,457 374.9,440.6 				"/>
				<polygon id="XMLID_1088_" class="st3" points="351,390.6 316.6,406.9 313.3,433.5 347.7,417.1 				"/>
				<path id="XMLID_1087_" class="st5" d="M350.1,428.7l-34.4,16.4c0,0-6.2-3.1-5.4-11.3l34.4-16.4
					C344.7,417.3,343.5,423.5,350.1,428.7z"/>
				<path id="XMLID_1086_" class="st6" d="M351,390.6l-3.3,26.6c0,0-2.4-0.6-3,0.2c-0.6,0.8-1.7,1.5,0.7,6.6
					c2.4,5.1,3.7,4.7,4.7,4.7c1,0,2.1-2.2,2.1-2.2l22.7,14.2l-1-2.2l-22-13.8c0,0-1.4,3.6-2.6,2.4c-1.3-1.1-2.6-3.8-2.6-3.8
					s-2-4.3-0.9-4.6c1-0.2,3,0.2,3,0.2l3.2-25.9L351,390.6z"/>
			</g>
		</g>
		<g id="XMLID_1154_">
			<polygon id="XMLID_1183_" class="st2" points="352.1,68.5 348.4,66.2 336.3,70.9 329.9,60 324.5,60.2 331.7,76.6 340.6,79.3 			
				"/>
			<g id="XMLID_1155_">
				<path id="XMLID_1162_" class="st5" d="M316.4,79.7l10.2,12c0,0-1.2,0.8-1.1,1.4c0.1,0.6,0,1.3,3.2,2.3c3.2,1,3.5,0.3,3.9-0.1
					c0.4-0.4-0.1-1.8-0.1-1.8l15.2-4.2l-1.3-0.4l-14.7,4c0,0,1,2,0,2.1c-1,0.1-2.6-0.4-2.6-0.4s-2.7-0.9-2.4-1.4
					c0.3-0.5,1.3-1.2,1.3-1.2l-9.9-11.7L316.4,79.7z"/>
				<polygon id="XMLID_1159_" class="st3" points="339,72.1 332.3,93.5 347.5,89.3 354.1,68 				"/>
				<polygon id="XMLID_1158_" class="st3" points="323,58.3 316.4,79.7 326.5,91.7 333.1,70.3 				"/>
				<path id="XMLID_1157_" class="st5" d="M339.1,73.9l-6.6,21.4c0,0-3.8,1.5-7.1-2.2l6.6-21.4C332,71.7,334.2,74.7,339.1,73.9z"/>
				<path id="XMLID_1156_" class="st6" d="M323,58.3l10.2,12c0,0-1.2,0.8-1.1,1.4c0.1,0.6,0,1.3,3.2,2.3c3.2,1,3.5,0.3,3.9-0.1
					c0.4-0.4-0.1-1.8-0.1-1.8l15.2-4.2l-1.3-0.4l-14.7,4c0,0,1,2,0,2.1c-1,0.1-2.6-0.4-2.6-0.4s-2.7-0.9-2.4-1.4
					c0.3-0.5,1.3-1.2,1.3-1.2l-9.9-11.7L323,58.3z"/>
			</g>
		</g>
	</g>
	<g id="XMLID_749_">
		<g id="XMLID_556_">
			<g id="XMLID_549_">
				<g id="XMLID_762_">
					<path id="XMLID_1531_" class="st2" d="M131.9,264.5c-16.6,0-30.1-13.5-30.1-30.1c0-13.9,9.7-26.1,23.2-29.3v-14h13.8v14
						c13.5,3.2,23.2,15.4,23.2,29.3C162,251,148.5,264.5,131.9,264.5z M126.9,193v13.6l-0.7,0.2c-13,2.7-22.5,14.3-22.5,27.6
						c0,15.6,12.7,28.2,28.2,28.2s28.2-12.7,28.2-28.2c0-13.3-9.4-24.9-22.5-27.6l-0.7-0.2V193H126.9z"/>
				</g>
			</g>
			<g id="XMLID_580_">
				<g id="XMLID_1527_">
					<path id="XMLID_955_" class="st21" d="M107.5,233.1c0,0.5-0.1,0.9-0.1,1.4c0,13.5,11,24.5,24.5,24.5c13.5,0,24.5-11,24.5-24.5
						c0-0.5,0-0.9-0.1-1.4H107.5z"/>
				</g>
			</g>
			<g id="XMLID_115_">
				<g id="XMLID_1524_">
					<path id="XMLID_954_" class="st22" d="M107.5,233.1c0,0,23.7,17.6,48.8,0C156.3,233.1,132,217.4,107.5,233.1z"/>
				</g>
			</g>
			<g id="XMLID_113_">
				<g id="XMLID_1521_">
					<path id="XMLID_952_" class="st22" d="M121.7,246.2c0,0.7-0.6,1.3-1.3,1.3c-0.7,0-1.3-0.6-1.3-1.3s0.6-1.3,1.3-1.3
						C121.2,245,121.7,245.6,121.7,246.2z"/>
				</g>
			</g>
			<g id="XMLID_179_">
				<g id="XMLID_1518_">
					<path id="XMLID_949_" class="st22" d="M128.5,252c0,0.9-0.8,1.7-1.7,1.7c-0.9,0-1.7-0.8-1.7-1.7s0.8-1.7,1.7-1.7
						C127.8,250.3,128.5,251.1,128.5,252z"/>
				</g>
			</g>
			<g id="XMLID_550_">
				<g id="XMLID_1515_">
					<circle id="XMLID_948_" class="st22" cx="129.8" cy="246.2" r="1.3"/>
				</g>
			</g>
			<g id="XMLID_555_">
				<g id="XMLID_1512_">
					<circle id="XMLID_947_" class="st22" cx="150.9" cy="241.5" r="2"/>
				</g>
			</g>
		</g>
		<g id="XMLID_558_">
			<g id="XMLID_571_">
				<g id="XMLID_759_">
					<path id="XMLID_1507_" class="st2" d="M105.5,299c-0.3,0-0.5,0-0.8,0c-8-0.2-15.5-3.5-21.1-9.4c-9.6-10.1-11-25.6-3.4-37.2
						l-9.6-10.1l10-9.5l9.6,10.1c12-7,27.4-4.9,37,5.2c5.5,5.8,8.5,13.5,8.3,21.5c-0.2,8-3.5,15.5-9.4,21.1
						C120.5,296,113.2,299,105.5,299z M73.3,242.3l9.4,9.9l-0.4,0.6c-7.6,10.9-6.4,25.9,2.8,35.5c5.2,5.5,12.2,8.6,19.7,8.8
						c7.5,0.2,14.7-2.6,20.2-7.8c5.5-5.2,8.6-12.2,8.8-19.7c0.2-7.5-2.6-14.7-7.8-20.2c-9.2-9.6-24-11.6-35.3-4.6l-0.7,0.4l-9.4-9.9
						L73.3,242.3z"/>
				</g>
			</g>
			<g id="XMLID_570_">
				<g id="XMLID_1503_">
					<path id="XMLID_944_" class="st23" d="M81.3,266.1c0,0.5-0.1,0.9-0.1,1.4c0,13.5,11,24.5,24.5,24.5c13.5,0,24.5-11,24.5-24.5
						c0-0.5,0-0.9-0.1-1.4H81.3z"/>
				</g>
			</g>
			<g id="XMLID_568_">
				<g id="XMLID_1500_">
					<path id="XMLID_942_" class="st24" d="M81.3,266.1c0,0,23.7,17.6,48.8,0C130.1,266.1,105.8,250.4,81.3,266.1z"/>
				</g>
			</g>
			<g id="XMLID_566_">
				<g id="XMLID_1497_">
					<path id="XMLID_941_" class="st24" d="M95.5,279.2c0,0.7-0.6,1.3-1.3,1.3c-0.7,0-1.3-0.6-1.3-1.3c0-0.7,0.6-1.3,1.3-1.3
						C95,278,95.5,278.5,95.5,279.2z"/>
				</g>
			</g>
			<g id="XMLID_565_">
				<g id="XMLID_1494_">
					<path id="XMLID_937_" class="st24" d="M102.3,285c0,0.9-0.8,1.7-1.7,1.7c-0.9,0-1.7-0.8-1.7-1.7s0.8-1.7,1.7-1.7
						C101.6,283.3,102.3,284.1,102.3,285z"/>
				</g>
			</g>
			<g id="XMLID_560_">
				<g id="XMLID_1491_">
					<circle id="XMLID_935_" class="st24" cx="103.6" cy="279.2" r="1.3"/>
				</g>
			</g>
			<g id="XMLID_559_">
				<g id="XMLID_1488_">
					<circle id="XMLID_934_" class="st24" cx="124.7" cy="274.5" r="2"/>
				</g>
			</g>
		</g>
		<g id="XMLID_586_">
			<g id="XMLID_595_">
				<g id="XMLID_754_">
					<path id="XMLID_1483_" class="st2" d="M325.7,228.2c-16.6,0-30.1-13.5-30.1-30.1c0-13.9,9.7-26.1,23.2-29.3v-14h13.8v14
						c13.5,3.2,23.2,15.4,23.2,29.3C355.8,214.7,342.3,228.2,325.7,228.2z M320.6,156.7v13.6l-0.7,0.2c-13,2.7-22.5,14.3-22.5,27.6
						c0,15.6,12.7,28.2,28.2,28.2c15.6,0,28.2-12.7,28.2-28.2c0-13.3-9.4-24.9-22.5-27.6l-0.7-0.2v-13.6H320.6z"/>
				</g>
			</g>
			<g id="XMLID_594_">
				<g id="XMLID_1479_">
					<path id="XMLID_932_" class="st21" d="M350.1,196.8c0,0.5,0.1,0.9,0.1,1.4c0,13.5-11,24.5-24.5,24.5c-13.5,0-24.5-11-24.5-24.5
						c0-0.5,0-0.9,0.1-1.4H350.1z"/>
				</g>
			</g>
			<g id="XMLID_593_">
				<g id="XMLID_1476_">
					<path id="XMLID_929_" class="st22" d="M350.1,196.8c0,0-23.7,17.6-48.8,0C301.3,196.8,325.5,181.1,350.1,196.8z"/>
				</g>
			</g>
			<g id="XMLID_592_">
				<g id="XMLID_1473_">
					<path id="XMLID_928_" class="st22" d="M335.8,209.9c0,0.7,0.6,1.3,1.3,1.3c0.7,0,1.3-0.6,1.3-1.3c0-0.7-0.6-1.3-1.3-1.3
						C336.4,208.7,335.8,209.2,335.8,209.9z"/>
				</g>
			</g>
			<g id="XMLID_590_">
				<g id="XMLID_1470_">
					<path id="XMLID_927_" class="st22" d="M329,215.7c0,0.9,0.8,1.7,1.7,1.7s1.7-0.8,1.7-1.7s-0.8-1.7-1.7-1.7S329,214.8,329,215.7
						z"/>
				</g>
			</g>
			<g id="XMLID_589_">
				<g id="XMLID_1467_">
					<path id="XMLID_925_" class="st22" d="M326.5,209.9c0,0.7,0.6,1.3,1.3,1.3c0.7,0,1.3-0.6,1.3-1.3c0-0.7-0.6-1.3-1.3-1.3
						C327.1,208.7,326.5,209.2,326.5,209.9z"/>
				</g>
			</g>
			<g id="XMLID_588_">
				<g id="XMLID_1464_">
					<circle id="XMLID_923_" class="st22" cx="306.7" cy="205.2" r="2"/>
				</g>
			</g>
		</g>
		<g id="XMLID_999_">
			<g id="XMLID_1035_">
				<g id="XMLID_1041_">
					<path id="XMLID_1042_" class="st2" d="M375.6,107.7c-4.2-7.5-2.6-17,3.7-22.8l-4.2-7.5l7.4-4.2l4.2,7.5
						c8.2-2.4,17.2,1.3,21.4,8.8c5,9,1.8,20.3-7.2,25.3C391.9,119.9,380.6,116.7,375.6,107.7z M376.6,77.8l4.1,7.4l-0.4,0.3
						c-6.2,5.4-7.8,14.5-3.8,21.7c4.7,8.4,15.3,11.4,23.7,6.7c8.4-4.7,11.4-15.3,6.7-23.7c-4-7.2-12.6-10.6-20.4-8.1l-0.5,0.1
						l-4.1-7.4L376.6,77.8z"/>
				</g>
			</g>
			<g id="XMLID_1029_">
				<g id="XMLID_1031_">
					<path id="XMLID_1034_" class="st21" d="M378.2,105.3c0.1,0.3,0.2,0.5,0.4,0.7c4.1,7.3,13.3,9.9,20.6,5.8
						c7.3-4.1,9.9-13.3,5.8-20.6c-0.1-0.2-0.3-0.5-0.4-0.7L378.2,105.3z"/>
				</g>
			</g>
			<g id="XMLID_1022_">
				<g id="XMLID_1025_">
					<path id="XMLID_1027_" class="st22" d="M378.2,105.3c0,0,18.1,2.4,26.3-14.7C404.6,90.6,386.8,89.4,378.2,105.3z"/>
				</g>
			</g>
			<g id="XMLID_1014_">
				<g id="XMLID_1020_">
					<path id="XMLID_1021_" class="st22" d="M389.9,108.1c0.2,0.4,0.1,0.8-0.3,1.1c-0.4,0.2-0.8,0.1-1.1-0.3
						c-0.2-0.4-0.1-0.8,0.3-1.1C389.2,107.6,389.7,107.7,389.9,108.1z"/>
				</g>
			</g>
			<g id="XMLID_1010_">
				<g id="XMLID_1012_">
					<path id="XMLID_1013_" class="st22" d="M395.3,109.2c0.3,0.5,0.1,1.1-0.4,1.4c-0.5,0.3-1.1,0.1-1.4-0.4
						c-0.3-0.5-0.1-1.1,0.4-1.4C394.4,108.5,395,108.7,395.3,109.2z"/>
				</g>
			</g>
			<g id="XMLID_1006_">
				<g id="XMLID_1007_">
					<path id="XMLID_1008_" class="st22" d="M394.9,105.3c0.2,0.4,0.1,0.8-0.3,1.1c-0.4,0.2-0.8,0.1-1.1-0.3
						c-0.2-0.4-0.1-0.8,0.3-1.1C394.2,104.8,394.7,104.9,394.9,105.3z"/>
				</g>
			</g>
			<g id="XMLID_1000_">
				<g id="XMLID_1001_">
					<path id="XMLID_1004_" class="st22" d="M405.3,96.2c0.3,0.6,0.1,1.4-0.5,1.7c-0.6,0.3-1.4,0.1-1.7-0.5
						c-0.3-0.6-0.1-1.4,0.5-1.7C404.2,95.4,405,95.6,405.3,96.2z"/>
				</g>
			</g>
		</g>
		<g id="XMLID_572_">
			<g id="XMLID_584_">
				<g id="XMLID_751_">
					<path id="XMLID_1459_" class="st2" d="M397.9,346.3c-7.8,0-15.1-2.9-20.7-8.3c-5.8-5.5-9.1-13-9.4-21.1
						c-0.2-8,2.7-15.7,8.3-21.5c9.6-10.1,25-12.3,37-5.2l9.6-10.1l10,9.5l-9.6,10.1c7.6,11.6,6.2,27.1-3.4,37.2
						c-5.5,5.8-13,9.1-21.1,9.4C398.4,346.3,398.1,346.3,397.9,346.3z M398,288c-7.5,0-15,3-20.5,8.8c-5.2,5.5-8,12.6-7.8,20.2
						c0.2,7.5,3.3,14.5,8.8,19.7c5.5,5.2,12.6,8,20.2,7.8c7.5-0.2,14.5-3.3,19.7-8.8c9.2-9.6,10.3-24.6,2.8-35.5l-0.4-0.6l9.4-9.9
						l-7.3-6.9l-9.4,9.9l-0.7-0.4C408.2,289.3,403.1,288,398,288z"/>
				</g>
			</g>
			<g id="XMLID_582_">
				<g id="XMLID_1455_">
					<path id="XMLID_921_" class="st23" d="M422,313.4c0,0.5,0.1,0.9,0.1,1.4c0,13.5-11,24.5-24.5,24.5c-13.5,0-24.5-11-24.5-24.5
						c0-0.5,0-0.9,0.1-1.4H422z"/>
				</g>
			</g>
			<g id="XMLID_581_">
				<g id="XMLID_1452_">
					<path id="XMLID_920_" class="st24" d="M422,313.4c0,0-23.7,17.6-48.8,0C373.2,313.4,397.5,297.7,422,313.4z"/>
				</g>
			</g>
			<g id="XMLID_579_">
				<g id="XMLID_1449_">
					<path id="XMLID_918_" class="st24" d="M407.8,326.5c0,0.7,0.6,1.3,1.3,1.3c0.7,0,1.3-0.6,1.3-1.3c0-0.7-0.6-1.3-1.3-1.3
						C408.4,325.3,407.8,325.8,407.8,326.5z"/>
				</g>
			</g>
			<g id="XMLID_577_">
				<g id="XMLID_1446_">
					<path id="XMLID_914_" class="st24" d="M401,332.3c0,0.9,0.8,1.7,1.7,1.7s1.7-0.8,1.7-1.7s-0.8-1.7-1.7-1.7S401,331.4,401,332.3
						z"/>
				</g>
			</g>
			<g id="XMLID_575_">
				<g id="XMLID_1443_">
					<path id="XMLID_913_" class="st24" d="M398.5,326.5c0,0.7,0.6,1.3,1.3,1.3c0.7,0,1.3-0.6,1.3-1.3c0-0.7-0.6-1.3-1.3-1.3
						C399.1,325.3,398.5,325.8,398.5,326.5z"/>
				</g>
			</g>
			<g id="XMLID_574_">
				<g id="XMLID_1440_">
					<circle id="XMLID_912_" class="st24" cx="378.7" cy="321.8" r="2"/>
				</g>
			</g>
		</g>
	</g>
</g>
<g id="DESIGNED_BY_FREEPIK">
</g>
</svg>
