<?xml version="1.0" encoding="utf-8"?>
<!-- Generator: Adobe Illustrator 26.2.1, SVG Export Plug-In . SVG Version: 6.00 Build 0)  -->
<svg version="1.1" id="Layer_1" xmlns="http://www.w3.org/2000/svg" xmlns:xlink="http://www.w3.org/1999/xlink" x="0px" y="0px"
	 viewBox="0 0 127.5 127.6" style="enable-background:new 0 0 127.5 127.6;" xml:space="preserve">
<style type="text/css">
	.st0{display:none;}
	.st1{display:inline;opacity:0.6;fill:url(#SVGID_1_);}
	.st2{display:inline;fill:url(#SVGID_00000147208444549913171660000002966456931281098378_);}
	.st3{display:inline;fill:url(#SVGID_00000163064512406365285610000005969130356893541267_);}
	.st4{display:inline;fill:url(#SVGID_00000052802072776806718280000006561309510148464575_);}
	.st5{display:inline;fill:url(#SVGID_00000163777151731871072820000005674649798069696901_);}
	.st6{display:inline;fill:url(#SVGID_00000154422464553699124790000001309090294338032290_);}
	.st7{display:inline;fill:url(#SVGID_00000034771202536523671590000016281517368356194722_);}
	.st8{display:inline;fill:url(#SVGID_00000034080017384766930340000009410990736648084632_);}
	.st9{display:inline;}
	.st10{fill:#CCCCCC;}
	.st11{fill:url(#SVGID_00000093887376732046072840000016993903514361750662_);}
	.st12{fill:url(#SVGID_00000173146141657353819220000012598355092932810659_);}
	.st13{fill:#1C1F2A;}
	.st14{fill:#FFFFFF;}
	.st15{display:inline;opacity:0.6;fill:url(#SVGID_00000071551124642828146450000012906479489139017109_);}
	.st16{display:inline;fill:url(#SVGID_00000049191659356863493810000012003743109868653184_);}
	.st17{display:inline;fill:url(#SVGID_00000170237085060516942900000007205587673041288860_);}
	.st18{display:inline;fill:url(#SVGID_00000169528538215716341020000005162980980351835044_);}
	.st19{display:inline;fill:url(#SVGID_00000168810216260151404200000001100058429422583435_);}
	.st20{display:inline;fill:url(#SVGID_00000147899624985391995920000009175249446796673667_);}
	.st21{display:inline;fill:url(#SVGID_00000081609840569410140570000003214090804418953105_);}
	.st22{display:inline;fill:url(#SVGID_00000050644410427973534440000006838084209884078489_);}
	.st23{fill:url(#SVGID_00000059298683969436521070000008484160578976470411_);}
	.st24{fill:url(#SVGID_00000181055938787941156550000012345474113744480684_);}
	.st25{display:inline;opacity:0.6;fill:url(#SVGID_00000045613083574269785660000018234939827697363131_);}
	.st26{display:inline;fill:url(#SVGID_00000118387338315634499140000002421868309721440670_);}
	.st27{display:inline;fill:url(#SVGID_00000121261164940257888310000010198688331836499075_);}
	.st28{display:inline;fill:url(#SVGID_00000140723408367884833610000013188414510580995255_);}
	.st29{display:inline;fill:url(#SVGID_00000119797366143811645350000002547497842964143518_);}
	.st30{display:inline;fill:url(#SVGID_00000180343709547539646750000007539586913021511075_);}
	.st31{display:inline;fill:url(#SVGID_00000116950896838754244500000003637266445906274751_);}
	.st32{display:inline;fill:url(#SVGID_00000156553717794817349150000000364772802213104041_);}
	.st33{fill:url(#SVGID_00000093157750297775661100000013004547322828578976_);}
	.st34{fill:url(#SVGID_00000096738384246220583320000004176099295161032350_);}
</style>
<g class="st0">
	
		<radialGradient id="SVGID_1_" cx="-353.6409" cy="3300.7627" r="75.379" gradientTransform="matrix(1.3692 0 0 0.3047 554.2883 -893.4218)" gradientUnits="userSpaceOnUse">
		<stop  offset="0.3582" style="stop-color:#9E9E9E"/>
		<stop  offset="0.4143" style="stop-color:#B5B5B5"/>
		<stop  offset="0.4989" style="stop-color:#D0D0D0"/>
		<stop  offset="0.5913" style="stop-color:#E5E5E5"/>
		<stop  offset="0.6939" style="stop-color:#F4F4F4"/>
		<stop  offset="0.8148" style="stop-color:#FCFCFC"/>
		<stop  offset="1" style="stop-color:#FFFFFF"/>
	</radialGradient>
	<ellipse class="st1" cx="70.1" cy="112.3" rx="103.2" ry="23"/>
	
		<linearGradient id="SVGID_00000023251223409608503390000014815636647703186872_" gradientUnits="userSpaceOnUse" x1="68.462" y1="-50.3373" x2="68.462" y2="136.2112">
		<stop  offset="0" style="stop-color:#F5F5F5"/>
		<stop  offset="0.405" style="stop-color:#DDDDDD"/>
		<stop  offset="1" style="stop-color:#B3B3B3"/>
	</linearGradient>
	
		<circle style="display:inline;fill:url(#SVGID_00000023251223409608503390000014815636647703186872_);" cx="68.5" cy="31.5" r="86.7"/>
	
		<radialGradient id="SVGID_00000018915339607514987910000012645230469362210494_" cx="68.462" cy="31.5321" r="86.7329" gradientUnits="userSpaceOnUse">
		<stop  offset="0.8358" style="stop-color:#000000"/>
		<stop  offset="0.8933" style="stop-color:#050505"/>
		<stop  offset="0.9591" style="stop-color:#131313"/>
		<stop  offset="1" style="stop-color:#1F1F1F"/>
	</radialGradient>
	
		<circle style="display:inline;fill:url(#SVGID_00000018915339607514987910000012645230469362210494_);" cx="68.5" cy="31.5" r="86.7"/>
	
		<linearGradient id="SVGID_00000159440200883935260300000012293045680483534230_" gradientUnits="userSpaceOnUse" x1="68.462" y1="-40.8805" x2="68.462" y2="95.8558">
		<stop  offset="0" style="stop-color:#67D2DF"/>
		<stop  offset="0.1547" style="stop-color:#55C7D1"/>
		<stop  offset="0.7275" style="stop-color:#18A0A2"/>
		<stop  offset="1" style="stop-color:#00918F"/>
	</linearGradient>
	
		<circle style="display:inline;fill:url(#SVGID_00000159440200883935260300000012293045680483534230_);" cx="68.5" cy="31.5" r="71.7"/>
	
		<radialGradient id="SVGID_00000052801895123594386720000016562171087891959196_" cx="68.462" cy="31.532" r="71.737" gradientUnits="userSpaceOnUse">
		<stop  offset="0.8458" style="stop-color:#FFFFFF"/>
		<stop  offset="0.8735" style="stop-color:#FBFBFB"/>
		<stop  offset="0.9002" style="stop-color:#F0F0F0"/>
		<stop  offset="0.9264" style="stop-color:#DCDCDC"/>
		<stop  offset="0.9524" style="stop-color:#C1C1C1"/>
		<stop  offset="0.9779" style="stop-color:#9E9E9E"/>
		<stop  offset="1" style="stop-color:#7A7A7A"/>
	</radialGradient>
	
		<circle style="display:inline;fill:url(#SVGID_00000052801895123594386720000016562171087891959196_);" cx="68.5" cy="31.5" r="71.7"/>
	
		<linearGradient id="SVGID_00000104666493787044721670000004311222932849975427_" gradientUnits="userSpaceOnUse" x1="68.4621" y1="-24.1351" x2="68.4621" y2="102.7085">
		<stop  offset="0" style="stop-color:#F5F5F5"/>
		<stop  offset="0.405" style="stop-color:#DDDDDD"/>
		<stop  offset="1" style="stop-color:#B3B3B3"/>
	</linearGradient>
	
		<circle style="display:inline;fill:url(#SVGID_00000104666493787044721670000004311222932849975427_);" cx="68.5" cy="31.5" r="59"/>
	
		<radialGradient id="SVGID_00000094586232746701821420000001453072028626270650_" cx="68.4621" cy="31.532" r="58.974" gradientUnits="userSpaceOnUse">
		<stop  offset="0.8358" style="stop-color:#000000"/>
		<stop  offset="0.8933" style="stop-color:#050505"/>
		<stop  offset="0.9591" style="stop-color:#131313"/>
		<stop  offset="1" style="stop-color:#1F1F1F"/>
	</radialGradient>
	
		<circle style="display:inline;fill:url(#SVGID_00000094586232746701821420000001453072028626270650_);" cx="68.5" cy="31.5" r="59"/>
	
		<radialGradient id="SVGID_00000057134681013324926060000000818047675813929096_" cx="78.5943" cy="70.8456" r="117.62" gradientUnits="userSpaceOnUse">
		<stop  offset="0" style="stop-color:#1F1F1F"/>
		<stop  offset="0.2489" style="stop-color:#131313"/>
		<stop  offset="0.6499" style="stop-color:#050505"/>
		<stop  offset="1" style="stop-color:#000000"/>
	</radialGradient>
	<path style="display:inline;fill:url(#SVGID_00000057134681013324926060000000818047675813929096_);" d="M30.3,47.7
		c17.7-17.7,44-28.6,69-28.6c9.6,0,18.8,1.5,27.6,4.2c-4-28.7-28.6-50.7-58.4-50.7c-32.6,0-59,26.4-59,59c0,11.4,3.2,22,8.8,31
		C21.9,57,26,52,30.3,47.7z"/>
	<g class="st9">
		<path class="st10" d="M65.3-5.7c4.4,0,8.3,0.5,11.9,1.6c3.6,1.1,6.7,2.7,9.3,4.7c2.6,2,4.6,4.5,6,7.4c1.4,2.9,2.1,6.1,2.1,9.6
			c0,2.6-0.5,4.9-1.5,6.9c-1,2-2.2,3.8-3.6,5.5c-1.5,1.6-3,3.1-4.7,4.3c-1.7,1.3-3.2,2.4-4.7,3.5c-1.5,1.1-2.7,2.1-3.6,3
			c-1,1-1.5,2-1.5,3v4.9H55.4v-8.2c0-1.4,0.4-2.7,1.1-3.9c0.7-1.2,1.6-2.4,2.8-3.6c1.1-1.2,2.3-2.3,3.6-3.4c1.3-1.1,2.5-2.3,3.6-3.5
			c1.1-1.2,2-2.5,2.8-3.8c0.7-1.3,1.1-2.7,1.1-4.3c0-1-0.2-2-0.5-3c-0.3-1-0.8-1.8-1.5-2.5c-0.7-0.7-1.4-1.3-2.4-1.8
			c-0.9-0.4-2-0.7-3.2-0.7c-1.6,0-2.8,0.3-3.8,0.8c-1,0.6-1.7,1.3-2.3,2.2c-0.5,0.9-0.9,1.9-1.1,3.1c-0.2,1.2-0.3,2.3-0.3,3.5
			c0,0.5,0,1,0,1.5c0,0.5,0,1,0.1,1.5H34.4c-0.1-0.7-0.1-1.5-0.2-2.2C34.1,20,34,19.3,34,18.5c0-3.7,0.8-7.1,2.3-10.1
			c1.6-3,3.7-5.5,6.5-7.6C45.7-1.3,49-2.9,52.8-4C56.6-5.1,60.8-5.7,65.3-5.7z"/>
		<rect x="55.5" y="56" class="st10" width="19.8" height="18.5"/>
	</g>
	<g class="st9">
		
			<linearGradient id="SVGID_00000055708418832015536920000008424297626173625783_" gradientUnits="userSpaceOnUse" x1="94.4238" y1="-22.599" x2="41.3116" y2="47.8633">
			<stop  offset="0" style="stop-color:#67D2DF"/>
			<stop  offset="0.1547" style="stop-color:#55C7D1"/>
			<stop  offset="0.7275" style="stop-color:#18A0A2"/>
			<stop  offset="1" style="stop-color:#00918F"/>
		</linearGradient>
		<path style="fill:url(#SVGID_00000055708418832015536920000008424297626173625783_);" d="M66.6-7.5c4.4,0,8.4,0.6,12,1.7
			c3.6,1.1,6.7,2.7,9.3,4.7c2.6,2,4.6,4.5,6,7.4c1.4,2.9,2.1,6.1,2.1,9.7c0,2.6-0.5,5-1.5,7c-1,2-2.2,3.9-3.7,5.5
			c-1.5,1.6-3,3.1-4.7,4.4c-1.7,1.3-3.3,2.4-4.7,3.5c-1.5,1.1-2.7,2.1-3.7,3.1c-1,1-1.5,2-1.5,3v4.9H56.7v-8.2
			c0-1.4,0.4-2.7,1.1-3.9c0.7-1.2,1.7-2.4,2.8-3.6c1.1-1.2,2.3-2.3,3.6-3.4c1.3-1.1,2.5-2.3,3.6-3.5c1.1-1.2,2.1-2.5,2.8-3.8
			c0.7-1.3,1.1-2.8,1.1-4.3c0-1-0.2-2.1-0.5-3c-0.3-1-0.8-1.8-1.5-2.6c-0.7-0.7-1.5-1.3-2.4-1.8c-0.9-0.5-2-0.7-3.2-0.7
			c-1.6,0-2.9,0.3-3.8,0.8c-1,0.6-1.7,1.3-2.3,2.2c-0.5,0.9-0.9,1.9-1.1,3.1c-0.2,1.2-0.3,2.3-0.3,3.5c0,0.5,0,1,0,1.5
			c0,0.5,0,1,0.1,1.5H35.5c-0.1-0.7-0.2-1.5-0.2-2.2c-0.1-0.7-0.1-1.4-0.1-2.2c0-3.8,0.8-7.1,2.4-10.1c1.6-3,3.8-5.6,6.6-7.7
			c2.8-2.1,6.1-3.7,10-4.9C57.9-7,62.1-7.5,66.6-7.5z"/>
		
			<linearGradient id="SVGID_00000106843119191955325320000003983911051949966218_" gradientUnits="userSpaceOnUse" x1="118.3139" y1="-4.5917" x2="65.2017" y2="65.8706">
			<stop  offset="0" style="stop-color:#67D2DF"/>
			<stop  offset="0.1547" style="stop-color:#55C7D1"/>
			<stop  offset="0.7275" style="stop-color:#18A0A2"/>
			<stop  offset="1" style="stop-color:#00918F"/>
		</linearGradient>
		
			<rect x="56.8" y="54.5" style="fill:url(#SVGID_00000106843119191955325320000003983911051949966218_);" width="19.9" height="18.6"/>
	</g>
</g>
<ellipse transform="matrix(0.7071 -0.7071 0.7071 0.7071 -26.4742 63.7712)" class="st13" cx="63.7" cy="63.8" rx="63.8" ry="63.8"/>
<g>
	<path class="st10" d="M64.6,28.2c3.9,0,7.4,0.5,10.6,1.5c3.2,1,5.9,2.4,8.2,4.2c2.3,1.8,4.1,4,5.3,6.6c1.3,2.6,1.9,5.4,1.9,8.6
		c0,2.3-0.4,4.4-1.3,6.2c-0.9,1.8-1.9,3.4-3.2,4.9c-1.3,1.4-2.7,2.7-4.2,3.9C80.5,65,79.1,66,77.8,67c-1.3,0.9-2.4,1.8-3.2,2.7
		c-0.9,0.9-1.3,1.7-1.3,2.6v4.3H55.9v-7.3c0-1.2,0.3-2.4,1-3.5c0.6-1.1,1.5-2.2,2.5-3.2c1-1,2.1-2,3.2-3c1.1-1,2.2-2,3.2-3.1
		c1-1.1,1.8-2.2,2.5-3.4c0.6-1.2,1-2.4,1-3.8c0-0.9-0.1-1.8-0.4-2.7c-0.3-0.9-0.7-1.6-1.3-2.3c-0.6-0.6-1.3-1.2-2.1-1.6
		c-0.8-0.4-1.8-0.6-2.8-0.6c-1.4,0-2.5,0.2-3.4,0.7c-0.9,0.5-1.5,1.1-2,1.9c-0.5,0.8-0.8,1.7-1,2.7c-0.2,1-0.2,2.1-0.2,3.1
		c0,0.5,0,0.9,0,1.4s0,0.9,0.1,1.4H37.1c-0.1-0.7-0.1-1.3-0.2-1.9c-0.1-0.6-0.1-1.3-0.1-1.9c0-3.3,0.7-6.3,2.1-9
		c1.4-2.7,3.3-4.9,5.8-6.8c2.5-1.9,5.4-3.3,8.8-4.3C56.9,28.7,60.6,28.2,64.6,28.2z"/>
	<rect x="55.9" y="83.1" class="st10" width="17.6" height="16.4"/>
</g>
<g>
	<path class="st14" d="M64.6,28c3.9,0,7.5,0.5,10.7,1.5c3.2,1,6,2.4,8.3,4.2c2.3,1.8,4.1,4,5.4,6.6c1.3,2.6,1.9,5.5,1.9,8.6
		c0,2.3-0.4,4.4-1.3,6.2c-0.9,1.8-2,3.4-3.3,4.9c-1.3,1.5-2.7,2.7-4.2,3.9C80.6,65,79.2,66,77.9,67c-1.3,1-2.4,1.9-3.3,2.7
		c-0.9,0.9-1.3,1.8-1.3,2.7v4.4H55.8v-7.3c0-1.2,0.3-2.4,1-3.5c0.7-1.1,1.5-2.2,2.5-3.2c1-1,2.1-2.1,3.2-3.1c1.1-1,2.2-2,3.2-3.1
		c1-1.1,1.8-2.2,2.5-3.4c0.7-1.2,1-2.5,1-3.9c0-0.9-0.2-1.8-0.5-2.7c-0.3-0.9-0.7-1.6-1.3-2.3c-0.6-0.7-1.3-1.2-2.1-1.6
		c-0.8-0.4-1.8-0.6-2.9-0.6c-1.4,0-2.5,0.3-3.4,0.8c-0.9,0.5-1.5,1.2-2,2c-0.5,0.8-0.8,1.7-1,2.8c-0.2,1-0.3,2.1-0.3,3.2
		c0,0.5,0,0.9,0,1.4c0,0.5,0,0.9,0.1,1.4H36.9c-0.1-0.7-0.1-1.3-0.2-1.9c-0.1-0.6-0.1-1.3-0.1-1.9c0-3.3,0.7-6.3,2.1-9
		c1.4-2.7,3.3-4.9,5.8-6.8c2.5-1.9,5.4-3.3,8.9-4.3C56.8,28.5,60.6,28,64.6,28z"/>
	<rect x="55.9" y="83.2" class="st14" width="17.7" height="16.5"/>
</g>
<g class="st0">
	
		<radialGradient id="SVGID_00000150062520681186171810000009221476460886546831_" cx="-350.6691" cy="3575.8923" r="30.7332" gradientTransform="matrix(1.3692 0 0 0.3047 554.2883 -893.4218)" gradientUnits="userSpaceOnUse">
		<stop  offset="0.3582" style="stop-color:#9E9E9E"/>
		<stop  offset="0.4143" style="stop-color:#B5B5B5"/>
		<stop  offset="0.4989" style="stop-color:#D0D0D0"/>
		<stop  offset="0.5913" style="stop-color:#E5E5E5"/>
		<stop  offset="0.6939" style="stop-color:#F4F4F4"/>
		<stop  offset="0.8148" style="stop-color:#FCFCFC"/>
		<stop  offset="1" style="stop-color:#FFFFFF"/>
	</radialGradient>
	
		<ellipse style="display:inline;opacity:0.6;fill:url(#SVGID_00000150062520681186171810000009221476460886546831_);" cx="74.2" cy="196.2" rx="42.1" ry="9.4"/>
	
		<linearGradient id="SVGID_00000179620707795372388180000009097510276137542787_" gradientUnits="userSpaceOnUse" x1="73.4911" y1="129.8343" x2="73.4911" y2="205.8933">
		<stop  offset="0" style="stop-color:#F5F5F5"/>
		<stop  offset="0.405" style="stop-color:#DDDDDD"/>
		<stop  offset="1" style="stop-color:#B3B3B3"/>
	</linearGradient>
	
		<circle style="display:inline;fill:url(#SVGID_00000179620707795372388180000009097510276137542787_);" cx="73.5" cy="163.2" r="35.4"/>
	
		<radialGradient id="SVGID_00000000198421063909469910000012634079191169005485_" cx="73.4911" cy="163.2138" r="35.3624" gradientUnits="userSpaceOnUse">
		<stop  offset="0.8358" style="stop-color:#000000"/>
		<stop  offset="0.8933" style="stop-color:#050505"/>
		<stop  offset="0.9591" style="stop-color:#131313"/>
		<stop  offset="1" style="stop-color:#1F1F1F"/>
	</radialGradient>
	
		<circle style="display:inline;fill:url(#SVGID_00000000198421063909469910000012634079191169005485_);" cx="73.5" cy="163.2" r="35.4"/>
	
		<linearGradient id="SVGID_00000067947782065873785300000015056883896123070864_" gradientUnits="userSpaceOnUse" x1="73.4911" y1="133.6901" x2="73.4911" y2="189.4397">
		<stop  offset="0" style="stop-color:#E79E51"/>
		<stop  offset="9.130609e-02" style="stop-color:#E89449"/>
		<stop  offset="0.7071" style="stop-color:#EB5714"/>
		<stop  offset="1" style="stop-color:#ED3F00"/>
	</linearGradient>
	
		<circle style="display:inline;fill:url(#SVGID_00000067947782065873785300000015056883896123070864_);" cx="73.5" cy="163.2" r="29.2"/>
	
		<radialGradient id="SVGID_00000038373502317799844920000002723262547566192799_" cx="73.4911" cy="163.2138" r="29.2484" gradientUnits="userSpaceOnUse">
		<stop  offset="0.8458" style="stop-color:#FFFFFF"/>
		<stop  offset="0.8773" style="stop-color:#FBFBFB"/>
		<stop  offset="0.9076" style="stop-color:#F0F0F0"/>
		<stop  offset="0.9374" style="stop-color:#DCDCDC"/>
		<stop  offset="0.9669" style="stop-color:#C1C1C1"/>
		<stop  offset="0.996" style="stop-color:#9E9E9E"/>
		<stop  offset="1" style="stop-color:#999999"/>
	</radialGradient>
	
		<circle style="display:inline;fill:url(#SVGID_00000038373502317799844920000002723262547566192799_);" cx="73.5" cy="163.2" r="29.2"/>
	
		<linearGradient id="SVGID_00000145019348577029207890000008085227677302765440_" gradientUnits="userSpaceOnUse" x1="73.4911" y1="140.5175" x2="73.4911" y2="192.2337">
		<stop  offset="0" style="stop-color:#F5F5F5"/>
		<stop  offset="0.405" style="stop-color:#DDDDDD"/>
		<stop  offset="1" style="stop-color:#B3B3B3"/>
	</linearGradient>
	
		<circle style="display:inline;fill:url(#SVGID_00000145019348577029207890000008085227677302765440_);" cx="73.5" cy="163.2" r="24"/>
	
		<radialGradient id="SVGID_00000120527340941441321740000016656712937151271084_" cx="73.4911" cy="163.2138" r="24.0446" gradientUnits="userSpaceOnUse">
		<stop  offset="0.8358" style="stop-color:#000000"/>
		<stop  offset="0.8933" style="stop-color:#050505"/>
		<stop  offset="0.9591" style="stop-color:#131313"/>
		<stop  offset="1" style="stop-color:#1F1F1F"/>
	</radialGradient>
	
		<circle style="display:inline;fill:url(#SVGID_00000120527340941441321740000016656712937151271084_);" cx="73.5" cy="163.2" r="24"/>
	
		<radialGradient id="SVGID_00000106850849964102482830000018081046583864759736_" cx="77.6223" cy="179.2427" r="47.9555" gradientUnits="userSpaceOnUse">
		<stop  offset="0" style="stop-color:#1F1F1F"/>
		<stop  offset="0.2489" style="stop-color:#131313"/>
		<stop  offset="0.6499" style="stop-color:#050505"/>
		<stop  offset="1" style="stop-color:#000000"/>
	</radialGradient>
	<path style="display:inline;fill:url(#SVGID_00000106850849964102482830000018081046583864759736_);" d="M57.9,169.8
		c7.2-7.2,17.9-11.6,28.1-11.6c3.9,0,7.7,0.6,11.2,1.7c-1.6-11.7-11.7-20.7-23.8-20.7c-13.3,0-24,10.8-24,24c0,4.6,1.3,9,3.6,12.6
		C54.5,173.6,56.2,171.6,57.9,169.8z"/>
	<g class="st9">
		<path class="st10" d="M72.2,148.1c1.8,0,3.4,0.2,4.9,0.7c1.5,0.4,2.7,1.1,3.8,1.9c1,0.8,1.9,1.8,2.4,3c0.6,1.2,0.9,2.5,0.9,3.9
			c0,1.1-0.2,2-0.6,2.8c-0.4,0.8-0.9,1.6-1.5,2.2c-0.6,0.7-1.2,1.3-1.9,1.8c-0.7,0.5-1.3,1-1.9,1.4c-0.6,0.4-1.1,0.8-1.5,1.2
			c-0.4,0.4-0.6,0.8-0.6,1.2v2h-8v-3.3c0-0.6,0.1-1.1,0.4-1.6c0.3-0.5,0.7-1,1.1-1.5c0.5-0.5,0.9-0.9,1.5-1.4c0.5-0.5,1-0.9,1.5-1.4
			c0.5-0.5,0.8-1,1.1-1.5c0.3-0.5,0.4-1.1,0.4-1.8c0-0.4-0.1-0.8-0.2-1.2c-0.1-0.4-0.3-0.7-0.6-1c-0.3-0.3-0.6-0.5-1-0.7
			c-0.4-0.2-0.8-0.3-1.3-0.3c-0.6,0-1.2,0.1-1.6,0.3c-0.4,0.2-0.7,0.5-0.9,0.9c-0.2,0.4-0.4,0.8-0.4,1.3c-0.1,0.5-0.1,0.9-0.1,1.4
			c0,0.2,0,0.4,0,0.6s0,0.4,0,0.6h-8.6c0-0.3-0.1-0.6-0.1-0.9c0-0.3,0-0.6,0-0.9c0-1.5,0.3-2.9,1-4.1c0.6-1.2,1.5-2.3,2.7-3.1
			c1.1-0.9,2.5-1.5,4-2C68.7,148.3,70.4,148.1,72.2,148.1z"/>
		<rect x="68.2" y="173.2" class="st10" width="8.1" height="7.5"/>
	</g>
	<g class="st9">
		
			<linearGradient id="SVGID_00000091009816556274319630000017392370457907510402_" gradientUnits="userSpaceOnUse" x1="84.0762" y1="141.1437" x2="62.4214" y2="169.8723">
			<stop  offset="0" style="stop-color:#E79E51"/>
			<stop  offset="9.130609e-02" style="stop-color:#E89449"/>
			<stop  offset="0.7071" style="stop-color:#EB5714"/>
			<stop  offset="1" style="stop-color:#ED3F00"/>
		</linearGradient>
		<path style="fill:url(#SVGID_00000091009816556274319630000017392370457907510402_);" d="M72.7,147.3c1.8,0,3.4,0.2,4.9,0.7
			c1.5,0.5,2.7,1.1,3.8,1.9c1.1,0.8,1.9,1.8,2.5,3c0.6,1.2,0.9,2.5,0.9,4c0,1.1-0.2,2-0.6,2.8c-0.4,0.8-0.9,1.6-1.5,2.2
			c-0.6,0.7-1.2,1.3-1.9,1.8c-0.7,0.5-1.3,1-1.9,1.4c-0.6,0.4-1.1,0.9-1.5,1.2c-0.4,0.4-0.6,0.8-0.6,1.2v2h-8v-3.4
			c0-0.6,0.1-1.1,0.4-1.6c0.3-0.5,0.7-1,1.1-1.5c0.5-0.5,0.9-0.9,1.5-1.4c0.5-0.5,1-0.9,1.5-1.4c0.5-0.5,0.8-1,1.1-1.5
			c0.3-0.5,0.4-1.1,0.4-1.8c0-0.4-0.1-0.8-0.2-1.2c-0.1-0.4-0.3-0.7-0.6-1c-0.3-0.3-0.6-0.5-1-0.7c-0.4-0.2-0.8-0.3-1.3-0.3
			c-0.6,0-1.2,0.1-1.6,0.3c-0.4,0.2-0.7,0.5-0.9,0.9c-0.2,0.4-0.4,0.8-0.4,1.3c-0.1,0.5-0.1,1-0.1,1.4c0,0.2,0,0.4,0,0.6
			c0,0.2,0,0.4,0,0.6h-8.6c0-0.3-0.1-0.6-0.1-0.9c0-0.3,0-0.6,0-0.9c0-1.5,0.3-2.9,1-4.1c0.6-1.2,1.5-2.3,2.7-3.1
			c1.1-0.9,2.5-1.5,4.1-2C69.2,147.5,70.9,147.3,72.7,147.3z"/>
		
			<linearGradient id="SVGID_00000131339917351467278570000012187969671110129334_" gradientUnits="userSpaceOnUse" x1="93.8164" y1="148.4857" x2="72.1618" y2="177.2142">
			<stop  offset="0" style="stop-color:#E79E51"/>
			<stop  offset="9.130609e-02" style="stop-color:#E89449"/>
			<stop  offset="0.7071" style="stop-color:#EB5714"/>
			<stop  offset="1" style="stop-color:#ED3F00"/>
		</linearGradient>
		
			<rect x="68.7" y="172.6" style="fill:url(#SVGID_00000131339917351467278570000012187969671110129334_);" width="8.1" height="7.6"/>
	</g>
</g>
<g class="st0">
	
		<radialGradient id="SVGID_00000152224705649297643810000017452056198737237637_" cx="-289.1814" cy="3575.8923" r="30.7332" gradientTransform="matrix(1.3692 0 0 0.3047 554.2883 -893.4218)" gradientUnits="userSpaceOnUse">
		<stop  offset="0.3582" style="stop-color:#9E9E9E"/>
		<stop  offset="0.4143" style="stop-color:#B5B5B5"/>
		<stop  offset="0.4989" style="stop-color:#D0D0D0"/>
		<stop  offset="0.5913" style="stop-color:#E5E5E5"/>
		<stop  offset="0.6939" style="stop-color:#F4F4F4"/>
		<stop  offset="0.8148" style="stop-color:#FCFCFC"/>
		<stop  offset="1" style="stop-color:#FFFFFF"/>
	</radialGradient>
	
		<ellipse style="display:inline;opacity:0.6;fill:url(#SVGID_00000152224705649297643810000017452056198737237637_);" cx="158.3" cy="196.2" rx="42.1" ry="9.4"/>
	
		<linearGradient id="SVGID_00000088830274302787168040000007195510813738162562_" gradientUnits="userSpaceOnUse" x1="157.6801" y1="129.8343" x2="157.6801" y2="205.8933">
		<stop  offset="0" style="stop-color:#F5F5F5"/>
		<stop  offset="0.405" style="stop-color:#DDDDDD"/>
		<stop  offset="1" style="stop-color:#B3B3B3"/>
	</linearGradient>
	
		<circle style="display:inline;fill:url(#SVGID_00000088830274302787168040000007195510813738162562_);" cx="157.7" cy="163.2" r="35.4"/>
	
		<radialGradient id="SVGID_00000164475366445909388330000011989133499982514598_" cx="157.6801" cy="163.2138" r="35.3624" gradientUnits="userSpaceOnUse">
		<stop  offset="0.8358" style="stop-color:#000000"/>
		<stop  offset="0.8933" style="stop-color:#050505"/>
		<stop  offset="0.9591" style="stop-color:#131313"/>
		<stop  offset="1" style="stop-color:#1F1F1F"/>
	</radialGradient>
	
		<circle style="display:inline;fill:url(#SVGID_00000164475366445909388330000011989133499982514598_);" cx="157.7" cy="163.2" r="35.4"/>
	
		<linearGradient id="SVGID_00000083088165662180975270000011255980737739641003_" gradientUnits="userSpaceOnUse" x1="157.6801" y1="133.6901" x2="157.6801" y2="189.4397">
		<stop  offset="0" style="stop-color:#95C940"/>
		<stop  offset="0.595" style="stop-color:#7A9F17"/>
		<stop  offset="1" style="stop-color:#6A8700"/>
	</linearGradient>
	
		<circle style="display:inline;fill:url(#SVGID_00000083088165662180975270000011255980737739641003_);" cx="157.7" cy="163.2" r="29.2"/>
	
		<radialGradient id="SVGID_00000145741524011330284480000008670793332937419403_" cx="157.6801" cy="163.2138" r="29.2483" gradientUnits="userSpaceOnUse">
		<stop  offset="0.8458" style="stop-color:#FFFFFF"/>
		<stop  offset="0.8773" style="stop-color:#FBFBFB"/>
		<stop  offset="0.9076" style="stop-color:#F0F0F0"/>
		<stop  offset="0.9374" style="stop-color:#DCDCDC"/>
		<stop  offset="0.9669" style="stop-color:#C1C1C1"/>
		<stop  offset="0.996" style="stop-color:#9E9E9E"/>
		<stop  offset="1" style="stop-color:#999999"/>
	</radialGradient>
	
		<circle style="display:inline;fill:url(#SVGID_00000145741524011330284480000008670793332937419403_);" cx="157.7" cy="163.2" r="29.2"/>
	
		<linearGradient id="SVGID_00000118364875870160000570000005099449899259696800_" gradientUnits="userSpaceOnUse" x1="157.6801" y1="140.5175" x2="157.6801" y2="192.2337">
		<stop  offset="0" style="stop-color:#F5F5F5"/>
		<stop  offset="0.405" style="stop-color:#DDDDDD"/>
		<stop  offset="1" style="stop-color:#B3B3B3"/>
	</linearGradient>
	
		<circle style="display:inline;fill:url(#SVGID_00000118364875870160000570000005099449899259696800_);" cx="157.7" cy="163.2" r="24"/>
	
		<radialGradient id="SVGID_00000013181399501514709690000011856103906686869425_" cx="157.6801" cy="163.2138" r="24.0446" gradientUnits="userSpaceOnUse">
		<stop  offset="0.8358" style="stop-color:#000000"/>
		<stop  offset="0.8933" style="stop-color:#050505"/>
		<stop  offset="0.9591" style="stop-color:#131313"/>
		<stop  offset="1" style="stop-color:#1F1F1F"/>
	</radialGradient>
	
		<circle style="display:inline;fill:url(#SVGID_00000013181399501514709690000011856103906686869425_);" cx="157.7" cy="163.2" r="24"/>
	
		<radialGradient id="SVGID_00000176754328593984890010000000980602643372215734_" cx="161.8112" cy="179.2427" r="47.9556" gradientUnits="userSpaceOnUse">
		<stop  offset="0" style="stop-color:#1F1F1F"/>
		<stop  offset="0.2489" style="stop-color:#131313"/>
		<stop  offset="0.6499" style="stop-color:#050505"/>
		<stop  offset="1" style="stop-color:#000000"/>
	</radialGradient>
	<path style="display:inline;fill:url(#SVGID_00000176754328593984890010000000980602643372215734_);" d="M142.1,169.8
		c7.2-7.2,17.9-11.6,28.1-11.6c3.9,0,7.7,0.6,11.2,1.7c-1.6-11.7-11.7-20.7-23.8-20.7c-13.3,0-24,10.8-24,24c0,4.6,1.3,9,3.6,12.6
		C138.7,173.6,140.4,171.6,142.1,169.8z"/>
	<g class="st9">
		<path class="st10" d="M156.4,148.1c1.8,0,3.4,0.2,4.9,0.7c1.5,0.4,2.7,1.1,3.8,1.9c1,0.8,1.9,1.8,2.4,3c0.6,1.2,0.9,2.5,0.9,3.9
			c0,1.1-0.2,2-0.6,2.8c-0.4,0.8-0.9,1.6-1.5,2.2c-0.6,0.7-1.2,1.3-1.9,1.8c-0.7,0.5-1.3,1-1.9,1.4c-0.6,0.4-1.1,0.8-1.5,1.2
			c-0.4,0.4-0.6,0.8-0.6,1.2v2h-8v-3.3c0-0.6,0.1-1.1,0.4-1.6c0.3-0.5,0.7-1,1.1-1.5c0.5-0.5,0.9-0.9,1.5-1.4c0.5-0.5,1-0.9,1.5-1.4
			c0.5-0.5,0.8-1,1.1-1.5c0.3-0.5,0.4-1.1,0.4-1.8c0-0.4-0.1-0.8-0.2-1.2c-0.1-0.4-0.3-0.7-0.6-1c-0.3-0.3-0.6-0.5-1-0.7
			c-0.4-0.2-0.8-0.3-1.3-0.3c-0.6,0-1.2,0.1-1.6,0.3c-0.4,0.2-0.7,0.5-0.9,0.9c-0.2,0.4-0.4,0.8-0.4,1.3c-0.1,0.5-0.1,0.9-0.1,1.4
			c0,0.2,0,0.4,0,0.6s0,0.4,0,0.6h-8.6c0-0.3-0.1-0.6-0.1-0.9c0-0.3,0-0.6,0-0.9c0-1.5,0.3-2.9,1-4.1c0.6-1.2,1.5-2.3,2.7-3.1
			c1.1-0.9,2.5-1.5,4-2C152.8,148.3,154.5,148.1,156.4,148.1z"/>
		<rect x="152.4" y="173.2" class="st10" width="8.1" height="7.5"/>
	</g>
	<g class="st9">
		
			<linearGradient id="SVGID_00000002344921882993296940000007357553050641630383_" gradientUnits="userSpaceOnUse" x1="168.2651" y1="141.1437" x2="146.6104" y2="169.8723">
			<stop  offset="0" style="stop-color:#95C940"/>
			<stop  offset="0.595" style="stop-color:#7A9F17"/>
			<stop  offset="1" style="stop-color:#6A8700"/>
		</linearGradient>
		<path style="fill:url(#SVGID_00000002344921882993296940000007357553050641630383_);" d="M156.9,147.3c1.8,0,3.4,0.2,4.9,0.7
			c1.5,0.5,2.7,1.1,3.8,1.9c1.1,0.8,1.9,1.8,2.5,3c0.6,1.2,0.9,2.5,0.9,4c0,1.1-0.2,2-0.6,2.8c-0.4,0.8-0.9,1.6-1.5,2.2
			c-0.6,0.7-1.2,1.3-1.9,1.8c-0.7,0.5-1.3,1-1.9,1.4c-0.6,0.4-1.1,0.9-1.5,1.2c-0.4,0.4-0.6,0.8-0.6,1.2v2h-8v-3.4
			c0-0.6,0.1-1.1,0.4-1.6c0.3-0.5,0.7-1,1.1-1.5c0.5-0.5,0.9-0.9,1.5-1.4c0.5-0.5,1-0.9,1.5-1.4c0.5-0.5,0.8-1,1.1-1.5
			c0.3-0.5,0.4-1.1,0.4-1.8c0-0.4-0.1-0.8-0.2-1.2c-0.1-0.4-0.3-0.7-0.6-1c-0.3-0.3-0.6-0.5-1-0.7c-0.4-0.2-0.8-0.3-1.3-0.3
			c-0.6,0-1.2,0.1-1.6,0.3c-0.4,0.2-0.7,0.5-0.9,0.9c-0.2,0.4-0.4,0.8-0.4,1.3c-0.1,0.5-0.1,1-0.1,1.4c0,0.2,0,0.4,0,0.6
			c0,0.2,0,0.4,0,0.6h-8.6c0-0.3-0.1-0.6-0.1-0.9c0-0.3,0-0.6,0-0.9c0-1.5,0.3-2.9,1-4.1c0.6-1.2,1.5-2.3,2.7-3.1
			c1.1-0.9,2.5-1.5,4.1-2C153.4,147.5,155.1,147.3,156.9,147.3z"/>
		
			<linearGradient id="SVGID_00000071545760386325061900000004116436776317597328_" gradientUnits="userSpaceOnUse" x1="178.0054" y1="148.4857" x2="156.3508" y2="177.2142">
			<stop  offset="0" style="stop-color:#95C940"/>
			<stop  offset="0.595" style="stop-color:#7A9F17"/>
			<stop  offset="1" style="stop-color:#6A8700"/>
		</linearGradient>
		
			<rect x="152.9" y="172.6" style="fill:url(#SVGID_00000071545760386325061900000004116436776317597328_);" width="8.1" height="7.6"/>
	</g>
</g>
</svg>
